<svg width="300" height="227" viewBox="0 0 300 227" fill="none" xmlns="http://www.w3.org/2000/svg">
    <g id="floor_plan">
        <path id="Vector_2"
            d="M295.362 62.6527L295.411 62.6231L295.488 87.7568L295.489 87.945L295.58 87.9333L295.534 113.396L295.443 114.175L295.208 114.043C295.209 114.039 295.21 114.035 295.21 114.031C295.221 113.965 295.23 113.88 295.239 113.779C295.257 113.577 295.272 113.302 295.285 112.966C295.312 112.291 295.331 111.359 295.344 110.253C295.37 108.038 295.373 105.117 295.365 102.128C295.356 99.1395 295.337 96.0833 295.319 93.5997C295.313 92.7546 295.308 91.9761 295.302 91.2889C295.293 89.981 295.285 89.0048 295.284 88.5336L295.316 88.4314L295.324 88.4068V88.3808L295.298 68.8229V68.8222L295.305 64.0868V64.0858C295.307 63.9729 295.302 63.8427 295.297 63.7096V63.7062C295.293 63.57 295.288 63.4289 295.288 63.2904C295.288 63.031 295.307 62.8059 295.362 62.6527ZM295.434 48.623L295.308 48.6223L295.347 42.3067L295.372 42.3097C295.378 42.3386 295.385 42.3753 295.391 42.4199C295.408 42.5384 295.423 42.7012 295.437 42.905C295.463 43.3112 295.481 43.8673 295.493 44.5279C295.513 45.6683 295.514 47.1137 295.504 48.6233L295.434 48.623Z"
            fill="#8E9096" stroke="#050505" />
        <path id="section_51" d="M168.388 66.5068L171.494 66.5221L171.495 79.531L168.443 79.4877L168.388 66.5068Z"
            fill="#FEFE7E" stroke="#050505" />
        <path id="section_77" d="M65.2502 66.5074L68.4183 66.5281L68.422 79.518L65.2928 79.505L65.2502 66.5074Z"
            fill="#FEFE7E" stroke="#050505" />
        <path id="Vector_3"
            d="M282.145 135.327L279.096 135.343L279.097 121.817L279.091 118.048V118.048C279.091 117.898 279.093 117.744 279.095 117.587C279.104 117.082 279.112 116.548 279.024 116.039L282.118 116.064L282.145 135.327Z"
            fill="#EE9A33" stroke="#050505" />
        <path id="section_25"
            d="M278.763 135.514L275.405 135.508V135.505L275.406 135.496V135.486L275.387 116.067L278.692 116.073C278.778 116.55 278.77 117.049 278.763 117.557C278.76 117.72 278.757 117.885 278.758 118.049V118.05L278.764 121.817V121.817L278.763 135.51V135.514Z"
            fill="#EE9A33" stroke="#050505" />
        <g id="Vector_4">
            <path id="Vector"
                d="M282.312 135.492L282.287 135.688L275.218 135.674L275.24 135.486L278.73 135.535L278.693 122.657C278.718 120.467 278.929 118.075 278.705 115.907L278.82 115.871C278.982 116.573 278.922 117.332 278.924 118.049L278.93 121.817L278.93 135.51L282.312 135.492Z"
                fill="#D99027" />
            <g id="Mask group">
                <mask id="mask0_22_166" style="mask-type:luminance" maskUnits="userSpaceOnUse" x="275" y="115" width="8"
                    height="21">
                    <g id="Group">
                        <path id="Vector_5"
                            d="M282.312 135.492L282.287 135.688L275.218 135.674L275.24 135.486L278.73 135.535L278.693 122.657C278.718 120.467 278.929 118.075 278.705 115.907L278.82 115.871C278.982 116.573 278.922 117.332 278.924 118.049L278.93 121.817L278.93 135.51L282.312 135.492Z"
                            fill="#D5D1D5" />
                    </g>
                </mask>
                <g mask="url(#mask0_22_166)">
                    <path id="Vector_6"
                        d="M282.312 135.492L282.642 135.533L282.689 135.157L282.31 135.159L282.312 135.492ZM282.287 135.688L282.287 136.021L282.582 136.022L282.618 135.729L282.287 135.688ZM275.218 135.674L274.887 135.635L274.844 136.006L275.217 136.007L275.218 135.674ZM275.24 135.486L275.245 135.153L274.944 135.149L274.909 135.448L275.24 135.486ZM278.73 135.535L278.725 135.868L279.064 135.873L279.063 135.534L278.73 135.535ZM278.693 122.657L278.36 122.653V122.656V122.658L278.693 122.657ZM278.705 115.907L278.607 115.588L278.345 115.668L278.374 115.941L278.705 115.907ZM278.82 115.871L279.145 115.796L279.064 115.448L278.723 115.553L278.82 115.871ZM278.924 118.049L279.257 118.048V118.048L278.924 118.049ZM278.93 121.817H279.263V121.816L278.93 121.817ZM278.93 135.51H278.597V135.845L278.931 135.843L278.93 135.51ZM281.981 135.451L281.957 135.647L282.618 135.729L282.642 135.533L281.981 135.451ZM282.288 135.355L275.219 135.341L275.217 136.007L282.287 136.021L282.288 135.355ZM275.549 135.713L275.57 135.525L274.909 135.448L274.887 135.635L275.549 135.713ZM275.235 135.819L278.725 135.868L278.734 135.202L275.245 135.153L275.235 135.819ZM279.063 135.534L279.026 122.656L278.36 122.658L278.397 135.536L279.063 135.534ZM279.026 122.661C279.05 120.508 279.263 118.066 279.036 115.872L278.374 115.941C278.595 118.085 278.385 120.425 278.36 122.653L279.026 122.661ZM278.802 116.225L278.918 116.19L278.723 115.553L278.607 115.588L278.802 116.225ZM278.496 115.946C278.647 116.599 278.589 117.293 278.591 118.05L279.257 118.048C279.255 117.371 279.318 116.546 279.145 115.796L278.496 115.946ZM278.591 118.05L278.597 121.817L279.263 121.816L279.257 118.048L278.591 118.05ZM278.597 121.817L278.597 135.51H279.263L279.263 121.817H278.597ZM278.931 135.843L282.314 135.825L282.31 135.159L278.928 135.177L278.931 135.843Z"
                        fill="#050505" />
                </g>
            </g>
        </g>
        <path id="section_80"
            d="M64.1564 114.093L67.1417 114.107L67.1753 140.617L64.186 140.582L64.147 137.953V137.952L64.1564 114.093Z"
            fill="#E7AB7D" stroke="#050505" />
        <path id="section_81"
            d="M67.2373 166.565L64.0398 166.692L64.0568 147.441C64.0565 146.522 64.0328 145.581 64.0085 144.634C63.9772 143.394 63.9456 142.143 63.9659 140.913L64.0198 140.913L67.176 140.95L67.2373 166.565Z"
            fill="#D5D1D5" stroke="#050505" />
        <path id="section_52" d="M171.557 105.484L168.451 105.497L168.444 79.8206L171.621 79.8656L171.557 105.484Z"
            fill="#D99027" stroke="#050505" />
        <path id="section_91"
            d="M29.6018 111.194V111.196L29.6197 114.253L29.6198 114.255C29.6219 114.37 29.6292 114.494 29.6364 114.617L29.6369 114.626C29.6444 114.753 29.6518 114.881 29.6544 115.007C29.6586 115.213 29.6493 115.403 29.6114 115.564L29.0516 115.567L28.8932 115.549L28.8857 115.548L28.8783 115.548L25.3836 115.456L25.4049 94.809L29.6258 94.8213L29.6018 111.194Z"
            fill="#C7DB52" stroke="#050505" />
        <path id="section_83"
            d="M53.6278 122.07L53.6254 116.92V116.92C53.6251 116.681 53.6308 116.43 53.6364 116.175C53.6511 115.496 53.6671 114.778 53.5785 114.115L56.8778 114.14L56.8795 134.009L56.8772 138.685C56.8772 138.86 56.8835 139.047 56.8905 139.236V139.238C56.8971 139.429 56.9038 139.622 56.9045 139.814C56.9058 140.156 56.8871 140.482 56.8182 140.764L56.2662 140.822L53.6178 140.792L53.6278 122.07Z"
            fill="#EEC13F" stroke="#050505" />
        <g id="section_84">
            <path
                d="M53.2848 140.973V140.956L53.2948 122.07L53.2924 116.921V116.92H53.4589C53.4586 116.672 53.4643 116.416 53.4699 116.157C53.4862 115.415 53.5032 114.646 53.3847 113.947L53.2848 140.973ZM53.2848 140.973C52.8366 140.978 52.3911 140.997 51.9489 141.015C51.8514 141.019 51.7542 141.023 51.6573 141.027C51.1312 141.048 50.6088 141.065 50.083 141.056L50.069 114.123C50.0993 114.115 50.137 114.106 50.1826 114.098C50.2838 114.079 50.411 114.065 50.5575 114.055C50.8508 114.034 51.2108 114.03 51.5797 114.035C52.2243 114.045 52.8852 114.082 53.2408 114.104L53.2848 140.973Z"
                fill="#D5D1D5" />
            <path
                d="M53.2848 140.973V140.956L53.2948 122.07L53.2924 116.921V116.92H53.4589C53.4586 116.672 53.4643 116.416 53.4699 116.157C53.4862 115.415 53.5032 114.646 53.3847 113.947L53.2848 140.973ZM53.2848 140.973C52.8366 140.978 52.3911 140.997 51.9489 141.015C51.8514 141.019 51.7542 141.023 51.6573 141.027C51.1312 141.048 50.6088 141.065 50.083 141.056L50.069 114.123C50.0993 114.115 50.137 114.106 50.1826 114.098C50.2838 114.079 50.411 114.065 50.5575 114.055C50.8508 114.034 51.2108 114.03 51.5797 114.035C52.2243 114.045 52.8852 114.082 53.2408 114.104L53.2848 140.973Z"
                stroke="#050505" />
        </g>
        <path id="section_78"
            d="M65.2841 105.498L65.2934 79.838L68.5878 79.8516L68.6793 79.8519L68.663 105.508L65.2841 105.498Z"
            fill="#EE9A33" stroke="#050505" />
        <g id="Vector_5_2">
            <path
                d="M25.072 94.822L24.9136 94.8346L24.9068 94.835H24.9001L21.8419 94.824C21.842 94.824 21.8418 94.824 21.8419 94.824H21.8415L21.8421 94.6575C21.7639 94.6575 21.6842 94.6548 21.6039 94.6522C21.2747 94.6412 20.9351 94.6299 20.6501 94.794L25.072 94.822ZM25.072 94.822L25.0505 115.587L20.7141 115.608C20.7153 114.986 20.7057 113.651 20.6934 111.943C20.6787 109.889 20.66 107.294 20.6517 104.751C20.6437 102.311 20.6451 99.9167 20.6684 98.0857C20.6801 97.17 20.6972 96.3966 20.7212 95.8292C20.7333 95.5455 20.747 95.3148 20.7624 95.1446C20.7702 95.0594 20.7782 94.9914 20.7862 94.9402C20.7881 94.9282 20.79 94.9175 20.7918 94.9079L25.072 94.822Z"
                fill="#C7DB52" />
            <path
                d="M25.072 94.822L24.9136 94.8346L24.9068 94.835H24.9001L21.8419 94.824M25.072 94.822L20.6501 94.794C20.9351 94.6299 21.2747 94.6412 21.6039 94.6522C21.6842 94.6548 21.7639 94.6575 21.8421 94.6575L21.8415 94.824H21.8419M25.072 94.822L25.0505 115.587L20.7141 115.608C20.7153 114.986 20.7057 113.651 20.6934 111.943C20.6787 109.889 20.66 107.294 20.6517 104.751C20.6437 102.311 20.6451 99.9167 20.6684 98.0857C20.6801 97.17 20.6972 96.3966 20.7212 95.8292C20.7333 95.5455 20.747 95.3148 20.7624 95.1446C20.7702 95.0594 20.7782 94.9914 20.7862 94.9402C20.7881 94.9282 20.79 94.9175 20.7918 94.9079L25.072 94.822ZM21.8419 94.824C21.8418 94.824 21.842 94.824 21.8419 94.824Z"
                stroke="#050505" />
        </g>
        <g id="section_92">
            <path
                d="M25.072 94.822L24.9136 94.8346L24.9068 94.835H24.9001L21.8419 94.824C21.842 94.824 21.8418 94.824 21.8419 94.824H21.8415L21.8421 94.6575C21.7639 94.6575 21.6842 94.6548 21.6039 94.6522C21.2747 94.6412 20.9351 94.6299 20.6501 94.794L25.072 94.822ZM25.072 94.822L25.0505 115.587L20.7141 115.608C20.7153 114.986 20.7057 113.651 20.6934 111.943C20.6787 109.889 20.66 107.294 20.6517 104.751C20.6437 102.311 20.6451 99.9167 20.6684 98.0857C20.6801 97.17 20.6972 96.3966 20.7212 95.8292C20.7333 95.5455 20.747 95.3148 20.7624 95.1446C20.7702 95.0594 20.7782 94.9914 20.7862 94.9402C20.7881 94.9282 20.79 94.9175 20.7918 94.9079L25.072 94.822Z"
                fill="#C7DB52" />
            <path
                d="M25.072 94.822L24.9136 94.8346L24.9068 94.835H24.9001L21.8419 94.824M25.072 94.822L20.6501 94.794C20.9351 94.6299 21.2747 94.6412 21.6039 94.6522C21.6842 94.6548 21.7639 94.6575 21.8421 94.6575L21.8415 94.824H21.8419M25.072 94.822L25.0505 115.587L20.7141 115.608C20.7153 114.986 20.7057 113.651 20.6934 111.943C20.6787 109.889 20.66 107.294 20.6517 104.751C20.6437 102.311 20.6451 99.9167 20.6684 98.0857C20.6801 97.17 20.6972 96.3966 20.7212 95.8292C20.7333 95.5455 20.747 95.3148 20.7624 95.1446C20.7702 95.0594 20.7782 94.9914 20.7862 94.9402C20.7881 94.9282 20.79 94.9175 20.7918 94.9079L25.072 94.822ZM21.8419 94.824C21.8418 94.824 21.842 94.824 21.8419 94.824Z"
                stroke="#050505" />
        </g>
        <path id="section_93"
            d="M29.7467 141.747V141.748L29.7647 144.805L29.7647 144.807C29.7668 144.922 29.7741 145.046 29.7813 145.169L29.7818 145.178C29.7893 145.305 29.7968 145.433 29.7993 145.559C29.8035 145.765 29.7942 145.955 29.7564 146.116L29.1966 146.119L29.0381 146.101L29.0307 146.1L29.0232 146.1L25.5286 146.008L25.5499 125.361L29.7708 125.373L29.7467 141.747Z"
            fill="#C7DB52" stroke="#050505" />
        <g id="section_94">
            <path
                d="M25.3303 125.374L25.172 125.387L25.1652 125.387H25.1584L22.1003 125.376C22.1004 125.376 22.1002 125.376 22.1003 125.376H22.0998L22.1004 125.21C22.0223 125.21 21.9426 125.207 21.8622 125.204C21.5331 125.193 21.1934 125.182 20.9084 125.346L25.3303 125.374ZM25.3303 125.374L25.3089 146.139L20.9724 146.16C20.9737 145.538 20.9641 144.203 20.9518 142.495C20.937 140.441 20.9184 137.847 20.9101 135.303C20.902 132.863 20.9035 130.469 20.9268 128.638C20.9384 127.722 20.9555 126.949 20.9796 126.381C20.9916 126.098 21.0054 125.867 21.0208 125.697C21.0285 125.611 21.0365 125.544 21.0446 125.492C21.0465 125.48 21.0483 125.47 21.0501 125.46L25.3303 125.374Z"
                fill="#C7DB52" />
            <path
                d="M25.3303 125.374L25.172 125.387L25.1652 125.387H25.1584L22.1003 125.376M25.3303 125.374L20.9084 125.346C21.1934 125.182 21.5331 125.193 21.8622 125.204C21.9426 125.207 22.0223 125.21 22.1004 125.21L22.0998 125.376H22.1003M25.3303 125.374L25.3089 146.139L20.9724 146.16C20.9737 145.538 20.9641 144.203 20.9518 142.495C20.937 140.441 20.9184 137.847 20.9101 135.303C20.902 132.863 20.9035 130.469 20.9268 128.638C20.9384 127.722 20.9555 126.949 20.9796 126.381C20.9916 126.098 21.0054 125.867 21.0208 125.697C21.0285 125.611 21.0365 125.544 21.0446 125.492C21.0465 125.48 21.0483 125.47 21.0501 125.46L25.3303 125.374ZM22.1003 125.376C22.1002 125.376 22.1004 125.376 22.1003 125.376Z"
                stroke="#050505" />
        </g>
        <path id="section_23" d="M273.454 83.8216L273.426 66.5191L280.132 66.5125L280.14 83.8395L273.454 83.8216Z"
            fill="#F33517" stroke="#050505" />
        <path id="Vector 16" d="M276.693 66.5927V83.9068" stroke="#050505" />
        <path id="section_27" d="M258.428 66.4991L265.134 66.5061V83.8398L258.424 83.8235L258.428 66.4991Z"
            fill="#F33517" stroke="#050505" />
        <path id="section_28" d="M258.408 88.1164L265.142 88.1344L265.145 105.505L258.413 105.498L258.408 88.1164Z"
            fill="#D99027" stroke="#050505" />
        <path id="Vector 2" d="M261.709 87.9023V105.549" stroke="#050505" />
        <path id="Vector 3" d="M261.709 66.2597V83.9068" stroke="#050505" />
        <path id="section_24"
            d="M273.412 94.3528L273.398 89.987C273.398 89.8268 273.392 89.6564 273.385 89.4846C273.385 89.4739 273.384 89.4633 273.384 89.4526C273.378 89.2904 273.372 89.1263 273.369 88.9631C273.365 88.6651 273.375 88.3791 273.421 88.1264L280.157 88.1267L280.161 105.504L273.416 105.491C273.296 103.087 273.335 100.647 273.374 98.2102C273.394 96.9213 273.415 95.6334 273.412 94.3528Z"
            fill="#D99027" stroke="#050505" />
        <path id="section_26" d="M275.384 135.841L282.121 135.854L282.144 153.255L275.38 153.256L275.384 135.841Z"
            fill="#42AAED" stroke="#050505" />
        <path id="Vector_8"
            d="M202.272 193.832L202.27 203.25L47.9078 203.254L47.9088 209.908C47.9084 210.437 48.0446 211.649 47.7746 212.054L47.5342 212.066C47.2588 211.285 47.406 210.034 47.403 209.192C47.395 207.076 47.1709 204.608 47.5012 202.529L63.1525 202.47L92.3341 202.47L181.844 202.482C183.705 202.483 200.979 202.692 201.544 202.409L201.542 196.092C201.544 195.384 201.39 194.155 201.692 193.543C201.817 194.144 201.746 194.857 201.748 195.471C201.754 197.052 201.653 198.71 201.819 200.28C201.829 199.974 201.823 199.655 201.876 199.354C201.911 199.158 201.932 199.059 201.896 198.857C201.616 197.304 202.008 195.594 201.871 194.017L201.855 193.848L201.971 193.836C202.005 195.249 201.633 202.054 202.075 202.878C202.072 201.696 201.876 194.466 202.179 193.97L202.272 193.832Z"
            fill="#080807" />
        <path id="section_34" d="M249.751 135.841L256.479 135.848L256.498 154.137L249.737 154.125L249.751 135.841Z"
            fill="#42AAED" stroke="#050505" />
        <path id="section_43" d="M202.179 105.509L202.179 66.5351L205.206 66.5034L205.208 105.51L202.179 105.509Z"
            fill="#D99027" stroke="#050505" />
        <path id="section_90" d="M21.8287 66.4525L28.663 66.4725L28.6542 84.6313L21.8284 84.6573L21.8287 66.4525Z"
            fill="#C7DB52" stroke="#050505" />
        <path id="section_30" d="M262.603 135.832L269.368 135.855L269.365 154.125L262.572 154.132L262.603 135.832Z"
            fill="#42AAED" stroke="#050505" />
        <path id="section_64" d="M109.413 66.4888L112.425 66.4981L112.441 105.503L109.418 105.508L109.413 66.4888Z"
            fill="#EEC13F" stroke="#050505" />
        <path id="section_76" d="M68.996 105.512L69.0206 66.4795L72.0466 66.4981L72.0516 105.58L68.996 105.512Z"
            fill="#FEFE7E" stroke="#050505" />
        <path id="section_71" d="M82.9365 105.495L82.9455 66.5204L85.9878 66.4991L85.9951 105.53L82.9365 105.495Z"
            fill="#EEC13F" stroke="#050505" />
        <path id="section_68" d="M94.2596 66.5081L97.3971 66.4998L97.4004 105.506L94.2752 105.494L94.2596 66.5081Z"
            fill="#EEC13F" stroke="#050505" />
        <path id="section_41"
            d="M211.222 133.553C211.222 133.553 211.222 133.553 211.222 133.551C211.221 133.545 211.216 133.522 211.214 133.474C211.212 133.42 211.213 133.353 211.217 133.281C211.219 133.229 211.223 133.17 211.227 133.114C211.232 133.026 211.238 132.941 211.238 132.888L211.239 130.046L211.224 115.024L218.12 115.046L218.119 133.754L211.371 133.705C211.353 133.689 211.335 133.673 211.32 133.66C211.308 133.649 211.297 133.64 211.289 133.632C211.251 133.597 211.232 133.574 211.222 133.553Z"
            fill="#A0D1D9" stroke="#050505" />
        <path id="Vector 13" d="M214.761 115.205V133.851" stroke="#050505" />
        <path id="section_38"
            d="M227.663 154.154L227.676 115.053L230.851 115.051L230.849 154.112L230.685 154.207L227.663 154.154Z"
            fill="#E7AB7D" stroke="#050505" />
        <path id="section_37" d="M236.887 115.076L240.096 115.072L240.087 154.139L236.889 154.147L236.887 115.076Z"
            fill="#E7AB7D" stroke="#050505" />
        <path id="section_47" d="M183.432 66.5028L186.728 66.5088L186.693 105.481L183.439 105.48L183.432 66.5028Z"
            fill="#F33517" stroke="#050505" />
        <path id="section_46" d="M187.026 105.483L187.06 66.5088L190.237 66.5021L190.235 105.507L187.026 105.483Z"
            fill="#D99027" stroke="#050505" />
        <path id="section_50" d="M171.89 105.484L171.988 66.5021L175.216 66.4995L175.214 105.493L171.89 105.484Z"
            fill="#F33517" stroke="#050505" />
        <path id="section_87" d="M34.8426 66.4625L38.1386 66.5051L38.115 105.539L34.8546 105.528L34.8426 66.4625Z"
            fill="#C7DB52" stroke="#050505" />
        <path id="section_42"
            d="M211.229 140.1L211.222 136.387C211.222 136.264 211.216 136.13 211.209 135.996L211.209 135.988C211.202 135.855 211.196 135.72 211.195 135.587C211.192 135.363 211.204 135.158 211.246 134.99L218.123 135.07L218.118 154.201C216.457 154.389 214.638 154.331 212.88 154.275C212.323 154.257 211.771 154.24 211.232 154.23L211.229 140.1Z"
            fill="#A0D1D9" stroke="#050505" />
        <path id="Vector 14" d="M215.094 134.85V154.162" stroke="#050505" />
        <path id="section_67" d="M101.036 105.504L97.7334 105.507L97.7301 66.4998L101.03 66.5068L101.036 105.504Z"
            fill="#D99027" stroke="#050505" />
        <path id="section_36" d="M240.42 154.138L240.429 115.07L243.724 115.045L243.719 154.129L240.42 154.138Z"
            fill="#42AAED" stroke="#050505" />
        <path id="section_72" d="M79.2836 66.5118L82.6125 66.5211L82.6035 105.492L79.2822 105.476L79.2836 66.5118Z"
            fill="#802423" stroke="#050505" />
        <path id="section_86" d="M38.4479 105.542L38.4716 66.5078L41.7386 66.5214L41.7346 105.585L38.4479 105.542Z"
            fill="#FEFE7E" stroke="#050505" />
        <path id="section_63" d="M116.158 105.491L112.774 105.502L112.758 66.4988L116.154 66.5018L116.158 105.491Z"
            fill="#D99027" stroke="#050505" />
        <path id="section_33" d="M256.479 135.515L249.751 135.508L249.743 115.081L256.47 115.08L256.479 135.515Z"
            fill="#EE9A33" stroke="#050505" />
        <path id="section_29" d="M269.368 135.522L262.603 135.499L262.58 115.086L269.362 115.076L269.368 135.522Z"
            fill="#EE9A33" stroke="#050505" />
        <path id="Vector 4" d="M266.038 115.205V154.162" stroke="#050505" />
        <path id="section_39"
            d="M224 154.202L223.927 115.039L227.343 115.052L227.33 154.299C226.201 154.322 225.078 154.313 224 154.202Z"
            fill="#A0D1D9" stroke="#050505" />
        <path id="section_54" d="M168.313 114.373H171.643V114.469L171.636 152.997H170.834H168.313V114.373Z"
            fill="#D5D1D5" stroke="#050505" />
        <path id="section_44"
            d="M201.846 66.5144L201.846 105.487H201.835L198.362 105.494L198.355 66.5005L201.764 66.5028L201.846 66.5144Z"
            fill="#D99027" stroke="#050505" />
        <g id="Vector_9">
            <path id="Vector_7" d="M202.013 66.3703L202.013 105.676L201.836 105.653L201.776 66.3363L202.013 66.3703Z"
                fill="#AB7726" />
            <g id="Mask group_2">
                <mask id="mask1_22_166" style="mask-type:luminance" maskUnits="userSpaceOnUse" x="201" y="66" width="2"
                    height="40">
                    <g id="Group_2">
                        <path id="Vector_10"
                            d="M202.013 66.3703L202.013 105.676L201.836 105.653L201.776 66.3363L202.013 66.3703Z"
                            fill="#D5D1D5" />
                    </g>
                </mask>
                <g mask="url(#mask1_22_166)">
                    <path id="Vector_11"
                        d="M202.013 66.3703H202.346V66.0816L202.06 66.0406L202.013 66.3703ZM202.013 105.676L201.971 106.006L202.346 106.053V105.676H202.013ZM201.836 105.653L201.503 105.654L201.503 105.947L201.794 105.984L201.836 105.653ZM201.776 66.3363L201.823 66.0067L201.442 65.9521L201.443 66.337L201.776 66.3363ZM201.68 66.3703L201.68 105.676H202.346L202.346 66.3703H201.68ZM202.055 105.345L201.877 105.323L201.794 105.984L201.971 106.006L202.055 105.345ZM202.169 105.653L202.109 66.3356L201.443 66.337L201.503 105.654L202.169 105.653ZM201.729 66.6659L201.965 66.6999L202.06 66.0406L201.823 66.0067L201.729 66.6659Z"
                        fill="#050505" />
                </g>
            </g>
        </g>
        <path id="section_48"
            d="M186.635 114.519V114.373L190.289 114.373L190.276 152.996C189.708 152.997 188.818 152.997 188.04 152.997C187.611 152.996 187.216 152.996 186.928 152.996H186.626V152.918L186.635 114.519Z"
            fill="#A0D1D9" stroke="#050505" />
        <g id="Vector_10_2">
            <path id="Vector_12"
                d="M296.304 192.621L296.291 193.697C296.209 193.75 296.137 193.824 296.045 193.856C295.824 193.933 295.233 193.854 294.984 193.854L291.655 193.848L274.805 193.841L226.414 193.84L202.272 193.832L202.179 193.97C201.876 194.466 202.072 201.696 202.075 202.878C201.633 202.053 202.005 195.249 201.971 193.836L201.855 193.848L201.871 194.017C202.008 195.594 201.616 197.304 201.896 198.857C201.932 199.058 201.911 199.158 201.876 199.353C201.823 199.655 201.829 199.974 201.819 200.28C201.653 198.71 201.754 197.052 201.748 195.471C201.746 194.857 201.817 194.144 201.692 193.543L202.075 193.09L295.101 193.109L295.468 192.989L295.441 155.166C295.436 154.842 295.48 154.56 295.267 154.307C295.029 153.528 295.127 152.577 295.124 151.766L295.113 147.365L295.12 129.497C295.128 125.56 294.887 121.507 295.114 117.583C295.131 117.298 295.213 117.018 295.305 116.749C295.567 116.443 295.451 114.86 295.458 114.375L295.587 114.377L295.7 113.405L295.747 87.7445C295.969 85.4907 295.808 83.0863 295.808 80.8179L295.804 67.6585L295.803 64.4214C295.803 64.0641 295.716 63.4012 295.802 63.0772C295.832 62.965 296.031 62.7439 296.105 62.6377L296.121 113.207L296.11 169.823L296.113 185.377L296.119 190.066C296.121 190.892 295.998 191.848 296.304 192.621ZM295.101 193.109L202.075 193.09L201.692 193.543C201.817 194.144 201.746 194.857 201.748 195.471C201.754 197.052 201.653 198.71 201.819 200.28C201.829 199.974 201.823 199.655 201.876 199.353C201.911 199.158 201.932 199.058 201.896 198.857C201.616 197.304 202.008 195.594 201.871 194.017L201.855 193.848L201.971 193.836C202.005 195.249 201.633 202.053 202.075 202.878C202.072 201.696 201.876 194.466 202.179 193.97L202.272 193.832C202.413 193.744 202.566 193.664 202.734 193.644C203.605 193.546 204.597 193.64 205.478 193.639L211.232 193.636L230.957 193.634L295.679 193.635V193.554H215.231C214.954 193.554 214.414 193.625 214.16 193.554C214.036 193.52 213.943 193.414 213.835 193.344C214.202 193.183 214.695 193.254 215.094 193.254L217.95 193.256L230.91 193.261L280.595 193.269L290.281 193.266C291.758 193.265 293.722 193.531 295.101 193.109Z"
                fill="#080807" />
            <g id="Mask group_3">
                <mask id="mask2_22_166" style="mask-type:luminance" maskUnits="userSpaceOnUse" x="201" y="62" width="96"
                    height="141">
                    <g id="Group_3">
                        <path id="Vector_13"
                            d="M296.304 192.621L296.291 193.697C296.209 193.75 296.137 193.824 296.045 193.856C295.824 193.933 295.233 193.854 294.984 193.854L291.655 193.848L274.805 193.841L226.414 193.84L202.272 193.832L202.179 193.97C201.876 194.466 202.072 201.696 202.075 202.878C201.633 202.053 202.005 195.249 201.971 193.836L201.855 193.848L201.871 194.017C202.008 195.594 201.616 197.304 201.896 198.857C201.932 199.058 201.911 199.158 201.876 199.353C201.823 199.655 201.829 199.974 201.819 200.28C201.653 198.71 201.754 197.052 201.748 195.471C201.746 194.857 201.817 194.144 201.692 193.543L202.075 193.09L295.101 193.109L295.468 192.989L295.441 155.166C295.436 154.842 295.48 154.56 295.267 154.307C295.029 153.528 295.127 152.577 295.124 151.766L295.113 147.365L295.12 129.497C295.128 125.56 294.887 121.507 295.114 117.583C295.131 117.298 295.213 117.018 295.305 116.749C295.567 116.443 295.451 114.86 295.458 114.375L295.587 114.377L295.7 113.405L295.747 87.7445C295.969 85.4907 295.808 83.0863 295.808 80.8179L295.804 67.6585L295.803 64.4214C295.803 64.0641 295.716 63.4012 295.802 63.0772C295.832 62.965 296.031 62.7439 296.105 62.6377L296.121 113.207L296.11 169.823L296.113 185.377L296.119 190.066C296.121 190.892 295.998 191.848 296.304 192.621ZM295.101 193.109L202.075 193.09L201.692 193.543C201.817 194.144 201.746 194.857 201.748 195.471C201.754 197.052 201.653 198.71 201.819 200.28C201.829 199.974 201.823 199.655 201.876 199.353C201.911 199.158 201.932 199.058 201.896 198.857C201.616 197.304 202.008 195.594 201.871 194.017L201.855 193.848L201.971 193.836C202.005 195.249 201.633 202.053 202.075 202.878C202.072 201.696 201.876 194.466 202.179 193.97L202.272 193.832C202.413 193.744 202.566 193.664 202.734 193.644C203.605 193.546 204.597 193.64 205.478 193.639L211.232 193.636L230.957 193.634L295.679 193.635V193.554H215.231C214.954 193.554 214.414 193.625 214.16 193.554C214.036 193.52 213.943 193.414 213.835 193.344C214.202 193.183 214.695 193.254 215.094 193.254L217.95 193.256L230.91 193.261L280.595 193.269L290.281 193.266C291.758 193.265 293.722 193.531 295.101 193.109Z"
                            fill="#D5D1D5" />
                    </g>
                </mask>
                <g mask="url(#mask2_22_166)">
                    <path id="Vector_14"
                        d="M202.179 193.97L202.041 193.878L202.039 193.881L202.037 193.884L202.179 193.97ZM202.075 202.878L201.928 202.957L202.242 202.878L202.075 202.878ZM201.971 193.836L202.137 193.832L202.133 193.651L201.954 193.67L201.971 193.836ZM201.855 193.848L201.838 193.682L201.675 193.699L201.69 193.863L201.855 193.848ZM201.871 194.017L202.037 194.002V194.001L201.871 194.017ZM201.819 200.28L201.653 200.298L201.985 200.286L201.819 200.28ZM201.692 193.543L201.565 193.435L201.512 193.497L201.529 193.577L201.692 193.543ZM202.075 193.09V192.923H201.998L201.948 192.982L202.075 193.09ZM202.134 193.739L202.041 193.878L202.317 194.063L202.41 193.925L202.134 193.739ZM202.037 193.884C202.001 193.943 201.98 194.028 201.964 194.108C201.948 194.196 201.934 194.305 201.922 194.431C201.898 194.684 201.88 195.016 201.868 195.4C201.844 196.169 201.84 197.159 201.846 198.168C201.857 200.199 201.907 202.28 201.909 202.878L202.242 202.878C202.24 202.295 202.19 200.17 202.179 198.166C202.173 197.158 202.177 196.173 202.201 195.411C202.213 195.029 202.23 194.705 202.253 194.463C202.265 194.342 202.278 194.244 202.292 194.17C202.299 194.133 202.305 194.105 202.312 194.084C202.318 194.062 202.322 194.055 202.321 194.057L202.037 193.884ZM202.222 202.799C202.183 202.727 202.143 202.561 202.11 202.291C202.079 202.03 202.057 201.696 202.044 201.31C202.016 200.539 202.02 199.57 202.036 198.58C202.069 196.609 202.154 194.542 202.137 193.832L201.804 193.84C201.821 194.542 201.737 196.584 201.703 198.575C201.687 199.566 201.683 200.542 201.711 201.322C201.725 201.712 201.747 202.056 201.78 202.331C201.812 202.596 201.856 202.822 201.928 202.957L202.222 202.799ZM201.954 193.67L201.838 193.682L201.873 194.013L201.988 194.001L201.954 193.67ZM201.69 193.863L201.705 194.032L202.037 194.001L202.021 193.832L201.69 193.863ZM201.705 194.031C201.772 194.805 201.71 195.612 201.664 196.437C201.618 197.256 201.588 198.089 201.732 198.887L202.06 198.828C201.924 198.073 201.95 197.274 201.996 196.455C202.042 195.643 202.106 194.806 202.037 194.002L201.705 194.031ZM201.732 198.887C201.763 199.056 201.747 199.13 201.713 199.325L202.04 199.382C202.075 199.186 202.101 199.061 202.06 198.828L201.732 198.887ZM201.713 199.325C201.657 199.641 201.663 199.981 201.652 200.274L201.985 200.286C201.996 199.968 201.99 199.668 202.04 199.382L201.713 199.325ZM201.984 200.263C201.819 198.703 201.921 197.067 201.914 195.471L201.581 195.472C201.588 197.037 201.486 198.716 201.653 200.298L201.984 200.263ZM201.914 195.471C201.914 195.32 201.918 195.163 201.922 195C201.927 194.838 201.931 194.67 201.932 194.503C201.934 194.17 201.921 193.827 201.855 193.509L201.529 193.577C201.588 193.86 201.601 194.175 201.599 194.501C201.598 194.664 201.594 194.828 201.589 194.991C201.585 195.153 201.581 195.316 201.581 195.472L201.914 195.471ZM201.819 193.651L202.202 193.197L201.948 192.982L201.565 193.435L201.819 193.651ZM202.075 193.256L295.101 193.276V192.943L202.075 192.923V193.256ZM296.304 192.621L296.637 192.625L296.638 192.559L296.614 192.498L296.304 192.621ZM296.291 193.697L296.472 193.977L296.622 193.88L296.624 193.701L296.291 193.697ZM202.272 193.832L202.096 193.549L201.109 194.165L202.272 194.165V193.832ZM295.101 193.109L295.199 193.427L295.202 193.426L295.205 193.425L295.101 193.109ZM295.468 192.989L295.572 193.305L295.802 193.23L295.801 192.988L295.468 192.989ZM295.441 155.166L295.774 155.166V155.163V155.161L295.441 155.166ZM295.267 154.307L294.949 154.404L294.969 154.469L295.012 154.521L295.267 154.307ZM295.124 151.766L294.791 151.767V151.767L295.124 151.766ZM295.113 147.365H294.78V147.366L295.113 147.365ZM295.12 129.497L294.787 129.497V129.497H295.12ZM295.305 116.749L295.053 116.532L295.011 116.58L294.99 116.641L295.305 116.749ZM295.458 114.375L295.462 114.042L295.13 114.039L295.125 114.37L295.458 114.375ZM295.587 114.377L295.584 114.71L295.884 114.713L295.918 114.415L295.587 114.377ZM295.7 113.405L296.031 113.444L296.033 113.425L296.033 113.406L295.7 113.405ZM295.747 87.7445L295.416 87.7119L295.414 87.7279V87.7438L295.747 87.7445ZM296.105 62.6377H296.438L296.437 61.5673L295.83 62.4489L296.105 62.6377ZM295.679 193.635V193.968H296.012V193.635H295.679ZM295.679 193.554H296.012V193.221H295.679V193.554ZM214.16 193.554L214.25 193.234L214.249 193.233L214.16 193.554ZM213.835 193.345L213.701 193.04L213.134 193.289L213.654 193.625L213.835 193.345ZM215.094 193.254L215.094 193.587H215.094L215.094 193.254ZM217.95 193.256L217.95 193.589H217.95V193.256ZM295.971 192.617L295.959 193.693L296.624 193.701L296.637 192.625L295.971 192.617ZM296.111 193.417C296.08 193.437 296.053 193.457 296.031 193.474C296.006 193.493 295.993 193.503 295.976 193.515C295.944 193.539 295.935 193.542 295.936 193.541L296.154 194.171C296.248 194.138 296.321 194.088 296.368 194.053C296.43 194.008 296.44 193.997 296.472 193.977L296.111 193.417ZM295.936 193.541C295.937 193.541 295.926 193.545 295.901 193.548C295.877 193.551 295.846 193.554 295.808 193.555C295.732 193.558 295.641 193.556 295.541 193.551C295.363 193.543 295.116 193.521 294.984 193.521L294.983 194.187C295.1 194.187 295.274 194.205 295.509 194.216C295.616 194.222 295.729 194.225 295.834 194.221C295.931 194.217 296.05 194.207 296.154 194.171L295.936 193.541ZM294.984 193.521L291.655 193.515L291.654 194.181L294.983 194.187L294.984 193.521ZM291.655 193.515L274.805 193.508V194.174L291.655 194.181L291.655 193.515ZM274.805 193.508L226.414 193.507V194.173L274.805 194.174V193.508ZM226.414 193.507L202.272 193.499V194.165L226.414 194.173V193.507ZM295.205 193.425L295.572 193.305L295.365 192.672L294.998 192.793L295.205 193.425ZM295.801 192.988L295.774 155.166L295.108 155.166L295.135 192.989L295.801 192.988ZM295.774 155.161C295.772 155.037 295.781 154.836 295.763 154.672C295.741 154.483 295.681 154.282 295.522 154.093L295.012 154.521C295.066 154.585 295.09 154.651 295.101 154.748C295.115 154.87 295.105 154.971 295.108 155.171L295.774 155.161ZM295.586 154.209C295.48 153.865 295.446 153.47 295.44 153.044C295.438 152.833 295.442 152.619 295.447 152.403C295.452 152.19 295.458 151.973 295.457 151.765L294.791 151.767C294.792 151.964 294.787 152.171 294.781 152.388C294.776 152.603 294.772 152.828 294.774 153.053C294.78 153.5 294.816 153.97 294.949 154.404L295.586 154.209ZM295.457 151.765L295.446 147.364L294.78 147.366L294.791 151.767L295.457 151.765ZM295.446 147.365L295.453 129.497H294.787L294.78 147.365H295.446ZM295.453 129.498C295.461 125.531 295.22 121.516 295.447 117.603L294.782 117.564C294.554 121.498 294.795 125.59 294.787 129.497L295.453 129.498ZM295.447 117.603C295.46 117.364 295.53 117.121 295.62 116.856L294.99 116.641C294.896 116.915 294.801 117.231 294.782 117.564L295.447 117.603ZM295.558 116.965C295.636 116.875 295.679 116.765 295.706 116.674C295.734 116.577 295.754 116.469 295.769 116.36C295.797 116.141 295.808 115.884 295.81 115.632C295.812 115.378 295.807 115.12 295.801 114.899C295.795 114.672 295.789 114.492 295.791 114.381L295.125 114.37C295.123 114.5 295.129 114.7 295.135 114.916C295.141 115.137 295.146 115.385 295.144 115.626C295.142 115.869 295.132 116.095 295.108 116.274C295.097 116.363 295.082 116.433 295.067 116.484C295.051 116.54 295.041 116.546 295.053 116.532L295.558 116.965ZM295.455 114.708L295.584 114.71L295.591 114.044L295.462 114.042L295.455 114.708ZM295.918 114.415L296.031 113.444L295.369 113.367L295.257 114.338L295.918 114.415ZM296.033 113.406L296.08 87.7452L295.414 87.7438L295.367 113.405L296.033 113.406ZM296.078 87.7771C296.302 85.502 296.141 83.0544 296.141 80.8179H295.475C295.475 83.1183 295.636 85.4794 295.416 87.7119L296.078 87.7771ZM296.141 80.8179L296.137 67.6585H295.471L295.475 80.8179H296.141ZM296.137 67.6585L296.136 64.4214H295.47L295.471 67.6585H296.137ZM296.136 64.4214C296.136 64.2353 296.113 63.9486 296.103 63.7222C296.092 63.4645 296.096 63.268 296.124 63.1632L295.481 62.9913C295.422 63.2104 295.427 63.5074 295.437 63.7515C295.449 64.0269 295.47 64.2503 295.47 64.4214H296.136ZM296.124 63.1632C296.118 63.1858 296.113 63.1858 296.134 63.1535C296.15 63.1275 296.173 63.0949 296.203 63.0566C296.232 63.0183 296.262 62.9807 296.292 62.9414C296.321 62.9051 296.354 62.8632 296.379 62.8265L295.83 62.4489C295.798 62.4959 295.752 62.5488 295.672 62.6537C295.639 62.698 295.602 62.7486 295.57 62.7986C295.542 62.8428 295.502 62.9128 295.481 62.9913L296.124 63.1632ZM295.772 62.6377L295.788 113.207H296.454L296.438 62.6377H295.772ZM295.788 113.207L295.777 169.823H296.443L296.454 113.207H295.788ZM295.777 169.823L295.78 185.377H296.446L296.443 169.823H295.777ZM295.78 185.377L295.786 190.066L296.452 190.066L296.446 185.377H295.78ZM295.786 190.066C295.787 190.266 295.779 190.475 295.773 190.695C295.766 190.913 295.76 191.141 295.765 191.369C295.773 191.823 295.82 192.302 295.995 192.744L296.614 192.498C296.483 192.167 296.438 191.782 296.43 191.357C296.427 191.147 296.432 190.933 296.439 190.715C296.445 190.5 296.453 190.279 296.452 190.066L295.786 190.066ZM202.448 194.115C202.581 194.032 202.681 193.986 202.772 193.975L202.697 193.314C202.452 193.342 202.246 193.456 202.096 193.549L202.448 194.115ZM202.772 193.975C203.184 193.929 203.631 193.927 204.095 193.938C204.548 193.949 205.034 193.972 205.478 193.972L205.478 193.306C205.042 193.306 204.59 193.283 204.11 193.272C203.64 193.261 203.156 193.262 202.697 193.314L202.772 193.975ZM205.478 193.972L211.233 193.968L211.232 193.303L205.478 193.306L205.478 193.972ZM211.233 193.968L230.957 193.967V193.301L211.232 193.303L211.233 193.968ZM230.957 193.967L295.679 193.968V193.302L230.957 193.301V193.967ZM296.012 193.635V193.554H295.346V193.635H296.012ZM295.679 193.221H215.231V193.887H295.679V193.221ZM215.231 193.221C215.085 193.221 214.848 193.241 214.672 193.248C214.463 193.257 214.317 193.253 214.25 193.234L214.07 193.875C214.257 193.927 214.508 193.922 214.701 193.914C214.928 193.904 215.1 193.887 215.231 193.887V193.221ZM214.249 193.233C214.25 193.234 214.246 193.233 214.237 193.227C214.226 193.222 214.212 193.212 214.192 193.197C214.169 193.179 214.152 193.165 214.119 193.14C214.091 193.118 214.055 193.09 214.015 193.064L213.654 193.625C213.697 193.652 213.712 193.668 213.791 193.728C213.852 193.775 213.947 193.841 214.071 193.875L214.249 193.233ZM213.969 193.649C214.09 193.596 214.251 193.574 214.456 193.572C214.557 193.57 214.659 193.574 214.768 193.578C214.873 193.582 214.986 193.587 215.094 193.587L215.095 192.921C215.003 192.921 214.905 192.917 214.793 192.913C214.685 192.908 214.568 192.904 214.449 192.906C214.216 192.908 213.947 192.932 213.701 193.04L213.969 193.649ZM215.094 193.587L217.95 193.589L217.95 192.923L215.094 192.921L215.094 193.587ZM217.95 193.589L230.91 193.594V192.928L217.95 192.923V193.589ZM230.91 193.594L280.595 193.602L280.595 192.936L230.91 192.928V193.594ZM280.595 193.602L290.281 193.599V192.933L280.595 192.936L280.595 193.602ZM290.281 193.599C290.642 193.599 291.035 193.615 291.449 193.633C291.86 193.651 292.293 193.671 292.722 193.678C293.576 193.692 294.456 193.655 295.199 193.427L295.004 192.791C294.367 192.986 293.575 193.026 292.733 193.013C292.315 193.006 291.893 192.986 291.478 192.968C291.066 192.95 290.659 192.933 290.281 192.933L290.281 193.599Z"
                        fill="#050505" />
                </g>
            </g>
        </g>
        <path id="Vector_11_2"
            d="M295.587 114.377L295.722 151.9L295.595 162.133C295.595 165.271 295.844 192.25 295.468 192.989L295.441 155.166C295.436 154.842 295.48 154.56 295.267 154.307C295.029 153.528 295.127 152.577 295.124 151.766L295.113 147.365L295.12 129.497C295.128 125.56 294.887 121.507 295.114 117.583C295.131 117.298 295.213 117.018 295.305 116.749C295.567 116.443 295.451 114.86 295.458 114.375L295.587 114.377Z"
            fill="#8E9096" />
        <path id="Vector_12_2"
            d="M295.101 193.109C293.722 193.531 291.758 193.265 290.281 193.266L280.595 193.269L230.91 193.261L217.95 193.256L215.094 193.254C214.695 193.254 214.202 193.183 213.835 193.344C213.943 193.414 214.036 193.52 214.16 193.554C214.414 193.625 214.954 193.554 215.231 193.554H295.679V193.635L230.957 193.634L211.232 193.636L205.478 193.639C204.597 193.64 203.605 193.546 202.734 193.644C202.566 193.664 202.413 193.744 202.272 193.832L202.179 193.97C201.876 194.466 202.072 201.696 202.075 202.878C201.633 202.053 202.005 195.249 201.971 193.836L201.855 193.848L201.871 194.017C202.008 195.594 201.616 197.304 201.896 198.857C201.932 199.058 201.911 199.158 201.876 199.353C201.823 199.655 201.829 199.974 201.819 200.28C201.653 198.71 201.754 197.052 201.748 195.471C201.746 194.857 201.817 194.144 201.692 193.543L202.075 193.09L295.101 193.109Z"
            fill="#080807" fill-opacity="0.988235" />
        <path id="section_20"
            d="M290.579 62.6824L295.003 62.7053C294.964 62.8885 294.955 63.0956 294.955 63.2897C294.955 63.4352 294.96 63.5817 294.965 63.7169V63.7179C294.969 63.8551 294.974 63.9783 294.972 64.0828V64.0845L294.965 68.8222V68.8229L294.991 88.3412L288.283 88.3285L288.308 62.715C288.634 62.6677 288.989 62.6571 289.353 62.6594C289.551 62.6607 289.749 62.6657 289.945 62.671L289.975 62.6717C290.18 62.677 290.383 62.6824 290.578 62.6824H290.579Z"
            fill="#CE3729" stroke="#050505" />
        <path id="section_66"
            d="M112.62 114.143L112.609 166.514C111.851 166.456 111.048 166.486 110.272 166.515C109.986 166.526 109.705 166.536 109.431 166.542L109.427 114.148L112.62 114.143Z"
            fill="#F33517" stroke="#050505" />
        <path id="section_21"
            d="M294.884 113.959L288.173 113.993C288.176 111.083 288.203 104.804 288.23 99.2048C288.243 96.3506 288.256 93.6733 288.266 91.7094C288.271 90.7275 288.275 89.9241 288.278 89.366L288.281 88.7214L288.282 88.6615L294.951 88.6741C294.954 89.1852 294.96 90.1019 294.969 91.2932C294.975 91.9801 294.98 92.758 294.987 93.602C295.004 96.0856 295.024 99.1412 295.032 102.129C295.04 105.117 295.038 108.037 295.011 110.249C294.998 111.354 294.979 112.282 294.953 112.952C294.939 113.287 294.924 113.557 294.907 113.75C294.9 113.837 294.892 113.906 294.884 113.959Z"
            fill="#EE9A33" stroke="#050505" />
        <path id="section_89"
            d="M38.0737 114.066H38.0804L38.0827 114.066L38.0644 166.588L34.8493 166.563L34.8496 114.088L38.0737 114.066Z"
            fill="#C7DB52" stroke="#050505" />
        <g id="section_65">
            <path
                d="M112.942 166.527L112.953 114.141L116.161 114.119C116.161 114.804 116.166 116.48 116.172 118.832C116.186 124.119 116.209 132.82 116.218 141.36C116.225 147.71 116.223 153.972 116.204 158.676C116.195 161.029 116.181 162.991 116.162 164.381C116.152 165.076 116.141 165.627 116.128 166.012C116.122 166.204 116.115 166.353 116.108 166.457C116.108 166.468 116.107 166.479 116.106 166.489L112.942 166.527Z"
                fill="#577BF4" />
            <path
                d="M116.094 166.604C116.094 166.604 116.094 166.603 116.094 166.601M112.942 166.527L112.953 114.141L116.161 114.119C116.161 114.804 116.166 116.48 116.172 118.832C116.186 124.119 116.209 132.82 116.218 141.36C116.225 147.71 116.223 153.972 116.204 158.676C116.195 161.029 116.181 162.991 116.162 164.381C116.152 165.076 116.141 165.627 116.128 166.012C116.122 166.204 116.115 166.353 116.108 166.457C116.108 166.468 116.107 166.479 116.106 166.489L112.942 166.527Z"
                stroke="#050505" />
        </g>
        <path id="section_2" d="M11.1275 167.129L11.1206 199.535L5.53217 199.539L5.53679 167.129H11.1275Z"
            fill="#FEFE7E" stroke="#050505" />
        <path id="section_88"
            d="M41.7856 114.344C41.8162 114.427 41.8362 114.573 41.8442 114.771C41.8518 114.964 41.8472 115.19 41.8378 115.422C41.8302 115.609 41.8189 115.803 41.8082 115.985C41.7929 116.246 41.7789 116.484 41.7792 116.642L41.7889 125.697L41.7876 166.633C41.6607 166.641 41.5312 166.65 41.3993 166.659C40.9731 166.689 40.5243 166.721 40.0748 166.732C39.4805 166.748 38.9004 166.727 38.3973 166.623L38.4157 114.034C38.8252 113.99 39.4485 113.931 40.0565 113.92C40.3998 113.913 40.7341 113.923 41.0194 113.958C41.2911 113.991 41.4999 114.046 41.6314 114.119C41.6514 114.146 41.673 114.174 41.6917 114.198C41.7027 114.212 41.7127 114.225 41.7206 114.236C41.7533 114.279 41.7739 114.312 41.7856 114.344Z"
            fill="#D5D1D5" stroke="#050505" />
        <path id="section_79"
            d="M67.5086 140.785L67.4747 114.108L70.9798 114.121L70.9971 166.561L67.5702 166.558L67.5086 140.785Z"
            fill="#EEC13F" stroke="#050505" />
        <path id="section_22"
            d="M288.183 116.899L295.076 116.914C295.013 117.124 294.961 117.346 294.948 117.574C294.799 120.146 294.851 122.78 294.902 125.393C294.929 126.771 294.956 128.143 294.954 129.497V129.497L294.947 147.365V147.365L294.958 151.766V151.767C294.959 151.949 294.954 152.14 294.949 152.337L294.948 152.392C294.943 152.607 294.938 152.829 294.941 153.051C294.946 153.417 294.971 153.789 295.051 154.14L288.195 154.139L288.183 116.899Z"
            fill="#577BF4" stroke="#050505" />
        <g id="section_61">
            <path
                d="M134.233 105.091V105.088L134.221 66.5018L127.765 66.4921C127.734 66.565 127.72 66.626 127.714 66.6872C127.705 66.7672 127.709 66.8487 127.715 66.9676C127.716 66.9862 127.717 67.0056 127.717 67.0262L127.718 67.0299V67.0335L127.714 105.508L132.649 105.523L134.233 105.091ZM134.233 105.091V105.093ZM134.233 105.091V105.093ZM134.233 105.093L134.243 105.461ZM134.233 105.093L134.243 105.461ZM134.243 105.461C134.059 105.528 133.819 105.551 133.551 105.552C133.395 105.552 133.238 105.545 133.084 105.538L133.049 105.537C132.909 105.53 132.772 105.524 132.649 105.523L134.243 105.461Z"
                fill="#D99027" />
            <path
                d="M134.233 105.091V105.088L134.221 66.5018L127.765 66.4921C127.734 66.565 127.72 66.626 127.714 66.6872C127.705 66.7672 127.709 66.8487 127.715 66.9676C127.716 66.9862 127.717 67.0056 127.717 67.0262L127.718 67.0299V67.0335L127.714 105.508L132.649 105.523M134.233 105.091L132.649 105.523M134.233 105.091V105.093L134.243 105.461M132.649 105.523C132.772 105.524 132.909 105.53 133.049 105.537L133.084 105.538C133.238 105.545 133.395 105.552 133.551 105.552C133.819 105.551 134.059 105.528 134.243 105.461M132.649 105.523L134.243 105.461"
                stroke="#050505" />
        </g>
        <path id="section_55" d="M154.321 66.4934L160.97 66.4904V105.504L154.334 105.494L154.321 66.4934Z"
            fill="#D99027" stroke="#050505" />
        <path id="section_32"
            d="M243.474 105.432L243.463 66.4272L246.839 66.4475H246.841L250.076 66.4338L250.194 66.6253L250.222 105.439L246.848 105.436L243.474 105.432Z"
            fill="#D99027" stroke="#050505" />
        <path id="section_31"
            d="M250.131 66.7728L250.13 66.7801V66.7875L250.069 79.6578L247.012 79.5426L246.956 66.5124L250.025 66.4995L250.139 66.6836L250.131 66.7728Z"
            fill="#F33517" stroke="#050505" />
        <path id="section_82"
            d="M50.1243 92.2319L50.1163 66.4898L56.8878 66.5071V105.541L50.2432 105.581C50.1869 105.516 50.1639 105.468 50.151 105.421C50.1336 105.359 50.131 105.29 50.126 105.163C50.1257 105.151 50.1253 105.139 50.1247 105.126L50.1243 92.2319Z"
            fill="#FEFE7E" stroke="#050505" />
        <path id="section_35" d="M228.334 66.4995L235.164 66.4815L235.19 105.503L228.385 105.492L228.334 66.4995Z"
            fill="#D99027" stroke="#050505" />
        <path id="Vector 11" d="M231.742 66.5927V105.882" stroke="#050505" />
        <path id="section_56"
            d="M154.249 134.027V134.026L154.208 114.084L160.977 114.03L160.985 153.306L157.529 153.255H157.527L154.205 153.24L154.249 134.027Z"
            fill="#9B867E" stroke="#050505" />
        <path id="section_57"
            d="M157.344 114.251L157.363 133.599C157.126 133.596 156.884 133.589 156.637 133.581C156.396 133.574 156.149 133.566 155.896 133.563C155.405 133.557 154.909 133.569 154.442 133.639L154.422 114.265L157.344 114.251Z"
            fill="#A0D1D9" stroke="#050505" />
        <path id="section_60"
            d="M146.91 105.506L140.083 105.512L140.089 75.3603V75.3599L140.074 68.6134C140.074 68.4513 140.064 68.2605 140.053 68.0614C140.052 68.0491 140.052 68.0364 140.051 68.0238C140.041 67.8343 140.03 67.6369 140.025 67.4411C140.016 67.0725 140.03 66.7342 140.096 66.4878L146.914 66.5121L146.91 105.506Z"
            fill="#D99027" stroke="#050505" />
        <path id="section_40" d="M213.325 66.4998L220.182 66.5011L220.18 105.508L213.34 105.492L213.325 66.4998Z"
            fill="#D99027" stroke="#050505" />
        <path id="section_45"
            d="M198.355 154.205L198.286 115.038L201.813 115.05H201.822L201.83 115.049L202.036 115.028L205.247 115.052L205.258 154.251C204.614 154.254 203.96 154.269 203.302 154.284C201.637 154.322 199.95 154.36 198.355 154.205Z"
            fill="#A0D1D9" stroke="#050505" />
        <path id="Vector 21" d="M201.776 115.205V154.395" stroke="#050505" />
        <path id="section_10" d="M113.526 48.5171L113.514 15.9688L122.605 15.9675L122.602 48.5217L113.526 48.5171Z"
            fill="#802423" stroke="#050505" />
        <path id="section_9"
            d="M109.584 15.969L109.581 48.5277L104.852 48.5147H104.851L100.486 48.5271L100.489 15.9692L104.824 15.9663L109.584 15.969Z"
            fill="#802423" stroke="#050505" />
        <path id="section_16" d="M167.287 15.8344H176.323L176.34 48.6556L167.281 48.6539L167.287 15.8344Z"
            fill="#ECBEBB" stroke="#050505" />
        <path id="section_12" d="M130.356 15.9822H135.014V48.4412L130.468 48.4458L130.356 15.9822Z" fill="#ECBEBB"
            stroke="#050505" />
        <path id="section_15" d="M153.024 15.8701L162.293 15.8287L162.287 48.6619L153.024 48.6553V15.8701Z"
            fill="#ECBEBB" stroke="#050505" />
        <path id="section_14"
            d="M144.546 48.6973L144.509 48.6756L144.465 48.6753L142.023 48.658L142.029 24.0982L142.028 17.2825C142.028 16.9508 142.023 16.6116 142.019 16.2697C142.006 15.381 141.994 14.4743 142.064 13.6353C142.069 13.633 142.075 13.6306 142.081 13.6281C142.121 13.6124 142.175 13.5968 142.245 13.5822C142.385 13.5529 142.572 13.5309 142.793 13.5153C143.236 13.4843 143.802 13.4803 144.384 13.4892C144.966 13.4981 145.56 13.5198 146.059 13.5395C146.148 13.543 146.234 13.5465 146.316 13.5498C146.591 13.5608 146.827 13.5703 146.998 13.5749L147.003 48.7755L145.387 48.7665L145.385 48.933L145.386 48.7665C145.314 48.7658 145.237 48.7692 145.165 48.7728L145.15 48.7735C145.071 48.7772 144.996 48.7802 144.922 48.7788C144.773 48.7762 144.648 48.7555 144.546 48.6973Z"
            fill="#ECBEBB" stroke="#050505" />
        <path id="section_13"
            d="M137.815 13.6263L142.247 13.6303L142.213 40.6801C142.213 40.9651 142.202 41.4759 142.189 42.1065C142.172 42.879 142.152 43.8316 142.144 44.7682C142.136 45.6146 142.138 46.4444 142.162 47.1046C142.173 47.4346 142.191 47.725 142.215 47.955C142.239 48.1758 142.271 48.3662 142.324 48.4781L142.326 48.4808L142.327 48.4834L142.332 48.4931L142.228 48.5454L137.752 48.5274L137.761 24.0018L137.76 17.1954C137.76 16.8599 137.752 16.5184 137.743 16.1755C137.721 15.3124 137.699 14.4395 137.815 13.6263Z"
            fill="#802423" stroke="#050505" />
        <g id="section_11">
            <path
                d="M125.728 15.9822H130.178V41.1786C130.178 41.7646 130.202 43.5539 130.226 45.1951C130.238 46.0162 130.249 46.8007 130.258 47.3797C130.263 47.6694 130.266 47.9078 130.269 48.0736L130.272 48.2654L130.273 48.3156L130.273 48.3286V48.332V48.3326V48.333C130.273 48.333 130.273 48.333 130.439 48.3303L130.273 48.333L130.274 48.3749L130.289 48.4026L130.196 48.4462L125.72 48.4295L125.729 25.7403L125.728 19.4401C125.728 19.4401 125.728 19.4401 125.728 19.4401C125.728 18.8815 125.728 17.9753 125.728 17.2089V16.2249V15.9822Z"
                fill="#802423" />
            <path
                d="M130.273 48.333V48.3326V48.332V48.3286L130.273 48.3156L130.272 48.2654L130.269 48.0736C130.266 47.9078 130.263 47.6694 130.258 47.3797C130.249 46.8007 130.238 46.0162 130.226 45.1951C130.202 43.5539 130.178 41.7646 130.178 41.1786V15.9822H125.728V16.2249V17.2089C125.728 17.9753 125.728 18.8815 125.728 19.4401M130.273 48.333C130.273 48.333 130.273 48.333 130.439 48.3303L130.273 48.333ZM130.273 48.333L130.274 48.3749L130.289 48.4026L130.196 48.4462L125.72 48.4295L125.729 25.7403L125.728 19.4401M125.728 19.4401C125.728 19.4401 125.728 19.4401 125.728 19.4401Z"
                stroke="#050505" />
        </g>
        <path id="section_19"
            d="M239.53 42.3077L295.015 42.2847L294.976 48.4825L239.507 48.4352L239.435 42.7941C239.439 42.6633 239.446 42.5737 239.465 42.4908C239.478 42.4329 239.498 42.3753 239.53 42.3077Z"
            fill="#CE3729" stroke="#050505" />
        <path id="section_70"
            d="M97.822 166.512H97.8213L94.2733 166.504L94.3096 114.15L100.896 114.157L101 114.348L101.008 166.506L97.822 166.512Z"
            fill="#CE3729" stroke="#050505" />
        <path id="section_69"
            d="M99.4978 114.223C100.09 114.214 100.635 114.255 101 114.411L101.008 166.506L97.9878 166.512L97.8969 114.298C98.0787 114.292 98.2805 114.28 98.4912 114.267C98.5132 114.266 98.5352 114.265 98.5571 114.263C98.8601 114.245 99.1811 114.227 99.4978 114.223Z"
            fill="#F33517" stroke="#050505" />
        <path id="section_75"
            d="M82.6042 114.134H82.6059L85.9968 114.117L85.9821 140.287L85.9655 158.819L85.9652 163.947C85.9652 164.188 85.9725 164.443 85.9801 164.698C85.9858 164.891 85.9915 165.085 85.9938 165.271C85.9988 165.681 85.9891 166.08 85.9349 166.456C85.6688 166.543 85.3342 166.57 84.9756 166.571C84.7778 166.572 84.578 166.565 84.3832 166.557L84.3536 166.556C84.1705 166.55 83.9907 166.543 83.8275 166.543L79.233 166.556L79.252 114.123L82.6042 114.134Z"
            fill="#EEC13F" stroke="#050505" />
        <path id="section_74"
            d="M82.7907 140.504L85.9818 140.456L85.9655 158.818V158.819L85.9189 166.413L82.8553 166.432L82.7907 140.504Z"
            fill="#802423" stroke="#050505" />
        <path id="section_73" d="M82.7903 140.171L82.7714 114.133L85.9968 114.117L85.9821 140.123L82.7903 140.171Z"
            fill="#3966B6" stroke="#050505" />
        <path id="section_62" d="M132.664 114.117L132.668 166.509L125.867 166.53L125.882 114.119L132.664 114.117Z"
            fill="#577BF4" stroke="#050505" />
        <path id="section_58" d="M154.336 133.686L157.324 133.685L157.325 153.322L154.329 153.329L154.336 133.686Z"
            fill="#577BF4" stroke="#050505" />
        <path id="section_59"
            d="M145.441 114.114C145.551 114.113 145.683 114.106 145.82 114.099C145.826 114.099 145.831 114.099 145.836 114.098C145.981 114.091 146.133 114.083 146.282 114.081C146.431 114.079 146.574 114.084 146.7 114.1C146.781 114.111 146.851 114.126 146.909 114.145L146.924 154.284L146.921 162.82C146.921 163.071 146.936 163.38 146.952 163.71L146.953 163.717C146.969 164.051 146.986 164.409 146.991 164.763C146.996 165.117 146.989 165.463 146.956 165.772C146.927 166.042 146.88 166.276 146.81 166.461C146.005 166.569 145.169 166.556 144.333 166.544C144.059 166.539 143.784 166.535 143.512 166.535L143.184 166.507L143.176 166.506H143.168L140.083 166.537L140.106 114.23L140.253 114.12L145.441 114.114Z"
            fill="#577BF4" stroke="#050505" />
        <g id="Vector_13_2">
            <path id="Vector_15"
                d="M139.94 114.146L140.198 113.953L145.44 113.947C145.879 113.946 146.695 113.832 147.075 114.034L147.09 154.284L147.088 162.82C147.087 163.814 147.329 165.736 146.926 166.613L146.913 166.458L146.877 114.159L143.432 114.193C143.305 115.608 143.425 117.119 143.436 118.542L143.459 126.731L143.449 153.886L143.432 163.374C143.43 164.253 143.19 165.945 143.504 166.702L143.17 166.673C143.298 165.563 143.228 164.394 143.228 163.274L143.127 155.359L143.225 127.787C143.237 123.289 142.999 118.678 143.289 114.195L139.94 114.146Z"
                fill="#3966B6" />
            <g id="Mask group_4">
                <mask id="mask3_22_166" style="mask-type:luminance" maskUnits="userSpaceOnUse" x="139" y="113" width="9"
                    height="54">
                    <g id="Group_4">
                        <path id="Vector_16"
                            d="M139.94 114.146L140.198 113.953L145.44 113.947C145.879 113.946 146.695 113.832 147.075 114.034L147.09 154.284L147.088 162.82C147.087 163.814 147.329 165.736 146.926 166.613L146.913 166.458L146.877 114.159L143.432 114.193C143.305 115.608 143.425 117.119 143.436 118.542L143.459 126.731L143.449 153.886L143.432 163.374C143.43 164.253 143.19 165.945 143.504 166.702L143.17 166.673C143.298 165.563 143.228 164.394 143.228 163.274L143.127 155.359L143.225 127.787C143.237 123.289 142.999 118.678 143.289 114.195L139.94 114.146Z"
                            fill="#D5D1D5" />
                    </g>
                </mask>
                <g mask="url(#mask3_22_166)">
                    <path id="Vector_17"
                        d="M139.94 114.146L139.74 113.879L138.957 114.465L139.935 114.479L139.94 114.146ZM140.198 113.953L140.197 113.62H140.087L139.998 113.687L140.198 113.953ZM147.075 114.034H147.408V113.835L147.232 113.741L147.075 114.034ZM146.926 166.613L146.594 166.641L146.7 167.902L147.229 166.752L146.926 166.613ZM146.913 166.458L146.58 166.458V166.472L146.581 166.486L146.913 166.458ZM146.877 114.159L147.21 114.159L147.209 113.823L146.873 113.826L146.877 114.159ZM143.432 114.193L143.429 113.86L143.127 113.863L143.1 114.163L143.432 114.193ZM143.436 118.542L143.769 118.541V118.539L143.436 118.542ZM143.459 126.731H143.792V126.73L143.459 126.731ZM143.449 153.886L143.782 153.886V153.886H143.449ZM143.432 163.374L143.765 163.375V163.374L143.432 163.374ZM143.504 166.702L143.476 167.033L144.022 167.081L143.812 166.574L143.504 166.702ZM143.17 166.673L142.839 166.635L142.8 166.975L143.141 167.004L143.17 166.673ZM143.228 163.274H143.561V163.269L143.228 163.274ZM143.127 155.359L142.794 155.358V155.361V155.363L143.127 155.359ZM143.225 127.787L143.558 127.788V127.788L143.225 127.787ZM143.289 114.195L143.621 114.217L143.644 113.868L143.294 113.863L143.289 114.195ZM140.139 114.413L140.397 114.22L139.998 113.687L139.74 113.879L140.139 114.413ZM140.198 114.286L145.441 114.28L145.44 113.614L140.197 113.62L140.198 114.286ZM145.441 114.28C145.561 114.28 145.704 114.272 145.845 114.264C145.99 114.257 146.138 114.249 146.283 114.247C146.429 114.246 146.563 114.25 146.678 114.265C146.797 114.281 146.874 114.304 146.918 114.328L147.232 113.741C147.086 113.663 146.919 113.625 146.764 113.605C146.605 113.584 146.437 113.579 146.276 113.581C146.115 113.583 145.953 113.592 145.81 113.599C145.662 113.607 145.539 113.614 145.44 113.614L145.441 114.28ZM146.742 114.034L146.757 154.284H147.423L147.408 114.034H146.742ZM146.757 154.284L146.755 162.82H147.421L147.423 154.284H146.757ZM146.755 162.82C146.755 163.078 146.77 163.394 146.786 163.725C146.803 164.06 146.82 164.415 146.825 164.765C146.83 165.116 146.823 165.455 146.791 165.755C146.758 166.059 146.703 166.302 146.624 166.474L147.229 166.752C147.352 166.485 147.417 166.159 147.452 165.825C147.488 165.488 147.496 165.119 147.491 164.756C147.486 164.392 147.468 164.025 147.451 163.692C147.435 163.356 147.421 163.059 147.421 162.82H146.755ZM147.258 166.585L147.245 166.43L146.581 166.486L146.594 166.641L147.258 166.585ZM147.246 166.458L147.21 114.159L146.544 114.16L146.58 166.458L147.246 166.458ZM146.873 113.826L143.429 113.86L143.435 114.526L146.88 114.492L146.873 113.826ZM143.1 114.163C142.972 115.599 143.092 117.155 143.103 118.545L143.769 118.539C143.758 117.082 143.639 115.617 143.764 114.222L143.1 114.163ZM143.103 118.543L143.126 126.732L143.792 126.73L143.769 118.541L143.103 118.543ZM143.126 126.731L143.116 153.886H143.782L143.792 126.731H143.126ZM143.116 153.885L143.099 163.373L143.765 163.374L143.782 153.886L143.116 153.885ZM143.099 163.373C143.099 163.581 143.084 163.842 143.066 164.138C143.048 164.43 143.027 164.753 143.017 165.073C143.006 165.392 143.005 165.716 143.028 166.012C143.051 166.304 143.098 166.593 143.197 166.829L143.812 166.574C143.753 166.433 143.713 166.226 143.692 165.961C143.672 165.7 143.672 165.403 143.682 165.095C143.693 164.787 143.713 164.475 143.731 164.179C143.749 163.887 143.765 163.606 143.765 163.375L143.099 163.373ZM143.533 166.37L143.199 166.341L143.141 167.004L143.476 167.033L143.533 166.37ZM143.501 166.711C143.632 165.576 143.561 164.366 143.561 163.274H142.895C142.895 164.422 142.964 165.55 142.839 166.635L143.501 166.711ZM143.561 163.269L143.46 155.355L142.794 155.363L142.895 163.278L143.561 163.269ZM143.46 155.36L143.558 127.788L142.892 127.785L142.794 155.358L143.46 155.36ZM143.558 127.788C143.57 123.264 143.332 118.687 143.621 114.217L142.956 114.174C142.666 118.669 142.904 123.313 142.892 127.785L143.558 127.788ZM143.294 113.863L139.945 113.813L139.935 114.479L143.284 114.528L143.294 113.863Z"
                        fill="#050505" />
                </g>
            </g>
        </g>
        <path id="Vector_14_2"
            d="M142.96 155.358V155.361L143.062 163.274V163.275C143.062 163.573 143.066 163.873 143.071 164.172C143.084 164.959 143.096 165.745 143.02 166.508L140.083 166.537L140.106 114.315L143.112 114.359C142.928 117.354 142.973 120.408 143.019 123.438C143.04 124.896 143.062 126.348 143.058 127.786L142.96 155.358Z"
            fill="#577BF4" stroke="#050505" />
        <path id="section_3" d="M5.53679 166.796L5.50592 66.4625L11.1339 66.4758L11.1276 166.796H5.53679Z"
            fill="#C7DB52" stroke="#050505" />
        <g id="Vector_15_2">
            <path id="Vector_18"
                d="M4.82732 52.191L4.82066 216.432C5.98969 216.436 12.0423 216.217 12.6227 216.632L12.585 217.071C11.7756 217.291 10.6702 217.166 9.81944 217.168L4.0948 217.173L4.09247 44.705L87.657 44.5425L87.6546 3.67587L188.786 3.67224C188.785 7.60341 188.541 40.3512 188.865 41.0384L264.742 41.0391H286.301L292.235 41.0414C293.389 41.0421 294.62 40.9542 295.76 41.128C296.102 41.5082 296.27 41.6607 296.312 42.1981C296.445 43.8929 296.324 45.6989 296.324 47.4026L296.321 58.2096L296.32 92.0304L296.304 192.621C295.998 191.848 296.121 190.892 296.119 190.066L296.113 185.377L296.11 169.823L296.122 113.207L296.105 62.6377C296.031 62.7439 295.832 62.965 295.802 63.0772C295.716 63.4012 295.803 64.0641 295.803 64.4214L295.804 67.6585L295.808 80.8179C295.808 83.0863 295.969 85.4907 295.747 87.7445L295.655 87.7561L295.561 57.3306C295.561 55.7404 295.86 42.6799 295.495 42.1571L295.182 42.1182L239.429 42.1412C239.297 42.3766 239.277 42.5237 239.268 42.7921L239.343 48.6016L238.761 48.6839L202.212 48.6573L192.384 48.6603C191.003 48.6609 189.257 48.4671 187.926 48.7392C185.662 49.0318 183.131 48.8204 180.836 48.8197V11.3405L141.306 11.3139L94.7987 11.2835L94.795 40.7374L94.7944 48.6426C94.7937 49.7907 94.9392 51.1851 94.7537 52.3065C93.928 52.5596 92.7909 52.4294 91.9226 52.4287L86.2941 52.4237L75.4162 52.2446C73.1917 52.2423 70.7547 52.2446 68.5935 52.2446L50.0737 52.1644L31.0921 52.1783L4.82732 52.191Z"
                fill="#1B1A1B" />
            <g id="Mask group_5">
                <mask id="mask4_22_166" style="mask-type:luminance" maskUnits="userSpaceOnUse" x="4" y="3" width="293"
                    height="215">
                    <g id="Group_5">
                        <path id="Vector_19"
                            d="M4.82732 52.191L4.82066 216.432C5.98969 216.436 12.0423 216.217 12.6227 216.632L12.585 217.071C11.7756 217.291 10.6702 217.166 9.81944 217.168L4.0948 217.173L4.09247 44.705L87.657 44.5425L87.6546 3.67587L188.786 3.67224C188.785 7.60341 188.541 40.3512 188.865 41.0384L264.742 41.0391H286.301L292.235 41.0414C293.389 41.0421 294.62 40.9542 295.76 41.128C296.102 41.5082 296.27 41.6607 296.312 42.1981C296.445 43.8929 296.324 45.6989 296.324 47.4026L296.321 58.2096L296.32 92.0304L296.304 192.621C295.998 191.848 296.121 190.892 296.119 190.066L296.113 185.377L296.11 169.823L296.122 113.207L296.105 62.6377C296.031 62.7439 295.832 62.965 295.802 63.0772C295.716 63.4012 295.803 64.0641 295.803 64.4214L295.804 67.6585L295.808 80.8179C295.808 83.0863 295.969 85.4907 295.747 87.7445L295.655 87.7561L295.561 57.3306C295.561 55.7404 295.86 42.6799 295.495 42.1571L295.182 42.1182L239.429 42.1412C239.297 42.3766 239.277 42.5237 239.268 42.7921L239.343 48.6016L238.761 48.6839L202.212 48.6573L192.384 48.6603C191.003 48.6609 189.257 48.4671 187.926 48.7392C185.662 49.0318 183.131 48.8204 180.836 48.8197V11.3405L141.306 11.3139L94.7987 11.2835L94.795 40.7374L94.7944 48.6426C94.7937 49.7907 94.9392 51.1851 94.7537 52.3065C93.928 52.5596 92.7909 52.4294 91.9226 52.4287L86.2941 52.4237L75.4162 52.2446C73.1917 52.2423 70.7547 52.2446 68.5935 52.2446L50.0737 52.1644L31.0921 52.1783L4.82732 52.191Z"
                            fill="#D5D1D5" />
                    </g>
                </mask>
                <g mask="url(#mask4_22_166)">
                    <path id="section_wall"
                        d="M4.82733 52.191L4.82717 51.858H4.49437V52.191H4.82733ZM4.82068 216.432H4.48771V216.763L4.81954 216.764L4.82068 216.432ZM12.6227 216.632L12.9544 216.66L12.9706 216.471L12.8161 216.361L12.6227 216.632ZM12.585 217.071L12.6722 217.392L12.8969 217.332L12.9168 217.099L12.585 217.071ZM9.81945 217.168L9.81975 217.501H9.82022L9.81945 217.168ZM4.09482 217.173H3.76185V217.507L4.09512 217.506L4.09482 217.173ZM4.09248 44.705L4.09185 44.372L3.75952 44.3727V44.705H4.09248ZM87.657 44.5425L87.6576 44.8755L87.9899 44.8748V44.5425H87.657ZM87.6546 3.67589V3.34292H87.3217V3.67589H87.6546ZM188.786 3.67226L189.119 3.67236V3.33929H188.786V3.67226ZM188.865 41.0384L188.564 41.1802L188.654 41.3714H188.865V41.0384ZM295.76 41.128L296.007 40.9052L295.928 40.8167L295.81 40.7987L295.76 41.128ZM296.304 192.621L295.995 192.744L296.637 192.621H296.304ZM296.105 62.6377H296.438L296.437 61.5673L295.83 62.4489L296.105 62.6377ZM295.747 87.7445L295.789 88.0748L296.052 88.0415L296.078 87.7771L295.747 87.7445ZM295.655 87.7562L295.322 87.7572L295.323 88.1337L295.696 88.0865L295.655 87.7562ZM295.561 57.3306H295.228V57.3316L295.561 57.3306ZM295.495 42.1572L295.768 41.9664L295.683 41.8452L295.536 41.8269L295.495 42.1572ZM295.182 42.1182L295.223 41.7879L295.203 41.7852H295.182V42.1182ZM239.429 42.1412V41.8082H239.233L239.138 41.9787L239.429 42.1412ZM239.268 42.7921L238.936 42.7805L238.935 42.7885V42.7965L239.268 42.7921ZM239.343 48.6017L239.389 48.9313L239.679 48.8903L239.676 48.5973L239.343 48.6017ZM238.761 48.6839L238.761 49.0169H238.784L238.808 49.0135L238.761 48.6839ZM202.212 48.6573L202.213 48.3243H202.212V48.6573ZM187.926 48.7392L187.969 49.0695L187.98 49.0678L187.992 49.0655L187.926 48.7392ZM180.836 48.8198H180.503V49.1527H180.836V48.8198ZM180.836 11.3405H181.169V11.0077L180.837 11.0075L180.836 11.3405ZM94.7987 11.2835L94.799 10.9505L94.4657 10.9503V11.2834L94.7987 11.2835ZM94.7944 48.6426L95.1273 48.643V48.6426H94.7944ZM94.7538 52.3065L94.8513 52.6249L95.0488 52.5646L95.0824 52.3608L94.7538 52.3065ZM86.2942 52.4238L86.2888 52.7567H86.2912H86.2938L86.2942 52.4238ZM75.4162 52.2446L75.4216 51.9117H75.4192H75.4166L75.4162 52.2446ZM68.5935 52.2446L68.5922 52.5776H68.5935V52.2446ZM50.0737 52.1644L50.0751 51.8314H50.0734L50.0737 52.1644ZM4.49437 52.191L4.48771 216.432H5.15364L5.1603 52.191H4.49437ZM4.81954 216.764C5.11655 216.765 5.72038 216.753 6.45732 216.739C7.19787 216.726 8.07989 216.712 8.94286 216.711C9.807 216.71 10.6468 216.721 11.3043 216.758C11.6337 216.777 11.9106 216.802 12.1191 216.833C12.2235 216.849 12.3046 216.866 12.3635 216.882C12.4297 216.9 12.4415 216.911 12.4292 216.903L12.8161 216.361C12.7313 216.3 12.6278 216.264 12.541 216.24C12.4469 216.214 12.3373 216.193 12.2184 216.175C11.9802 216.139 11.6799 216.113 11.342 216.094C10.6649 216.055 9.8097 216.044 8.942 216.045C8.07316 216.046 7.18658 216.06 6.44527 216.073C5.70046 216.087 5.10932 216.1 4.82181 216.099L4.81954 216.764ZM12.2909 216.603L12.2533 217.043L12.9168 217.099L12.9544 216.66L12.2909 216.603ZM12.4979 216.75C12.1388 216.847 11.6977 216.872 11.2201 216.868C10.9835 216.866 10.745 216.858 10.5079 216.85C10.2729 216.842 10.0383 216.835 9.81869 216.835L9.82022 217.501C10.0259 217.501 10.2486 217.508 10.4854 217.516C10.7202 217.524 10.9681 217.532 11.2153 217.534C11.7056 217.538 12.2218 217.515 12.6722 217.392L12.4979 216.75ZM9.81916 216.835L4.09452 216.84L4.09512 217.506L9.81975 217.501L9.81916 216.835ZM4.42778 217.173L4.42545 44.705H3.75952L3.76185 217.173H4.42778ZM4.09315 45.038L87.6576 44.8755L87.6563 44.2096L4.09185 44.372L4.09315 45.038ZM87.9899 44.5425L87.9876 3.67585L87.3217 3.67589L87.324 44.5425H87.9899ZM87.6546 4.00885L188.786 4.00522V3.33929L87.6546 3.34292V4.00885ZM188.453 3.67216C188.453 5.63874 188.391 14.8026 188.371 23.571C188.36 27.9533 188.36 32.2354 188.383 35.4653C188.394 37.0798 188.411 38.4333 188.436 39.4052C188.448 39.8907 188.462 40.2839 188.478 40.5679C188.486 40.7094 188.495 40.8276 188.505 40.9182C188.51 40.9635 188.516 41.0058 188.523 41.0427C188.528 41.0707 188.539 41.127 188.564 41.1802L189.166 40.8966C189.181 40.9282 189.182 40.9475 189.178 40.9229C189.175 40.9079 189.171 40.8826 189.167 40.8456C189.159 40.7717 189.151 40.6665 189.143 40.5296C189.127 40.2563 189.113 39.8717 189.101 39.3882C189.077 38.4226 189.06 37.0741 189.049 35.4606C189.026 32.234 189.026 27.9545 189.037 23.5726C189.057 14.8126 189.119 5.63691 189.119 3.67236L188.453 3.67216ZM188.865 41.3714L264.742 41.372V40.7061L188.865 40.7054V41.3714ZM264.742 41.372H286.301L286.301 40.7061H264.742V41.372ZM286.301 41.372L292.235 41.3744L292.236 40.7084L286.301 40.7061L286.301 41.372ZM292.235 41.3744C293.423 41.375 294.603 41.2885 295.71 41.4573L295.81 40.7987C294.637 40.6199 293.355 40.7091 292.236 40.7084L292.235 41.3744ZM295.512 41.3507C295.697 41.5558 295.793 41.6571 295.862 41.7733C295.92 41.8715 295.963 41.9913 295.98 42.2241L296.644 42.1721C296.621 41.8675 296.558 41.6424 296.436 41.435C296.324 41.2455 296.165 41.0804 296.007 40.9052L295.512 41.3507ZM295.98 42.2241C296.112 43.9029 295.991 45.6663 295.991 47.4027H296.657C296.657 45.7315 296.778 43.8829 296.644 42.1721L295.98 42.2241ZM295.991 47.4027L295.988 58.2097H296.654L296.657 47.4027H295.991ZM295.988 58.2097L295.987 92.0304H296.653L296.654 58.2097H295.988ZM295.987 92.0304L295.972 192.621H296.637L296.653 92.0304H295.987ZM296.614 192.498C296.483 192.167 296.438 191.782 296.43 191.357C296.427 191.147 296.432 190.933 296.439 190.715C296.445 190.5 296.453 190.279 296.452 190.065L295.786 190.066C295.787 190.266 295.779 190.475 295.773 190.695C295.766 190.913 295.76 191.141 295.765 191.369C295.773 191.823 295.82 192.302 295.995 192.744L296.614 192.498ZM296.452 190.065L296.446 185.377L295.78 185.377L295.786 190.066L296.452 190.065ZM296.446 185.377L296.443 169.823H295.777L295.78 185.377L296.446 185.377ZM296.443 169.823L296.455 113.207H295.789L295.777 169.823H296.443ZM296.455 113.207L296.438 62.6377H295.772L295.789 113.207H296.455ZM295.83 62.4489C295.798 62.4959 295.752 62.5488 295.672 62.6537C295.639 62.698 295.602 62.7483 295.57 62.7986C295.542 62.8428 295.502 62.9128 295.481 62.9913L296.124 63.1632C296.118 63.1858 296.113 63.1858 296.134 63.1535C296.15 63.1275 296.173 63.0949 296.203 63.0566C296.232 63.0183 296.262 62.9807 296.292 62.9414C296.321 62.9051 296.354 62.8632 296.379 62.8265L295.83 62.4489ZM295.481 62.9913C295.422 63.2104 295.427 63.5074 295.437 63.7515C295.449 64.0269 295.47 64.2503 295.47 64.4214H296.136C296.136 64.2353 296.113 63.9486 296.103 63.7222C296.092 63.4645 296.096 63.268 296.124 63.1632L295.481 62.9913ZM295.47 64.4214L295.471 67.6585H296.137L296.136 64.4214H295.47ZM295.471 67.6585L295.475 80.8179H296.141L296.137 67.6585H295.471ZM295.475 80.8179C295.475 83.1183 295.636 85.4794 295.416 87.7119L296.078 87.7771C296.302 85.502 296.141 83.0544 296.141 80.8179H295.475ZM295.705 87.4142L295.613 87.4259L295.696 88.0865L295.789 88.0748L295.705 87.4142ZM295.988 87.7552L295.894 57.3296L295.228 57.3316L295.322 87.7572L295.988 87.7552ZM295.894 57.3306C295.894 56.5345 295.969 52.8866 295.998 49.3465C296.013 47.5811 296.016 45.8464 295.992 44.5192C295.981 43.8559 295.963 43.2906 295.935 42.8724C295.922 42.6639 295.905 42.4861 295.886 42.349C295.876 42.2807 295.864 42.2164 295.85 42.1605C295.839 42.1155 295.817 42.036 295.768 41.9664L295.222 42.348C295.196 42.311 295.196 42.2887 295.205 42.324C295.211 42.348 295.218 42.3869 295.226 42.4435C295.243 42.5557 295.257 42.7139 295.271 42.9157C295.297 43.3179 295.315 43.8709 295.327 44.5309C295.35 45.8491 295.347 47.5768 295.332 49.3408C295.303 52.8593 295.228 56.5365 295.228 57.3306H295.894ZM295.536 41.8269L295.223 41.7879L295.141 42.4485L295.454 42.4875L295.536 41.8269ZM295.182 41.7852L239.429 41.8082V42.4741L295.182 42.4512L295.182 41.7852ZM239.138 41.9787C239.06 42.1179 239.009 42.2437 238.978 42.3809C238.948 42.5131 238.94 42.6436 238.936 42.7805L239.601 42.8038C239.605 42.6723 239.612 42.595 239.627 42.5278C239.641 42.4655 239.666 42.3999 239.719 42.3037L239.138 41.9787ZM238.935 42.7965L239.01 48.606L239.676 48.5973L239.601 42.7878L238.935 42.7965ZM239.296 48.272L238.714 48.3543L238.808 49.0135L239.389 48.9313L239.296 48.272ZM238.761 48.3509L202.213 48.3243L202.212 48.9902L238.761 49.0169L238.761 48.3509ZM202.212 48.3243L192.384 48.3273V48.9932L202.212 48.9902L202.212 48.3243ZM192.384 48.3273C191.69 48.3276 190.946 48.28 190.142 48.265C189.362 48.2507 188.562 48.2694 187.859 48.4129L187.992 49.0655C188.62 48.937 189.359 48.9166 190.13 48.931C190.878 48.9446 191.697 48.9936 192.384 48.9932V48.3273ZM187.883 48.4089C185.647 48.6979 183.172 48.4875 180.836 48.4868V49.1527C183.089 49.1534 185.677 49.3658 187.969 49.0695L187.883 48.4089ZM181.169 48.8198V11.3405H180.503V48.8198H181.169ZM180.837 11.0075L141.306 10.9809L141.305 11.6469L180.836 11.6734L180.837 11.0075ZM141.306 10.9809L94.799 10.9505L94.7984 11.6164L141.305 11.6469L141.306 10.9809ZM94.4657 11.2834L94.4621 40.7374H95.128L95.1317 11.2835L94.4657 11.2834ZM94.4621 40.7374L94.4614 48.6426H95.1273L95.128 40.7374H94.4621ZM94.4614 48.6426C94.4611 49.2176 94.4977 49.8799 94.5104 50.4916C94.5233 51.1195 94.5127 51.7232 94.4251 52.2523L95.0824 52.3608C95.1803 51.7685 95.1896 51.1142 95.1763 50.4776C95.1626 49.8246 95.127 49.216 95.1273 48.643L94.4614 48.6426ZM94.6562 51.9882C94.2929 52.0994 93.8431 52.1307 93.3546 52.1297C93.1129 52.1294 92.8688 52.1211 92.6268 52.1128C92.3867 52.1044 92.1466 52.0961 91.9229 52.0958L91.9222 52.7617C92.1327 52.7617 92.3604 52.77 92.6038 52.7784C92.8445 52.7867 93.0993 52.7953 93.3533 52.7957C93.8571 52.7967 94.3888 52.7667 94.8513 52.6249L94.6562 51.9882ZM91.9229 52.0958L86.2945 52.0908L86.2938 52.7567L91.9222 52.7617L91.9229 52.0958ZM86.2995 52.0908L75.4216 51.9117L75.4109 52.5776L86.2888 52.7567L86.2995 52.0908ZM75.4166 51.9117C73.1917 51.9093 70.7544 51.9117 68.5935 51.9117V52.5776C70.7551 52.5776 73.1917 52.5753 75.4159 52.5776L75.4166 51.9117ZM68.5948 51.9117L50.0751 51.8314L50.0724 52.4973L68.5922 52.5776L68.5948 51.9117ZM50.0734 51.8314L31.0919 51.8454L31.0923 52.5113L50.0741 52.4973L50.0734 51.8314ZM31.0919 51.8454L4.82717 51.858L4.8275 52.524L31.0923 52.5113L31.0919 51.8454Z"
                        fill="#050505" />
                </g>
            </g>
        </g>
        <path id="Vector_16_2"
            d="M296.118 42.8384L296.125 48.7848L295.945 48.8647C295.801 48.564 295.815 48.2767 295.804 47.9494L295.815 44.2149C295.816 44.0131 295.75 43.3062 295.824 43.1504C295.885 43.0212 296.02 42.9423 296.118 42.8384Z"
            fill="#080807" />
        <path id="section_6"
            d="M50.2519 45.7505L68.5299 45.7628L68.5342 50.4103C68.5339 50.5412 68.5395 50.687 68.5452 50.8362L68.5459 50.8605C68.5519 51.02 68.5579 51.1838 68.5575 51.3453C68.5569 51.624 68.5372 51.8787 68.4769 52.0775L50.2405 51.9985L50.2519 45.7505Z"
            fill="#802423" stroke="#050505" />
        <path id="section_5"
            d="M37.2166 45.7522L49.9189 45.7505L49.9075 51.9979L31.2592 52.0119L31.2817 45.7625C32.5655 45.6403 33.9353 45.6782 35.2884 45.7159C35.9387 45.7342 36.5853 45.7522 37.2166 45.7522Z"
            fill="#3966B6" stroke="#050505" />
        <path id="section_7"
            d="M68.7696 45.7825L88.3721 45.7948L88.3768 50.4416C88.3765 50.5721 88.3825 50.7187 88.3884 50.8675L88.3895 50.8921C88.3958 51.0513 88.4021 51.2148 88.4018 51.3763C88.4011 51.6559 88.3798 51.9103 88.3149 52.1084L68.7573 52.0292L68.7696 45.7825Z"
            fill="#6B2F9E" stroke="#050505" />
        <path id="section_4"
            d="M5.09426 45.6293L30.9486 45.7775L30.9262 52.0119L4.99254 52.0245C4.98985 51.8114 4.98302 51.5114 4.975 51.1575C4.9723 51.04 4.9695 50.9168 4.96667 50.7889C4.95269 50.1569 4.93787 49.4051 4.93454 48.6669C4.93118 47.9281 4.93934 47.2056 4.97107 46.6315C4.98695 46.3445 5.00856 46.0975 5.03696 45.9057C5.05118 45.8098 5.06669 45.7302 5.08324 45.6679C5.087 45.6536 5.09067 45.641 5.09426 45.6293Z"
            fill="#C7DB52" stroke="#050505" />
        <path id="section_18"
            d="M190.139 48.4315C189.436 48.4185 188.727 48.4329 188.092 48.5391L188.076 44.6281V44.6274C188.075 44.4932 188.075 44.3547 188.076 44.2135C188.079 43.5919 188.081 42.917 187.949 42.296C189.441 42.1305 191.029 42.1675 192.592 42.2041C193.25 42.2194 193.904 42.2344 194.544 42.2344L207.944 42.2357L228.031 42.2301C229.09 42.2297 230.153 42.2174 231.217 42.2051C233.804 42.1751 236.398 42.1452 238.959 42.2843L239.102 42.8151L239.174 48.4572L238.749 48.5174L202.212 48.4908L192.384 48.4938C191.989 48.4941 191.57 48.4785 191.138 48.4622C190.812 48.4502 190.478 48.4378 190.139 48.4315Z"
            fill="#0E064F" stroke="#050505" />
        <g id="section_17">
            <path
                d="M181.003 11.3405V11.1741L180.836 11.174L141.471 11.1475L141.417 4.92908L152.075 4.90494H152.075L173.11 4.89519L179.048 4.90134C179.157 4.90154 179.295 4.89515 179.444 4.88833L179.473 4.88699C179.635 4.8796 179.81 4.87194 179.982 4.87051C180.154 4.86908 180.318 4.87398 180.459 4.89079C180.605 4.90804 180.708 4.93607 180.767 4.9702C180.794 4.98532 180.819 4.98998 180.827 4.99141C180.838 4.99351 180.849 4.99451 180.857 4.99507C180.874 4.99621 180.892 4.99631 180.909 4.99601C180.944 4.99544 180.989 4.99298 181.038 4.98951C181.138 4.98252 181.267 4.9707 181.4 4.95828C181.428 4.95568 181.455 4.95305 181.483 4.95049C181.727 4.92748 181.957 4.90577 182.044 4.90587H182.045L187.455 4.9121L187.469 32.1074L187.472 38.6341C187.472 38.9191 187.464 39.2165 187.457 39.5194C187.435 40.3692 187.412 41.2662 187.56 42.0806L187.561 42.0836L187.581 42.1852L187.582 42.1901L187.583 42.1951C187.748 42.8188 187.745 43.5133 187.743 44.1972C187.742 44.3421 187.742 44.4866 187.743 44.6298C187.743 44.6298 187.743 44.6298 187.743 44.6301L187.759 48.5924C186.21 48.7768 184.546 48.7332 182.91 48.6903C182.267 48.6733 181.629 48.6566 181.003 48.6536V11.3405Z"
                fill="#ECBEBB" />
            <path
                d="M179.048 4.90134L173.11 4.89519L152.075 4.90494H152.075L141.417 4.92908L141.471 11.1475L180.836 11.174L181.003 11.1741V11.3405V48.6536C181.629 48.6566 182.267 48.6733 182.91 48.6903C184.546 48.7332 186.21 48.7768 187.759 48.5924L187.743 44.6301C187.743 44.6298 187.743 44.6298 187.743 44.6298C187.742 44.4866 187.742 44.3421 187.743 44.1972C187.745 43.5133 187.748 42.8188 187.583 42.1951L187.582 42.1901L187.581 42.1852L187.561 42.0836L187.56 42.0806C187.412 41.2662 187.435 40.3692 187.457 39.5194C187.464 39.2165 187.472 38.9191 187.472 38.6341L187.469 32.1074L187.455 4.9121L182.045 4.90587H182.044C181.957 4.90577 181.727 4.92748 181.483 4.95049C181.455 4.95305 181.428 4.95568 181.4 4.95828C181.267 4.9707 181.138 4.98252 181.038 4.98951C180.989 4.99298 180.944 4.99544 180.909 4.99601C180.892 4.99631 180.874 4.99621 180.857 4.99507C180.849 4.99451 180.838 4.99351 180.827 4.99141C180.819 4.98998 180.794 4.98532 180.767 4.9702C180.708 4.93607 180.605 4.90804 180.459 4.89079C180.318 4.87398 180.154 4.86908 179.982 4.87051C179.81 4.87194 179.635 4.8796 179.473 4.88699L179.444 4.88833C179.295 4.89515 179.157 4.90154 179.048 4.90134ZM179.048 4.90134L179.049 4.73486"
                stroke="#050505" />
        </g>
        <path id="section_8"
            d="M88.9425 45.5956L88.9132 4.89227L141.084 4.9293L141.138 11.1473L94.7987 11.117L94.6322 11.1169V11.2834L94.6285 40.7374L94.6279 48.6426C94.6275 49.2153 94.6172 50.1303 94.6072 50.9028C94.6022 51.289 94.5972 51.6393 94.5936 51.893C94.5926 51.9499 94.5919 52.0022 94.5912 52.0488C94.5906 52.0824 94.5902 52.1134 94.5899 52.141L88.9378 52.174L88.9425 45.5956Z"
            fill="#802423" stroke="#050505" />
        <path id="section_53" d="M174.972 114.373V114.469L174.966 152.997H174.163H171.643V114.373H174.972Z"
            fill="#D5D1D5" stroke="#050505" />
        <path id="section_49" d="M186.626 114.373V114.469L186.62 152.997H185.817H183.296V114.373H186.626Z"
            fill="#D5D1D5" stroke="#050505" />
        <path id="Vector 1" d="M247.059 79.5782V105.549" stroke="#050505" />
        <path id="Vector 7" d="M157.492 66.2597V105.549" stroke="#050505" />
        <path id="Vector 8" d="M143.174 66.5927V105.882" stroke="#050505" />
        <path id="Vector 9" d="M130.855 66.2597V105.549" stroke="#050505" />
        <path id="Vector 10" d="M129.19 114.206V166.482" stroke="#050505" />
        <path id="Vector 12" d="M216.759 66.2597V105.549" stroke="#050505" />
        <path id="Vector 15" d="M253.052 115.205V154.162" stroke="#050505" />
        <path id="Vector 17" d="M276.693 88.2353V105.549" stroke="#050505" />
        <path id="Vector 18" d="M53.6071 66.2597V105.549" stroke="#050505" />
        <path id="section_0" d="M21.8095 196.948L28.6438 196.968L28.635 215.127L21.8091 215.153L21.8095 196.948Z"
            fill="#D5D1D5" stroke="#050505" />
        <path id="section_entrance"
            d="M36.2607 206.278V212.098H40.2886V206.271H41.9534L38.2908 201.776L34.6282 206.278H36.2607Z" fill="#008080"
            stroke="#008080" />
        <path id="section_85"
            d="M49.7794 163.183C49.781 158.821 49.7834 151.546 49.7824 147.167C49.7817 145.245 51.3556 143.674 53.2781 143.674C55.1747 143.674 56.712 145.211 56.712 147.108V163.182C56.712 165.096 55.1604 166.648 53.2458 166.648C51.3306 166.648 49.7787 165.098 49.7794 163.183Z"
            fill="#D5D1D5" stroke="#050505" />
        <path id="section_95"
            d="M20.8124 178.139C20.8143 173.525 20.8167 166.495 20.8158 161.861C20.8153 159.368 22.8609 157.325 25.3545 157.325C27.8098 157.325 29.8002 159.316 29.8002 161.771V178.137C29.8002 180.618 27.7883 182.63 25.3065 182.63C22.8234 182.63 20.8113 180.622 20.8124 178.139Z"
            fill="#D5D1D5" stroke="#050505" />
        <path id="section_1" d="M54.9389 180.633H48.2797V197.947H54.9389V180.633Z" fill="#D5D1D5" stroke="#050505" />
        <path id="section_checkout"
            d="M179.967 180.633H55.1055V197.947H182.797L209.767 187.125H291.842V166.815L209.767 167.814L179.967 180.633Z"
            stroke="#050505" />
    </g>
</svg>