<svg width="24" height="73" viewBox="0 0 24 73" fill="none" xmlns="http://www.w3.org/2000/svg">

    <path id="section_93"
        d="M10.8411 28.8286V28.8299L10.8591 31.8869L10.8591 31.8889C10.8612 32.0044 10.8684 32.1279 10.8757 32.2511L10.8762 32.2598C10.8837 32.387 10.8911 32.5148 10.8937 32.641C10.8979 32.8471 10.8886 33.0369 10.8508 33.1984L10.2909 33.2014L10.1325 33.1828L10.1251 33.1821L10.1176 33.1818L6.62292 33.0899L6.64424 12.4431L10.8651 12.4555L10.8411 28.8286Z"
        fill="#C7DB52" stroke="#050505" />
    <g id="section_94">
        <path
            d="M6.42467 12.4561L6.26632 12.4688L6.25956 12.4691H6.2528L3.19466 12.4581C3.19473 12.4581 3.19456 12.4581 3.19466 12.4581H3.1942L3.1948 12.2916C3.11665 12.2916 3.03694 12.289 2.95659 12.2863C2.62746 12.2753 2.2878 12.264 2.00279 12.4282L6.42467 12.4561ZM6.42467 12.4561L6.40326 33.2211L2.06678 33.2424C2.06802 32.6204 2.05843 31.2855 2.04614 29.5771C2.03139 27.5227 2.01274 24.9286 2.00442 22.3848C1.99639 19.9451 1.99783 17.5508 2.02113 15.7198C2.03279 14.8042 2.0499 14.0307 2.07394 13.4633C2.086 13.1797 2.09971 12.9489 2.11516 12.7788C2.12289 12.6935 2.13088 12.6256 2.13897 12.5743C2.14087 12.5623 2.1427 12.5517 2.1445 12.542L6.42467 12.4561Z"
            fill="#C7DB52" />
        <path
            d="M6.42467 12.4561L6.26632 12.4688L6.25956 12.4691H6.2528L3.19466 12.4581M6.42467 12.4561L2.00279 12.4282C2.2878 12.264 2.62746 12.2753 2.95659 12.2863C3.03694 12.289 3.11665 12.2916 3.1948 12.2916L3.1942 12.4581H3.19466M6.42467 12.4561L6.40326 33.2211L2.06678 33.2424C2.06802 32.6204 2.05843 31.2855 2.04614 29.5771C2.03139 27.5227 2.01274 24.9286 2.00442 22.3848C1.99639 19.9451 1.99783 17.5508 2.02113 15.7198C2.03279 14.8042 2.0499 14.0307 2.07394 13.4633C2.086 13.1797 2.09971 12.9489 2.11516 12.7788C2.12289 12.6935 2.13088 12.6256 2.13897 12.5743C2.14087 12.5623 2.1427 12.5517 2.1445 12.542L6.42467 12.4561ZM3.19466 12.4581C3.19456 12.4581 3.19473 12.4581 3.19466 12.4581Z"
            stroke="#050505" />
    </g>
    <path id="section_89"
        d="M19.1681 1.14804H19.1747L19.1771 1.14771L19.1588 53.6704L15.9437 53.6454L15.944 1.16968L19.1681 1.14804Z"
        fill="#C7DB52" stroke="#050505" />
    <path id="section_88"
        d="M22.8799 1.42603C22.9106 1.50894 22.9305 1.65478 22.9385 1.8529C22.9462 2.04635 22.9415 2.2721 22.9322 2.50451C22.9246 2.6913 22.9132 2.88508 22.9026 3.06722C22.8873 3.32859 22.8733 3.56599 22.8736 3.72415L22.8833 12.7791L22.8819 53.7146C22.7551 53.7229 22.6256 53.7319 22.4937 53.7412C22.0675 53.7715 21.6187 53.8032 21.1692 53.8145C20.5748 53.8298 19.9948 53.8088 19.4917 53.705L19.51 1.11605C19.9196 1.07209 20.5429 1.01283 21.1509 1.00184C21.4941 0.995517 21.8284 1.00483 22.1138 1.0398C22.3855 1.07309 22.5943 1.1277 22.7258 1.20095C22.7457 1.22859 22.7674 1.25623 22.786 1.2802C22.797 1.29452 22.807 1.30717 22.815 1.31783C22.8476 1.36111 22.8683 1.3944 22.8799 1.42603Z"
        fill="#D5D1D5" stroke="#050505" />
    <path id="section_entrance"
        d="M15.4483 66.3599V72.1798H19.4762V66.3529H21.141L17.4784 61.8579L13.8158 66.3599H15.4483Z" fill="#008080"
        stroke="#008080" />

</svg>