<svg width="56" height="88" viewBox="0 0 56 88" fill="none" xmlns="http://www.w3.org/2000/svg">

    <path id="section_0" d="M25.0005 60.0014L34.7633 60.0296L34.7502 86.7999L25 86.8371L25.0005 60.0014Z"
        stroke="#050505" fill="white" />
    <path id="section_2" d="M0.564443 15.222H8.45988L8.4496 63.3849L0.557567 63.3906L0.564443 15.222Z" fill="#FEFE7E"
        stroke="#050505" />
    <path id="section_entrance" d="M46.4514 73.7605V82.5H52.5V73.75H55L49.5 67L44 73.7605H46.4514Z" fill="#008080"
        stroke="#008080" />
    <path id="section_95"
        d="M23.5032 31.5064C23.5062 24.5773 23.5098 14.0204 23.5084 7.06157C23.5077 3.45579 26.4673 0.5 30.074 0.5C33.623 0.5 36.5 3.377 36.5 6.92596V31.5018C36.5 35.0907 33.5907 38 30.0018 38C26.4109 38 23.5017 35.0958 23.5032 31.5064Z"
        fill="#D5D1D5" stroke="#050505" />

</svg>