<svg width="293" height="215" viewBox="0 0 293 215" fill="none" xmlns="http://www.w3.org/2000/svg">
    <g id="floor_plan">
        <path id="Vector_2"
            d="M291.362 59.6527L291.411 59.6231L291.488 84.7568L291.489 84.945L291.58 84.9333L291.534 110.396L291.443 111.175L291.208 111.043C291.209 111.039 291.21 111.035 291.21 111.031C291.221 110.965 291.23 110.88 291.239 110.779C291.257 110.577 291.272 110.302 291.285 109.966C291.312 109.291 291.331 108.359 291.344 107.253C291.37 105.038 291.373 102.117 291.365 99.128C291.356 96.1395 291.337 93.0833 291.319 90.5997C291.313 89.7546 291.308 88.9761 291.302 88.2889C291.293 86.981 291.285 86.0048 291.284 85.5336L291.316 85.4314L291.324 85.4068V85.3808L291.298 65.8229L291.305 61.0868C291.307 60.9739 291.302 60.8427 291.297 60.7096V60.7062C291.293 60.57 291.288 60.4289 291.288 60.2904C291.288 60.031 291.307 59.8059 291.362 59.6527ZM291.434 45.623L291.308 45.6223L291.347 39.3067L291.372 39.3097C291.378 39.3386 291.385 39.3753 291.391 39.4199C291.408 39.5384 291.423 39.7012 291.437 39.905C291.463 40.3112 291.481 40.8673 291.493 41.5279C291.513 42.6683 291.514 44.1137 291.504 45.6233L291.434 45.623Z"
            fill="#8E9096" stroke="#050505" stroke-width="0.5" />
        <path id="section_51" d="M164.388 63.5068L167.494 63.5221L167.495 76.531L164.443 76.4877L164.388 63.5068Z"
            fill="#FEFE7E" stroke="#050505" stroke-width="0" />
        <path id="section_77" d="M61.2502 63.5074L64.4183 63.5281L64.422 76.518L61.2928 76.505L61.2502 63.5074Z"
            fill="#FEFE7E" stroke="#050505" stroke-width="0" />
        <path id="Vector_3"
            d="M278.145 132.327L275.096 132.343L275.097 118.817L275.091 115.048C275.091 114.898 275.093 114.744 275.095 114.587C275.104 114.082 275.112 113.548 275.024 113.039L278.118 113.064L278.145 132.327Z"
            fill="#EE9A33" stroke="#050505" stroke-width="0.5" />
        <path id="section_25"
            d="M274.763 132.514L271.405 132.508V132.505L271.406 132.496V132.486L271.387 113.067L274.692 113.073C274.778 113.55 274.77 114.049 274.763 114.557C274.76 114.72 274.757 114.885 274.758 115.049L274.764 118.817L274.763 132.51V132.514Z"
            fill="#EE9A33" stroke="#050505" stroke-width="0" />
        <g id="Vector_4">
            <path id="Vector"
                d="M278.312 132.492L278.287 132.688L271.218 132.674L271.24 132.486L274.73 132.535L274.693 119.657C274.718 117.467 274.929 115.075 274.705 112.907L274.82 112.871C274.982 113.573 274.922 114.332 274.924 115.049L274.93 118.817V132.51L278.312 132.492Z"
                fill="#D99027" />
            <g id="Mask group">
                <g id="Mask group_2">
                    <mask id="mask0_38_380" style="mask-type:luminance" maskUnits="userSpaceOnUse" x="271" y="112"
                        width="8" height="21">
                        <g id="Group">
                            <g id="Group_2">
                                <path id="Vector_5"
                                    d="M278.312 132.492L278.287 132.688L271.218 132.674L271.24 132.486L274.73 132.535L274.693 119.657C274.718 117.467 274.929 115.075 274.705 112.907L274.82 112.871C274.982 113.573 274.922 114.332 274.924 115.049L274.93 118.817V132.51L278.312 132.492Z"
                                    fill="#D5D1D5" />
                            </g>
                        </g>
                    </mask>
                    <g mask="url(#mask0_38_380)">
                        <g id="Group_3">
                            <path id="Vector_6"
                                d="M278.312 132.492L278.642 132.533L278.689 132.157L278.31 132.159L278.312 132.492ZM278.287 132.688V133.021L278.582 133.022L278.618 132.729L278.287 132.688ZM271.218 132.674L270.887 132.635L270.844 133.006L271.217 133.007L271.218 132.674ZM271.24 132.486L271.245 132.153L270.944 132.149L270.909 132.448L271.24 132.486ZM274.73 132.535L274.725 132.868L275.064 132.873L275.063 132.534L274.73 132.535ZM274.693 119.657L274.36 119.653V119.656V119.658L274.693 119.657ZM274.705 112.907L274.607 112.588L274.345 112.668L274.374 112.941L274.705 112.907ZM274.82 112.871L275.145 112.796L275.064 112.448L274.723 112.553L274.82 112.871ZM274.93 132.51H274.597V132.845L274.931 132.843L274.93 132.51ZM277.981 132.451L277.957 132.647L278.618 132.729L278.642 132.533L277.981 132.451ZM278.288 132.355L271.219 132.341L271.217 133.007L278.287 133.021L278.288 132.355ZM271.549 132.713L271.57 132.525L270.909 132.448L270.887 132.635L271.549 132.713ZM271.235 132.819L274.725 132.868L274.734 132.202L271.245 132.153L271.235 132.819ZM275.063 132.534L275.026 119.656L274.36 119.658L274.397 132.536L275.063 132.534ZM275.026 119.661C275.05 117.508 275.263 115.066 275.036 112.872L274.374 112.941C274.595 115.085 274.385 117.425 274.36 119.653L275.026 119.661ZM274.802 113.225L274.918 113.19L274.723 112.553L274.607 112.588L274.802 113.225ZM274.496 112.946C274.647 113.599 274.589 114.293 274.591 115.05L275.257 115.048C275.255 114.371 275.318 113.546 275.145 112.796L274.496 112.946ZM274.591 115.05L274.597 118.817H275.263L275.257 115.048L274.591 115.05ZM274.597 118.817V132.51H275.263V118.817H274.597ZM274.931 132.843L278.314 132.825L278.31 132.159L274.928 132.177L274.931 132.843Z"
                                fill="#050505" />
                        </g>
                    </g>
                </g>
            </g>
        </g>
        <path id="section_80"
            d="M60.1564 111.093L63.1417 111.107L63.1753 137.617L60.186 137.582L60.147 134.953V134.952L60.1564 111.093Z"
            fill="#E7AB7D" stroke="#050505" stroke-width="0" />
        <path id="section_81"
            d="M63.2373 163.565L60.0398 163.692L60.0568 144.441C60.0565 143.522 60.0328 142.581 60.0085 141.634C59.9772 140.394 59.9456 139.143 59.9659 137.913H60.0198L63.176 137.95L63.2373 163.565Z"
            fill="#D5D1D5" stroke="#050505" stroke-width="0" />
        <path id="section_52" d="M167.557 102.484L164.451 102.497L164.444 76.8206L167.621 76.8656L167.557 102.484Z"
            fill="#D99027" stroke="#050505" stroke-width="0" />
        <path id="section_91"
            d="M25.6018 108.194V108.196L25.6197 111.253L25.6198 111.255C25.6219 111.37 25.6292 111.494 25.6364 111.617L25.6369 111.626C25.6444 111.753 25.6518 111.881 25.6544 112.007C25.6586 112.213 25.6493 112.403 25.6114 112.564L25.0516 112.567L24.8932 112.549L24.8857 112.548H24.8783L21.3836 112.456L21.4049 91.809L25.6258 91.8213L25.6018 108.194Z"
            fill="#C7DB52" stroke="#050505" stroke-width="0" />
        <path id="section_83"
            d="M49.6278 119.07L49.6254 113.92C49.6251 113.681 49.6308 113.43 49.6364 113.175C49.6511 112.496 49.6671 111.778 49.5785 111.115L52.8778 111.14L52.8795 131.009L52.8772 135.685C52.8772 135.86 52.8835 136.047 52.8905 136.236V136.238C52.8971 136.429 52.9038 136.622 52.9045 136.814C52.9058 137.156 52.8871 137.482 52.8182 137.764L52.2662 137.822L49.6178 137.792L49.6278 119.07Z"
            fill="#EEC13F" stroke="#050505" stroke-width="0" />
        <g id="section_84_full">
            <path id="Vector_7"
                d="M49.2848 137.973V137.956L49.2948 119.07L49.2924 113.921L49.4589 113.92C49.4586 113.672 49.4643 113.416 49.4699 113.157C49.4862 112.415 49.5032 111.646 49.3847 110.947L49.2848 137.973ZM49.2848 137.973C48.8366 137.978 48.3911 137.997 47.9489 138.015C47.8514 138.019 47.7542 138.023 47.6573 138.027C47.1312 138.048 46.6088 138.065 46.083 138.056L46.069 111.123C46.0993 111.115 46.137 111.106 46.1826 111.098C46.2838 111.079 46.411 111.065 46.5575 111.055C46.8508 111.034 47.2108 111.03 47.5797 111.035C48.2243 111.045 48.8852 111.082 49.2408 111.104L49.2848 137.973Z"
                fill="#D5D1D5" />
            <path id="section_84"
                d="M49.2848 137.973V137.956L49.2948 119.07L49.2924 113.921L49.4589 113.92C49.4586 113.672 49.4643 113.416 49.4699 113.157C49.4862 112.415 49.5032 111.646 49.3847 110.947L49.2848 137.973ZM49.2848 137.973C48.8366 137.978 48.3911 137.997 47.9489 138.015C47.8514 138.019 47.7542 138.023 47.6573 138.027C47.1312 138.048 46.6088 138.065 46.083 138.056L46.069 111.123C46.0993 111.115 46.137 111.106 46.1826 111.098C46.2838 111.079 46.411 111.065 46.5575 111.055C46.8508 111.034 47.2108 111.03 47.5797 111.035C48.2243 111.045 48.8852 111.082 49.2408 111.104L49.2848 137.973Z"
                stroke="#050505" stroke-width="0.5" />
        </g>
        <path id="section_78"
            d="M61.2841 102.498L61.2934 76.838L64.5878 76.8516L64.6793 76.8519L64.663 102.508L61.2841 102.498Z"
            fill="#EE9A33" stroke="#050505" stroke-width="0" />
        <g id="Vector_5_2">
            <path id="Vector_9"
                d="M21.072 91.822L20.9136 91.8346L20.9068 91.835H20.9001L17.8419 91.824C17.842 91.824 17.8418 91.824 17.8419 91.824L17.8421 91.6575C17.7639 91.6575 17.6842 91.6548 17.6039 91.6522C17.2747 91.6412 16.9351 91.6299 16.6501 91.794L21.072 91.822ZM21.072 91.822L21.0505 112.587L16.7141 112.608C16.7153 111.986 16.7057 110.651 16.6934 108.943C16.6787 106.889 16.66 104.294 16.6517 101.751C16.6437 99.311 16.6451 96.9167 16.6684 95.0857C16.6801 94.17 16.6972 93.3966 16.7212 92.8292C16.7333 92.5455 16.747 92.3148 16.7624 92.1446C16.7702 92.0594 16.7782 91.9914 16.7862 91.9402C16.7881 91.9282 16.79 91.9175 16.7918 91.9079L21.072 91.822Z"
                fill="#C7DB52" />
            <path id="Vector_10"
                d="M21.072 91.822L20.9136 91.8346L20.9068 91.835H20.9001L17.8419 91.824M21.072 91.822L16.6501 91.794C16.9351 91.6299 17.2747 91.6412 17.6039 91.6522C17.6842 91.6548 17.7639 91.6575 17.8421 91.6575L17.8419 91.824M21.072 91.822L21.0505 112.587L16.7141 112.608C16.7153 111.986 16.7057 110.651 16.6934 108.943C16.6787 106.889 16.66 104.294 16.6517 101.751C16.6437 99.311 16.6451 96.9167 16.6684 95.0857C16.6801 94.17 16.6972 93.3966 16.7212 92.8292C16.7333 92.5455 16.747 92.3148 16.7624 92.1446C16.7702 92.0594 16.7782 91.9914 16.7862 91.9402C16.7881 91.9282 16.79 91.9175 16.7918 91.9079L21.072 91.822ZM17.8419 91.824C17.8418 91.824 17.842 91.824 17.8419 91.824Z"
                stroke="#050505" stroke-width="0.5" />
        </g>
        <g id="section_92_full">
            <path id="Vector_11"
                d="M21.072 91.822L20.9136 91.8346L20.9068 91.835H20.9001L17.8419 91.824C17.842 91.824 17.8418 91.824 17.8419 91.824L17.8421 91.6575C17.7639 91.6575 17.6842 91.6548 17.6039 91.6522C17.2747 91.6412 16.9351 91.6299 16.6501 91.794L21.072 91.822ZM21.072 91.822L21.0505 112.587L16.7141 112.608C16.7153 111.986 16.7057 110.651 16.6934 108.943C16.6787 106.889 16.66 104.294 16.6517 101.751C16.6437 99.311 16.6451 96.9167 16.6684 95.0857C16.6801 94.17 16.6972 93.3966 16.7212 92.8292C16.7333 92.5455 16.747 92.3148 16.7624 92.1446C16.7702 92.0594 16.7782 91.9914 16.7862 91.9402C16.7881 91.9282 16.79 91.9175 16.7918 91.9079L21.072 91.822Z"
                fill="#C7DB52" />
            <path id="section_92"
                d="M21.072 91.822L20.9136 91.8346L20.9068 91.835H20.9001L17.8419 91.824M21.072 91.822L16.6501 91.794C16.9351 91.6299 17.2747 91.6412 17.6039 91.6522C17.6842 91.6548 17.7639 91.6575 17.8421 91.6575L17.8419 91.824M21.072 91.822L21.0505 112.587L16.7141 112.608C16.7153 111.986 16.7057 110.651 16.6934 108.943C16.6787 106.889 16.66 104.294 16.6517 101.751C16.6437 99.311 16.6451 96.9167 16.6684 95.0857C16.6801 94.17 16.6972 93.3966 16.7212 92.8292C16.7333 92.5455 16.747 92.3148 16.7624 92.1446C16.7702 92.0594 16.7782 91.9914 16.7862 91.9402C16.7881 91.9282 16.79 91.9175 16.7918 91.9079L21.072 91.822ZM17.8419 91.824C17.8418 91.824 17.842 91.824 17.8419 91.824Z"
                stroke="#050505" stroke-width="0.5" />
        </g>
        <path id="section_93"
            d="M25.7467 138.747V138.748L25.7647 141.805V141.807C25.7668 141.922 25.7741 142.046 25.7813 142.169L25.7818 142.178C25.7893 142.305 25.7968 142.433 25.7993 142.559C25.8035 142.765 25.7942 142.955 25.7564 143.116L25.1966 143.119L25.0381 143.101L25.0307 143.1H25.0232L21.5286 143.008L21.5499 122.361L25.7708 122.373L25.7467 138.747Z"
            fill="#C7DB52" stroke="#050505" stroke-width="0" />
        <g id="section_94_full">
            <path id="Vector_13"
                d="M21.3303 122.374L21.172 122.387H21.1652H21.1584L18.1003 122.376C18.1004 122.376 18.1002 122.376 18.1003 122.376L18.1004 122.21C18.0223 122.21 17.9426 122.207 17.8622 122.204C17.5331 122.193 17.1934 122.182 16.9084 122.346L21.3303 122.374ZM21.3303 122.374L21.3089 143.139L16.9724 143.16C16.9737 142.538 16.9641 141.203 16.9518 139.495C16.937 137.441 16.9184 134.847 16.9101 132.303C16.902 129.863 16.9035 127.469 16.9268 125.638C16.9384 124.722 16.9555 123.949 16.9796 123.381C16.9916 123.098 17.0054 122.867 17.0208 122.697C17.0285 122.611 17.0365 122.544 17.0446 122.492C17.0465 122.48 17.0483 122.47 17.0501 122.46L21.3303 122.374Z"
                fill="#C7DB52" />
            <path id="section_94"
                d="M21.3303 122.374L21.172 122.387H21.1652H21.1584L18.1003 122.376M21.3303 122.374L16.9084 122.346C17.1934 122.182 17.5331 122.193 17.8622 122.204C17.9426 122.207 18.0223 122.21 18.1004 122.21L18.1003 122.376M21.3303 122.374L21.3089 143.139L16.9724 143.16C16.9737 142.538 16.9641 141.203 16.9518 139.495C16.937 137.441 16.9184 134.847 16.9101 132.303C16.902 129.863 16.9035 127.469 16.9268 125.638C16.9384 124.722 16.9555 123.949 16.9796 123.381C16.9916 123.098 17.0054 122.867 17.0208 122.697C17.0285 122.611 17.0365 122.544 17.0446 122.492C17.0465 122.48 17.0483 122.47 17.0501 122.46L21.3303 122.374ZM18.1003 122.376C18.1002 122.376 18.1004 122.376 18.1003 122.376Z"
                stroke="#050505" stroke-width="0.5" />
        </g>
        <path id="section_23" d="M269.454 80.8216L269.426 63.5191L276.132 63.5125L276.14 80.8395L269.454 80.8216Z"
            fill="#F33517" stroke="#050505" stroke-width="0" />
        <path id="section_27" d="M254.428 63.4991L261.134 63.5061V80.8398L254.424 80.8235L254.428 63.4991Z"
            fill="#F33517" stroke="#050505" stroke-width="0" />
        <path id="section_28" d="M254.408 85.1164L261.142 85.1344L261.145 102.505L254.413 102.498L254.408 85.1164Z"
            fill="#D99027" stroke="#050505" stroke-width="0" />
        <path id="section_24"
            d="M269.412 91.3528L269.398 86.987C269.398 86.8268 269.392 86.6564 269.385 86.4846C269.385 86.4739 269.384 86.4633 269.384 86.4526C269.378 86.2904 269.372 86.1263 269.369 85.9631C269.365 85.6651 269.375 85.3791 269.421 85.1264L276.157 85.1267L276.161 102.504L269.416 102.491C269.296 100.087 269.335 97.647 269.374 95.2102C269.394 93.9213 269.415 92.6334 269.412 91.3528Z"
            fill="#D99027" stroke="#050505" stroke-width="0" />
        <path id="section_26" d="M271.384 132.841L278.121 132.854L278.144 150.255L271.38 150.256L271.384 132.841Z"
            fill="#42AAED" stroke="#050505" stroke-width="0" />
        <path id="section_34" d="M245.751 132.841L252.479 132.848L252.498 151.137L245.737 151.125L245.751 132.841Z"
            fill="#42AAED" stroke="#050505" stroke-width="0" />
        <path id="section_43" d="M198.179 102.509V63.5351L201.206 63.5034L201.208 102.51L198.179 102.509Z"
            fill="#D99027" stroke="#050505" stroke-width="0" />
        <path id="section_90" d="M17.8287 63.4525L24.663 63.4725L24.6542 81.6313L17.8284 81.6573L17.8287 63.4525Z"
            fill="#C7DB52" stroke="#050505" stroke-width="0" />
        <path id="section_30" d="M258.603 132.832L265.368 132.855L265.365 151.125L258.572 151.132L258.603 132.832Z"
            fill="#42AAED" stroke="#050505" stroke-width="0" />
        <path id="section_64" d="M105.413 63.4888L108.425 63.4981L108.441 102.503L105.418 102.508L105.413 63.4888Z"
            fill="#EEC13F" stroke="#050505" stroke-width="0" />
        <path id="section_76" d="M64.996 102.512L65.0206 63.4795L68.0466 63.4981L68.0516 102.58L64.996 102.512Z"
            fill="#FEFE7E" stroke="#050505" stroke-width="0" />
        <path id="section_71" d="M78.9365 102.495L78.9455 63.5204L81.9878 63.4991L81.9951 102.53L78.9365 102.495Z"
            fill="#EEC13F" stroke="#050505" stroke-width="0" />
        <path id="section_68" d="M90.2596 63.5081L93.3971 63.4998L93.4004 102.506L90.2752 102.494L90.2596 63.5081Z"
            fill="#EEC13F" stroke="#050505" stroke-width="0" />
        <path id="section_41"
            d="M207.222 130.553C207.222 130.553 207.222 130.553 207.222 130.551C207.221 130.545 207.216 130.522 207.214 130.474C207.212 130.42 207.213 130.353 207.217 130.281C207.219 130.229 207.223 130.17 207.227 130.114C207.232 130.026 207.238 129.941 207.238 129.888L207.239 127.046L207.224 112.024L214.12 112.046L214.119 130.754L207.371 130.705C207.353 130.689 207.335 130.673 207.32 130.66C207.308 130.649 207.297 130.64 207.289 130.632C207.251 130.597 207.232 130.574 207.222 130.553Z"
            fill="#A0D1D9" stroke="#050505" stroke-width="0" />
        <path id="section_38"
            d="M223.663 151.154L223.676 112.053L226.851 112.051L226.849 151.112L226.685 151.207L223.663 151.154Z"
            fill="#E7AB7D" stroke="#050505" stroke-width="0" />
        <path id="section_37" d="M232.887 112.076L236.096 112.072L236.087 151.139L232.889 151.147L232.887 112.076Z"
            fill="#E7AB7D" stroke="#050505" stroke-width="0" />
        <path id="section_47" d="M179.432 63.5028L182.728 63.5088L182.693 102.481L179.439 102.48L179.432 63.5028Z"
            fill="#F33517" stroke="#050505" stroke-width="0" />
        <path id="section_46" d="M183.026 102.483L183.06 63.5088L186.237 63.5021L186.235 102.507L183.026 102.483Z"
            fill="#D99027" stroke="#050505" stroke-width="0" />
        <path id="section_50" d="M167.89 102.484L167.988 63.5021L171.216 63.4995L171.214 102.493L167.89 102.484Z"
            fill="#F33517" stroke="#050505" stroke-width="0" />
        <path id="section_87" d="M30.8426 63.4625L34.1386 63.5051L34.115 102.539L30.8546 102.528L30.8426 63.4625Z"
            fill="#C7DB52" stroke="#050505" stroke-width="0" />
        <path id="section_42"
            d="M207.229 137.1L207.222 133.387C207.222 133.264 207.216 133.13 207.209 132.996V132.988C207.202 132.855 207.196 132.72 207.195 132.587C207.192 132.363 207.204 132.158 207.246 131.99L214.123 132.07L214.118 151.201C212.457 151.389 210.638 151.331 208.88 151.275C208.323 151.257 207.771 151.24 207.232 151.23L207.229 137.1Z"
            fill="#A0D1D9" stroke="#050505" stroke-width="0" />
        <path id="section_67" d="M97.036 102.504L93.7334 102.507L93.7301 63.4998L97.03 63.5068L97.036 102.504Z"
            fill="#D99027" stroke="#050505" stroke-width="0" />
        <path id="section_36" d="M236.42 151.138L236.429 112.07L239.724 112.045L239.719 151.129L236.42 151.138Z"
            fill="#42AAED" stroke="#050505" stroke-width="0" />
        <path id="section_72" d="M75.2836 63.5118L78.6125 63.5211L78.6035 102.492L75.2822 102.476L75.2836 63.5118Z"
            fill="#802423" stroke="#050505" stroke-width="0" />
        <path id="section_86" d="M34.4479 102.542L34.4716 63.5078L37.7386 63.5214L37.7346 102.585L34.4479 102.542Z"
            fill="#FEFE7E" stroke="#050505" stroke-width="0" />
        <path id="section_63" d="M112.158 102.491L108.774 102.502L108.758 63.4988L112.154 63.5018L112.158 102.491Z"
            fill="#D99027" stroke="#050505" stroke-width="0" />
        <path id="section_33" d="M252.479 132.515L245.751 132.508L245.743 112.081L252.47 112.08L252.479 132.515Z"
            fill="#EE9A33" stroke="#050505" stroke-width="0" />
        <path id="section_29" d="M265.368 132.522L258.603 132.499L258.58 112.086L265.362 112.076L265.368 132.522Z"
            fill="#EE9A33" stroke="#050505" stroke-width="0" />
        <path id="section_39"
            d="M220 151.202L219.927 112.039L223.343 112.052L223.33 151.299C222.201 151.322 221.078 151.313 220 151.202Z"
            fill="#A0D1D9" stroke="#050505" stroke-width="0" />
        <path id="section_54" d="M164.313 111.373H167.643V111.469L167.636 149.997H166.834H164.313V111.373Z"
            fill="#D5D1D5" stroke="#050505" stroke-width="0" />
        <path id="section_44"
            d="M197.846 63.5144V102.487H197.835L194.362 102.494L194.355 63.5005L197.764 63.5028L197.846 63.5144Z"
            fill="#D99027" stroke="#050505" stroke-width="0" />
        <g id="Vector_9_2">
            <path id="Vector_7_2" d="M198.013 63.3703V102.676L197.836 102.653L197.776 63.3363L198.013 63.3703Z"
                fill="#AB7726" />
            <g id="Mask group_2_2">
                <g id="Mask group_3">
                    <mask id="mask1_38_380" style="mask-type:luminance" maskUnits="userSpaceOnUse" x="197" y="63"
                        width="2" height="40">
                        <g id="Group_4">
                            <g id="Group_2_2">
                                <path id="Vector_10_2"
                                    d="M198.013 63.3703V102.676L197.836 102.653L197.776 63.3363L198.013 63.3703Z"
                                    fill="#D5D1D5" />
                            </g>
                        </g>
                    </mask>
                    <g mask="url(#mask1_38_380)">
                        <g id="Group_5">
                            <path id="Vector_11_2"
                                d="M198.013 63.3703H198.346V63.0816L198.06 63.0406L198.013 63.3703ZM198.013 102.676L197.971 103.006L198.346 103.053V102.676H198.013ZM197.836 102.653L197.503 102.654V102.947L197.794 102.984L197.836 102.653ZM197.776 63.3363L197.823 63.0067L197.442 62.9521L197.443 63.337L197.776 63.3363ZM197.68 63.3703V102.676H198.346V63.3703H197.68ZM198.055 102.345L197.877 102.323L197.794 102.984L197.971 103.006L198.055 102.345ZM198.169 102.653L198.109 63.3356L197.443 63.337L197.503 102.654L198.169 102.653ZM197.729 63.6659L197.965 63.6999L198.06 63.0406L197.823 63.0067L197.729 63.6659Z"
                                fill="#050505" />
                        </g>
                    </g>
                </g>
            </g>
        </g>
        <path id="section_48"
            d="M182.635 111.519V111.373H186.289L186.276 149.996C185.708 149.997 184.818 149.997 184.04 149.997C183.611 149.996 183.216 149.996 182.928 149.996H182.626V149.918L182.635 111.519Z"
            fill="#A0D1D9" stroke="#050505" stroke-width="0" />
        <path id="Vector_11_2_2"
            d="M291.587 111.377L291.722 148.9L291.595 159.133C291.595 162.271 291.844 189.25 291.468 189.989L291.441 152.166C291.436 151.842 291.48 151.56 291.267 151.307C291.029 150.528 291.127 149.577 291.124 148.766L291.113 144.365L291.12 126.497C291.128 122.56 290.887 118.507 291.114 114.583C291.131 114.298 291.213 114.018 291.305 113.749C291.567 113.443 291.451 111.86 291.458 111.375L291.587 111.377Z"
            fill="#8E9096" />
        <path id="section_20"
            d="M286.579 59.6824L291.003 59.7053C290.964 59.8885 290.955 60.0956 290.955 60.2897C290.955 60.4352 290.96 60.5817 290.965 60.7169C290.969 60.8541 290.974 60.9783 290.972 61.0828V61.0845L290.965 65.8222L290.991 85.3412L284.283 85.3285L284.308 59.715C284.634 59.6677 284.989 59.6571 285.353 59.6594C285.551 59.6607 285.749 59.6657 285.945 59.671L285.975 59.6717C286.18 59.677 286.383 59.6824 286.578 59.6824H286.579Z"
            fill="#CE3729" stroke="#050505" stroke-width="0" />
        <path id="section_66"
            d="M108.62 111.143L108.609 163.514C107.851 163.456 107.048 163.486 106.272 163.515C105.986 163.526 105.705 163.536 105.431 163.542L105.427 111.148L108.62 111.143Z"
            fill="#F33517" stroke="#050505" stroke-width="0" />
        <path id="section_21"
            d="M290.884 110.959L284.173 110.993C284.176 108.083 284.203 101.804 284.23 96.2048C284.243 93.3506 284.256 90.6733 284.266 88.7094C284.271 87.7275 284.275 86.9241 284.278 86.366L284.281 85.7214L284.282 85.6615L290.951 85.6741C290.954 86.1852 290.96 87.1019 290.969 88.2932C290.975 88.9801 290.98 89.758 290.987 90.602C291.004 93.0856 291.024 96.1412 291.032 99.129C291.04 102.117 291.038 105.037 291.011 107.249C290.998 108.354 290.979 109.282 290.953 109.952C290.939 110.287 290.924 110.557 290.907 110.75C290.9 110.837 290.892 110.906 290.884 110.959Z"
            fill="#EE9A33" stroke="#050505" stroke-width="0" />
        <path id="section_89"
            d="M34.0737 111.066H34.0804H34.0827L34.0644 163.588L30.8493 163.563L30.8496 111.088L34.0737 111.066Z"
            fill="#C7DB52" stroke="#050505" stroke-width="0" />
        <g id="section_65_full">
            <path id="Vector_15"
                d="M108.942 163.527L108.953 111.141L112.161 111.119C112.161 111.804 112.166 113.48 112.172 115.832C112.186 121.119 112.209 129.82 112.218 138.36C112.225 144.71 112.223 150.972 112.204 155.676C112.195 158.029 112.181 159.991 112.162 161.381C112.152 162.076 112.141 162.627 112.128 163.012C112.122 163.204 112.115 163.353 112.108 163.457C112.108 163.468 112.107 163.479 112.106 163.489L108.942 163.527Z"
                fill="#577BF4" />
            <path id="section_65"
                d="M112.094 163.604C112.094 163.604 112.094 163.603 112.094 163.601M108.942 163.527L108.953 111.141L112.161 111.119C112.161 111.804 112.166 113.48 112.172 115.832C112.186 121.119 112.209 129.82 112.218 138.36C112.225 144.71 112.223 150.972 112.204 155.676C112.195 158.029 112.181 159.991 112.162 161.381C112.152 162.076 112.141 162.627 112.128 163.012C112.122 163.204 112.115 163.353 112.108 163.457C112.108 163.468 112.107 163.479 112.106 163.489L108.942 163.527Z"
                stroke="#050505" stroke-width="0.5" />
        </g>
        <path id="section_2" d="M7.1275 164.129L7.1206 196.535L1.53217 196.539L1.53679 164.129H7.1275Z" fill="#FEFE7E"
            stroke="#050505" stroke-width="0" />
        <path id="section_88"
            d="M37.7856 111.344C37.8162 111.427 37.8362 111.573 37.8442 111.771C37.8518 111.964 37.8472 112.19 37.8378 112.422C37.8302 112.609 37.8189 112.803 37.8082 112.985C37.7929 113.246 37.7789 113.484 37.7792 113.642L37.7889 122.697L37.7876 163.633C37.6607 163.641 37.5312 163.65 37.3993 163.659C36.9731 163.689 36.5243 163.721 36.0748 163.732C35.4805 163.748 34.9004 163.727 34.3973 163.623L34.4157 111.034C34.8252 110.99 35.4485 110.931 36.0565 110.92C36.3998 110.913 36.7341 110.923 37.0194 110.958C37.2911 110.991 37.4999 111.046 37.6314 111.119C37.6514 111.146 37.673 111.174 37.6917 111.198C37.7027 111.212 37.7127 111.225 37.7206 111.236C37.7533 111.279 37.7739 111.312 37.7856 111.344Z"
            fill="#D5D1D5" stroke="#050505" stroke-width="0" />
        <path id="section_79"
            d="M63.5086 137.785L63.4747 111.108L66.9798 111.121L66.9971 163.561L63.5702 163.558L63.5086 137.785Z"
            fill="#EEC13F" stroke="#050505" stroke-width="0" />
        <path id="section_22"
            d="M284.183 113.899L291.076 113.914C291.013 114.124 290.961 114.346 290.948 114.574C290.799 117.146 290.851 119.78 290.902 122.393C290.929 123.771 290.956 125.143 290.954 126.497L290.947 144.365L290.958 148.766C290.959 148.948 290.954 149.14 290.949 149.337L290.948 149.392C290.943 149.607 290.938 149.829 290.941 150.051C290.946 150.417 290.971 150.789 291.051 151.14L284.195 151.139L284.183 113.899Z"
            fill="#577BF4" stroke="#050505" stroke-width="0" />
        <g id="section_61_full">
            <path id="Vector_17"
                d="M130.233 102.091V102.088L130.221 63.5018L123.765 63.4921C123.734 63.565 123.72 63.626 123.714 63.6872C123.705 63.7672 123.709 63.8487 123.715 63.9676C123.716 63.9862 123.717 64.0056 123.717 64.0262L123.718 64.0299V64.0335L123.714 102.508L128.649 102.523L130.233 102.091ZM130.243 102.461C130.059 102.528 129.819 102.551 129.551 102.552C129.395 102.552 129.238 102.545 129.084 102.538L129.049 102.537C128.909 102.53 128.772 102.524 128.649 102.523L130.243 102.461Z"
                fill="#D99027" />
            <path id="section_61"
                d="M130.233 102.091V102.088L130.221 63.5018L123.765 63.4921C123.734 63.565 123.72 63.626 123.714 63.6872C123.705 63.7672 123.709 63.8487 123.715 63.9676C123.716 63.9862 123.717 64.0056 123.717 64.0262L123.718 64.0299V64.0335L123.714 102.508L128.649 102.523M130.233 102.091L128.649 102.523M130.233 102.091V102.093L130.243 102.461M128.649 102.523C128.772 102.524 128.909 102.53 129.049 102.537L129.084 102.538C129.238 102.545 129.395 102.552 129.551 102.552C129.819 102.551 130.059 102.528 130.243 102.461M128.649 102.523L130.243 102.461"
                stroke="#050505" stroke-width="0.5" />
        </g>
        <path id="section_55" d="M150.321 63.4934L156.97 63.4904V102.504L150.334 102.494L150.321 63.4934Z"
            fill="#D99027" stroke="#050505" stroke-width="0" />
        <path id="section_32"
            d="M239.007 101.993L239 63L240.998 63.0203H240.999L242.914 63.0066L242.983 63.198L243 102L241.003 101.997L239.007 101.993Z"
            fill="#D99027" stroke="#050505" stroke-width="0" />
        <path id="section_32b"
            d="M243.005 101.996L243 77L244.498 77.013H244.499L245.935 77.0042L245.988 77.1269L246 102L244.502 101.998L243.005 101.996Z"
            fill="#D99027" stroke="#050505" stroke-width="0.5" />
        <path id="section_31"
            d="M246.131 63.7728L246.13 63.7801V63.7875L246.069 76.6578L243.012 76.5426L242.956 63.5124L246.025 63.4995L246.139 63.6836L246.131 63.7728Z"
            fill="#F33517" stroke="#050505" stroke-width="0" />
        <path id="section_82"
            d="M46.1243 89.2319L46.1163 63.4898L52.8878 63.5071V102.541L46.2432 102.581C46.1869 102.516 46.1639 102.468 46.151 102.421C46.1336 102.359 46.131 102.29 46.126 102.163C46.1257 102.151 46.1253 102.139 46.1247 102.126L46.1243 89.2319Z"
            fill="#FEFE7E" stroke="#050505" stroke-width="0" />
        <path id="section_35" d="M224.334 63.4995L231.164 63.4815L231.19 102.503L224.385 102.492L224.334 63.4995Z"
            fill="#D99027" stroke="#050505" stroke-width="0" />
        <path id="Vector 11" d="M227.742 63.5927V102.882" stroke="#050505" stroke-width="0.5" />
        <path id="section_56"
            d="M153.026 130.856L153.002 111.054L156.995 111L157 150L154.961 149.949H154.96L153 149.934L153.026 130.856Z"
            fill="#9B867E" stroke="#050505" stroke-width="0" />
        <path id="section_57"
            d="M153.344 111.251L153.363 130.599C153.126 130.596 152.884 130.589 152.637 130.581C152.396 130.574 152.149 130.566 151.896 130.563C151.405 130.557 150.909 130.569 150.442 130.639L150.422 111.265L153.344 111.251Z"
            fill="#A0D1D9" stroke="#050505" stroke-width="0" />
        <path id="section_60"
            d="M142.91 102.506L136.083 102.512L136.089 72.3603L136.074 65.6134C136.074 65.4513 136.064 65.2605 136.053 65.0614C136.052 65.0491 136.052 65.0364 136.051 65.0238C136.041 64.8343 136.03 64.6369 136.025 64.4411C136.016 64.0725 136.03 63.7342 136.096 63.4878L142.914 63.5121L142.91 102.506Z"
            fill="#D99027" stroke="#050505" stroke-width="0" />
        <path id="section_40" d="M209.325 63.4998L216.182 63.5011L216.18 102.508L209.34 102.492L209.325 63.4998Z"
            fill="#D99027" stroke="#050505" stroke-width="0" />
        <path id="section_45"
            d="M194.355 151.205L194.286 112.038L197.813 112.05H197.822L197.83 112.049L198.036 112.028L201.247 112.052L201.258 151.251C200.614 151.254 199.96 151.269 199.302 151.284C197.637 151.322 195.95 151.36 194.355 151.205Z"
            fill="#A0D1D9" stroke="#050505" stroke-width="0" />
        <path id="section_10" d="M109.526 45.5171L109.514 12.9688L118.605 12.9675L118.602 45.5217L109.526 45.5171Z"
            fill="#802423" stroke="#050505" stroke-width="0" />
        <path id="section_9"
            d="M105.584 12.969L105.581 45.5277L100.852 45.5147L96.486 45.5271L96.489 12.9692L100.824 12.9663L105.584 12.969Z"
            fill="#802423" stroke="#050505" stroke-width="0" />
        <path id="section_16" d="M163.287 12.8344H172.323L172.34 45.6556L163.281 45.6539L163.287 12.8344Z"
            fill="#ECBEBB" stroke="#050505" stroke-width="0" />
        <path id="section_12" d="M126.356 12.9822H131.014V45.4412L126.468 45.4458L126.356 12.9822Z" fill="#ECBEBB"
            stroke="#050505" stroke-width="0" />
        <path id="section_15" d="M149.024 12.8701L158.293 12.8287L158.287 45.6619L149.024 45.6553V12.8701Z"
            fill="#ECBEBB" stroke="#050505" stroke-width="0" />
        <g id="section_14_full">
            <path
                d="M140.546 45.6973L140.509 45.6756L140.465 45.6753L138.023 45.658L138.029 21.0982L138.028 14.2825C138.028 13.9508 138.023 13.6116 138.019 13.2697C138.006 12.381 137.994 11.4743 138.064 10.6353C138.069 10.633 138.075 10.6306 138.081 10.6281C138.121 10.6124 138.175 10.5968 138.245 10.5822C138.385 10.5529 138.572 10.5309 138.793 10.5153C139.236 10.4843 139.802 10.4803 140.384 10.4892C140.966 10.4981 141.56 10.5198 142.059 10.5395C142.148 10.543 142.234 10.5465 142.316 10.5498C142.591 10.5608 142.827 10.5703 142.998 10.5749L143.003 45.7755L141.387 45.7665C141.315 45.7658 141.237 45.7692 141.165 45.7728L141.15 45.7735C141.071 45.7772 140.996 45.7802 140.922 45.7788C140.773 45.7762 140.648 45.7555 140.546 45.6973Z"
                fill="#ECBEBB" />
            <path id="section_14"
                d="M141.387 45.7665L143.003 45.7755L142.998 10.5749C142.827 10.5703 142.591 10.5608 142.316 10.5498C142.234 10.5465 142.148 10.543 142.059 10.5395C141.56 10.5198 140.966 10.4981 140.384 10.4892C139.802 10.4803 139.236 10.4843 138.793 10.5153C138.572 10.5309 138.385 10.5529 138.245 10.5822C138.175 10.5968 138.121 10.6124 138.081 10.6281C138.075 10.6306 138.069 10.633 138.064 10.6353C137.994 11.4743 138.006 12.381 138.019 13.2697C138.023 13.6116 138.028 13.9508 138.028 14.2825L138.029 21.0982L138.023 45.658L140.465 45.6753L140.509 45.6756L140.546 45.6973C140.648 45.7555 140.773 45.7762 140.922 45.7788C140.996 45.7802 141.071 45.7772 141.15 45.7735L141.165 45.7728C141.237 45.7692 141.315 45.7658 141.387 45.7665ZM141.387 45.7665L141.385 45.933"
                stroke="#050505" stroke-width="0.5" />
        </g>
        <path id="section_13"
            d="M133.815 10.6263L138.247 10.6303L138.213 37.6801C138.213 37.9651 138.202 38.4759 138.189 39.1065C138.172 39.879 138.152 40.8316 138.144 41.7682C138.136 42.6146 138.138 43.4444 138.162 44.1046C138.173 44.4346 138.191 44.725 138.215 44.955C138.239 45.1758 138.271 45.3662 138.324 45.4781L138.326 45.4808L138.327 45.4834L138.332 45.4931L138.228 45.5454L133.752 45.5274L133.761 21.0018L133.76 14.1954C133.76 13.8599 133.752 13.5184 133.743 13.1755C133.721 12.3124 133.699 11.4395 133.815 10.6263Z"
            fill="#802423" stroke="#050505" stroke-width="0" />
        <g id="section_11_full">
            <path id="Vector_19"
                d="M121.728 12.9822H126.178V38.1786C126.178 38.7646 126.202 40.5539 126.226 42.1951C126.238 43.0162 126.249 43.8007 126.258 44.3797C126.263 44.6694 126.266 44.9078 126.269 45.0736L126.272 45.2654L126.273 45.3156V45.3286V45.332C126.273 45.332 126.273 45.333 126.439 45.3303L126.273 45.332L126.274 45.3749L126.289 45.4026L126.196 45.4462L121.72 45.4295L121.729 22.7403L121.728 16.4401C121.728 15.8815 121.728 14.9753 121.728 14.2089V13.2249V12.9822Z"
                fill="#802423" />
            <path id="section_11"
                d="M126.273 45.333V45.3286V45.3156L126.272 45.2654L126.269 45.0736C126.266 44.9078 126.263 44.6694 126.258 44.3797C126.249 43.8007 126.238 43.0162 126.226 42.1951C126.202 40.5539 126.178 38.7646 126.178 38.1786V12.9822H121.728V13.2249V14.2089C121.728 14.9753 121.728 15.8815 121.728 16.4401L121.729 22.7403L121.72 45.4295L126.196 45.4462L126.289 45.4026L126.274 45.3749L126.273 45.333ZM126.273 45.333C126.273 45.333 126.273 45.333 126.439 45.3303L126.273 45.333Z"
                stroke="#050505" stroke-width="0.5" />
        </g>
        <path id="section_19"
            d="M235.53 39.3077L291.015 39.2847L290.976 45.4825L235.507 45.4352L235.435 39.7941C235.439 39.6633 235.446 39.5737 235.465 39.4908C235.478 39.4329 235.498 39.3753 235.53 39.3077Z"
            fill="#CE3729" stroke="#050505" stroke-width="0" />
        <path id="section_70"
            d="M92.1077 164L90 163.992L90.0216 111L93.9335 111.007L93.9952 111.2L94 163.994L92.1077 164Z" fill="#CE3729"
            stroke="#050505" stroke-width="0" />
        <path id="section_69"
            d="M95.4978 111.223C96.09 111.214 96.635 111.255 97 111.411L97.008 163.506L93.9878 163.512L93.8969 111.298C94.0787 111.292 94.2805 111.28 94.4912 111.267C94.5132 111.266 94.5352 111.265 94.5571 111.263C94.8601 111.245 95.1811 111.227 95.4978 111.223Z"
            fill="#F33517" stroke="#050505" stroke-width="0" />
        <path id="section_75"
            d="M76.9937 111.017H76.9947L79 111L78.9913 137.442L78.9815 156.167L78.9813 161.349C78.9813 161.592 78.9856 161.85 78.9901 162.107C78.9935 162.302 78.9969 162.498 78.9982 162.686C79.0012 163.101 78.9954 163.504 78.9634 163.884C78.806 163.972 78.6081 163.999 78.3961 164C78.2791 164.001 78.1609 163.994 78.0457 163.986L78.0282 163.985C77.92 163.979 77.8136 163.972 77.7171 163.972L75 163.985L75.0112 111.006L76.9937 111.017Z"
            fill="#EEC13F" stroke="#050505" stroke-width="0" />
        <path id="section_74"
            d="M78.7907 137.504L81.9818 137.456L81.9655 155.818V155.819L81.9189 163.413L78.8553 163.432L78.7907 137.504Z"
            fill="#802423" stroke="#050505" stroke-width="0" />
        <path id="section_73" d="M78.7903 137.171L78.7714 111.133L81.9968 111.117L81.9821 137.123L78.7903 137.171Z"
            fill="#3966B6" stroke="#050505" stroke-width="0" />
        <path id="section_62" d="M128.664 111.117L128.668 163.509L121.867 163.53L121.882 111.119L128.664 111.117Z"
            fill="#577BF4" stroke="#050505" stroke-width="0" />
        <path id="section_58" d="M150.336 130.686L153.324 130.685L153.325 150.322L150.329 150.329L150.336 130.686Z"
            fill="#577BF4" stroke="#050505" stroke-width="0" />
        <path id="section_59"
            d="M142.102 111.034C142.166 111.033 142.242 111.026 142.321 111.019C142.325 111.019 142.328 111.019 142.331 111.018C142.414 111.011 142.502 111.002 142.589 111C142.675 110.998 142.758 111.003 142.831 111.02C142.878 111.031 142.918 111.046 142.952 111.065L142.96 151.609L142.959 160.231C142.959 160.484 142.967 160.796 142.977 161.13L142.977 161.137C142.986 161.474 142.996 161.836 142.999 162.193C143.002 162.551 142.998 162.9 142.979 163.212C142.962 163.485 142.935 163.721 142.894 163.908C142.428 164.017 141.944 164.004 141.46 163.992C141.302 163.987 141.143 163.983 140.985 163.983L140.795 163.955L140.791 163.954H140.786L139 163.985L139.013 111.151L139.098 111.04L142.102 111.034Z"
            fill="#577BF4" stroke="#050505" stroke-width="0" />
        <g id="Vector_13_2">
            <path id="Vector_15_2"
                d="M135.94 111.146L136.198 110.953L141.44 110.947C141.879 110.946 142.695 110.832 143.075 111.034L143.09 151.284L143.088 159.82C143.087 160.814 143.329 162.736 142.926 163.613L142.913 163.458L142.877 111.159L139.432 111.193C139.305 112.608 139.425 114.119 139.436 115.542L139.459 123.731L139.449 150.886L139.432 160.374C139.43 161.253 139.19 162.945 139.504 163.702L139.17 163.673C139.298 162.563 139.228 161.394 139.228 160.274L139.127 152.359L139.225 124.787C139.237 120.289 138.999 115.678 139.289 111.195L135.94 111.146Z"
                fill="#3966B6" />
            <g id="Mask group_4">
                <g id="Mask group_5">
                    <mask id="mask2_38_380" style="mask-type:luminance" maskUnits="userSpaceOnUse" x="135" y="110"
                        width="9" height="54">
                        <g id="Group_6">
                            <g id="Group_4_2">
                                <path id="Vector_16_2"
                                    d="M135.94 111.146L136.198 110.953L141.44 110.947C141.879 110.946 142.695 110.832 143.075 111.034L143.09 151.284L143.088 159.82C143.087 160.814 143.329 162.736 142.926 163.613L142.913 163.458L142.877 111.159L139.432 111.193C139.305 112.608 139.425 114.119 139.436 115.542L139.459 123.731L139.449 150.886L139.432 160.374C139.43 161.253 139.19 162.945 139.504 163.702L139.17 163.673C139.298 162.563 139.228 161.394 139.228 160.274L139.127 152.359L139.225 124.787C139.237 120.289 138.999 115.678 139.289 111.195L135.94 111.146Z"
                                    fill="#D5D1D5" />
                            </g>
                        </g>
                    </mask>
                    <g mask="url(#mask2_38_380)">
                        <g id="Group_7">
                            <path id="Vector_17_2"
                                d="M135.94 111.146L135.74 110.879L134.957 111.465L135.935 111.479L135.94 111.146ZM136.198 110.953L136.197 110.62H136.087L135.998 110.687L136.198 110.953ZM143.075 111.034H143.408V110.835L143.232 110.741L143.075 111.034ZM142.926 163.613L142.594 163.641L142.7 164.902L143.229 163.752L142.926 163.613ZM142.913 163.458H142.58V163.472L142.581 163.486L142.913 163.458ZM142.877 111.159H143.21L143.209 110.823L142.873 110.826L142.877 111.159ZM139.432 111.193L139.429 110.86L139.127 110.863L139.1 111.163L139.432 111.193ZM139.436 115.542L139.769 115.541V115.539L139.436 115.542ZM139.432 160.374L139.765 160.375V160.374H139.432ZM139.504 163.702L139.476 164.033L140.022 164.081L139.812 163.574L139.504 163.702ZM139.17 163.673L138.839 163.635L138.8 163.975L139.141 164.004L139.17 163.673ZM139.228 160.274H139.561V160.269L139.228 160.274ZM139.127 152.359L138.794 152.358V152.361V152.363L139.127 152.359ZM139.289 111.195L139.621 111.217L139.644 110.868L139.294 110.863L139.289 111.195ZM136.139 111.413L136.397 111.22L135.998 110.687L135.74 110.879L136.139 111.413ZM136.198 111.286L141.441 111.28L141.44 110.614L136.197 110.62L136.198 111.286ZM141.441 111.28C141.561 111.28 141.704 111.272 141.845 111.264C141.99 111.257 142.138 111.249 142.283 111.247C142.429 111.246 142.563 111.25 142.678 111.265C142.797 111.281 142.874 111.304 142.918 111.328L143.232 110.741C143.086 110.663 142.919 110.625 142.764 110.605C142.605 110.584 142.437 110.579 142.276 110.581C142.115 110.583 141.953 110.592 141.81 110.599C141.662 110.607 141.539 110.614 141.44 110.614L141.441 111.28ZM142.742 111.034L142.757 151.284H143.423L143.408 111.034H142.742ZM142.757 151.284L142.755 159.82H143.421L143.423 151.284H142.757ZM142.755 159.82C142.755 160.078 142.77 160.394 142.786 160.725C142.803 161.06 142.82 161.415 142.825 161.765C142.83 162.116 142.823 162.455 142.791 162.755C142.758 163.059 142.703 163.302 142.624 163.474L143.229 163.752C143.352 163.485 143.417 163.159 143.452 162.825C143.488 162.488 143.496 162.119 143.491 161.756C143.486 161.392 143.468 161.025 143.451 160.692C143.435 160.356 143.421 160.059 143.421 159.82H142.755ZM143.258 163.585L143.245 163.43L142.581 163.486L142.594 163.641L143.258 163.585ZM143.246 163.458L143.21 111.159L142.544 111.16L142.58 163.458H143.246ZM142.873 110.826L139.429 110.86L139.435 111.526L142.88 111.492L142.873 110.826ZM139.1 111.163C138.972 112.599 139.092 114.155 139.103 115.545L139.769 115.539C139.758 114.082 139.639 112.617 139.764 111.222L139.1 111.163ZM139.103 115.543L139.126 123.732L139.792 123.731L139.769 115.541L139.103 115.543ZM139.126 123.732L139.116 150.886H139.782L139.792 123.731L139.126 123.732ZM139.116 150.885L139.099 160.373L139.765 160.374L139.782 150.886L139.116 150.885ZM139.099 160.373C139.099 160.581 139.084 160.842 139.066 161.138C139.048 161.43 139.027 161.753 139.017 162.073C139.006 162.392 139.005 162.716 139.028 163.012C139.051 163.304 139.098 163.593 139.197 163.829L139.812 163.574C139.753 163.433 139.713 163.226 139.692 162.961C139.672 162.7 139.672 162.403 139.682 162.095C139.693 161.787 139.713 161.475 139.731 161.179C139.749 160.887 139.765 160.606 139.765 160.375L139.099 160.373ZM139.533 163.37L139.199 163.341L139.141 164.004L139.476 164.033L139.533 163.37ZM139.501 163.711C139.632 162.576 139.561 161.366 139.561 160.274H138.895C138.895 161.422 138.964 162.55 138.839 163.635L139.501 163.711ZM139.561 160.269L139.46 152.355L138.794 152.363L138.895 160.278L139.561 160.269ZM139.46 152.36L139.558 124.788L138.892 124.785L138.794 152.358L139.46 152.36ZM139.558 124.788C139.57 120.264 139.332 115.687 139.621 111.217L138.956 111.174C138.666 115.669 138.904 120.313 138.892 124.785L139.558 124.788ZM139.294 110.863L135.945 110.813L135.935 111.479L139.284 111.528L139.294 110.863Z"
                                fill="#050505" />
                        </g>
                    </g>
                </g>
            </g>
        </g>
        <path id="Vector_14_2"
            d="M138.799 152.654V152.657L138.934 160.688C138.934 160.991 138.939 161.296 138.946 161.6C138.963 162.398 138.979 163.196 138.879 163.971L135 164L135.03 111L139 111.045C138.757 114.084 138.816 117.184 138.877 120.259C138.905 121.739 138.934 123.212 138.929 124.672L138.799 152.654Z"
            fill="#577BF4" stroke="#050505" stroke-width="0.5" />
        <path id="section_3" d="M1.53679 163.796L1.50592 63.4625L7.1339 63.4758L7.1276 163.796H1.53679Z" fill="#C7DB52"
            stroke="#050505" stroke-width="0" />
        <g id="outer_shell">
            <g id="Vector_10_2_2">
                <path id="Vector_12_2"
                    d="M292.304 189.621L292.291 190.697C292.209 190.75 292.137 190.824 292.045 190.856C291.824 190.933 291.233 190.854 290.984 190.854L287.655 190.848L270.805 190.841L222.414 190.84L198.272 190.832L198.179 190.97C197.876 191.466 198.072 198.696 198.075 199.878C197.633 199.053 198.005 192.249 197.971 190.836L197.855 190.848L197.871 191.017C198.008 192.594 197.616 194.304 197.896 195.857C197.932 196.058 197.911 196.158 197.876 196.353C197.823 196.655 197.829 196.974 197.819 197.28C197.653 195.71 197.754 194.052 197.748 192.471C197.746 191.857 197.817 191.144 197.692 190.543L198.075 190.09L291.101 190.109L291.468 189.989L291.441 152.166C291.436 151.842 291.48 151.56 291.267 151.307C291.029 150.528 291.127 149.577 291.124 148.766L291.113 144.365L291.12 126.497C291.128 122.56 290.887 118.507 291.114 114.583C291.131 114.298 291.213 114.018 291.305 113.749C291.567 113.443 291.451 111.86 291.458 111.375L291.587 111.377L291.7 110.405L291.747 84.7445C291.969 82.4907 291.808 80.0863 291.808 77.8179L291.804 64.6585L291.803 61.4214C291.803 61.0641 291.716 60.4012 291.802 60.0772C291.832 59.965 292.031 59.7439 292.105 59.6377L292.121 110.207L292.11 166.823L292.113 182.377L292.119 187.066C292.121 187.892 291.998 188.848 292.304 189.621ZM291.101 190.109L198.075 190.09L197.692 190.543C197.817 191.144 197.746 191.857 197.748 192.471C197.754 194.052 197.653 195.71 197.819 197.28C197.829 196.974 197.823 196.655 197.876 196.353C197.911 196.158 197.932 196.058 197.896 195.857C197.616 194.304 198.008 192.594 197.871 191.017L197.855 190.848L197.971 190.836C198.005 192.249 197.633 199.053 198.075 199.878C198.072 198.696 197.876 191.466 198.179 190.97L198.272 190.832C198.413 190.744 198.566 190.664 198.734 190.644C199.605 190.546 200.597 190.64 201.478 190.639L207.232 190.636L226.957 190.634L291.679 190.635V190.554H211.231C210.954 190.554 210.414 190.625 210.16 190.554C210.036 190.52 209.943 190.414 209.835 190.344C210.202 190.183 210.695 190.254 211.094 190.254L213.95 190.256L226.91 190.261L276.595 190.269L286.281 190.266C287.758 190.265 289.722 190.531 291.101 190.109Z"
                    fill="#080807" />
                <g id="Mask group_3_2">
                    <g id="Mask group_6">
                        <mask id="mask3_38_380" style="mask-type:luminance" maskUnits="userSpaceOnUse" x="197" y="59"
                            width="96" height="141">
                            <g id="Group_8">
                                <g id="Group_3_2">
                                    <path id="Vector_13_3"
                                        d="M292.304 189.621L292.291 190.697C292.209 190.75 292.137 190.824 292.045 190.856C291.824 190.933 291.233 190.854 290.984 190.854L287.655 190.848L270.805 190.841L222.414 190.84L198.272 190.832L198.179 190.97C197.876 191.466 198.072 198.696 198.075 199.878C197.633 199.053 198.005 192.249 197.971 190.836L197.855 190.848L197.871 191.017C198.008 192.594 197.616 194.304 197.896 195.857C197.932 196.058 197.911 196.158 197.876 196.353C197.823 196.655 197.829 196.974 197.819 197.28C197.653 195.71 197.754 194.052 197.748 192.471C197.746 191.857 197.817 191.144 197.692 190.543L198.075 190.09L291.101 190.109L291.468 189.989L291.441 152.166C291.436 151.842 291.48 151.56 291.267 151.307C291.029 150.528 291.127 149.577 291.124 148.766L291.113 144.365L291.12 126.497C291.128 122.56 290.887 118.507 291.114 114.583C291.131 114.298 291.213 114.018 291.305 113.749C291.567 113.443 291.451 111.86 291.458 111.375L291.587 111.377L291.7 110.405L291.747 84.7445C291.969 82.4907 291.808 80.0863 291.808 77.8179L291.804 64.6585L291.803 61.4214C291.803 61.0641 291.716 60.4012 291.802 60.0772C291.832 59.965 292.031 59.7439 292.105 59.6377L292.121 110.207L292.11 166.823L292.113 182.377L292.119 187.066C292.121 187.892 291.998 188.848 292.304 189.621ZM291.101 190.109L198.075 190.09L197.692 190.543C197.817 191.144 197.746 191.857 197.748 192.471C197.754 194.052 197.653 195.71 197.819 197.28C197.829 196.974 197.823 196.655 197.876 196.353C197.911 196.158 197.932 196.058 197.896 195.857C197.616 194.304 198.008 192.594 197.871 191.017L197.855 190.848L197.971 190.836C198.005 192.249 197.633 199.053 198.075 199.878C198.072 198.696 197.876 191.466 198.179 190.97L198.272 190.832C198.413 190.744 198.566 190.664 198.734 190.644C199.605 190.546 200.597 190.64 201.478 190.639L207.232 190.636L226.957 190.634L291.679 190.635V190.554H211.231C210.954 190.554 210.414 190.625 210.16 190.554C210.036 190.52 209.943 190.414 209.835 190.344C210.202 190.183 210.695 190.254 211.094 190.254L213.95 190.256L226.91 190.261L276.595 190.269L286.281 190.266C287.758 190.265 289.722 190.531 291.101 190.109Z"
                                        fill="#D5D1D5" />
                                </g>
                            </g>
                        </mask>
                        <g mask="url(#mask3_38_380)">
                            <g id="Group_9">
                                <path id="Vector_14_3"
                                    d="M198.179 190.97L198.041 190.878L198.039 190.881L198.037 190.884L198.179 190.97ZM198.075 199.878L197.928 199.957L198.242 199.878H198.075ZM197.971 190.836L198.137 190.832L198.133 190.651L197.954 190.67L197.971 190.836ZM197.855 190.848L197.838 190.682L197.675 190.699L197.69 190.863L197.855 190.848ZM197.819 197.28L197.653 197.298L197.985 197.286L197.819 197.28ZM197.692 190.543L197.565 190.435L197.512 190.497L197.529 190.577L197.692 190.543ZM198.075 190.09V189.923H197.998L197.948 189.982L198.075 190.09ZM198.134 190.739L198.041 190.878L198.317 191.063L198.41 190.925L198.134 190.739ZM198.037 190.884C198.001 190.943 197.98 191.028 197.964 191.108C197.948 191.196 197.934 191.305 197.922 191.431C197.898 191.684 197.88 192.016 197.868 192.4C197.844 193.169 197.84 194.159 197.846 195.168C197.857 197.199 197.907 199.28 197.909 199.878H198.242C198.24 199.295 198.19 197.17 198.179 195.166C198.173 194.158 198.177 193.173 198.201 192.411C198.213 192.029 198.23 191.705 198.253 191.463C198.265 191.342 198.278 191.244 198.292 191.17C198.299 191.133 198.305 191.105 198.312 191.084C198.318 191.062 198.322 191.055 198.321 191.057L198.037 190.884ZM198.222 199.799C198.183 199.727 198.143 199.561 198.11 199.291C198.079 199.03 198.057 198.696 198.044 198.31C198.016 197.539 198.02 196.57 198.036 195.58C198.069 193.609 198.154 191.542 198.137 190.832L197.804 190.84C197.821 191.542 197.737 193.584 197.703 195.575C197.687 196.566 197.683 197.542 197.711 198.322C197.725 198.712 197.747 199.056 197.78 199.331C197.812 199.596 197.856 199.822 197.928 199.957L198.222 199.799ZM197.954 190.67L197.838 190.682L197.873 191.013L197.988 191.001L197.954 190.67ZM197.69 190.863L197.705 191.032L198.037 191.002L198.021 190.832L197.69 190.863ZM197.705 191.032C197.772 191.806 197.71 192.612 197.664 193.437C197.618 194.256 197.588 195.089 197.732 195.887L198.06 195.828C197.924 195.073 197.95 194.274 197.996 193.455C198.042 192.643 198.106 191.806 198.037 191.002L197.705 191.032ZM197.732 195.887C197.763 196.056 197.747 196.13 197.713 196.325L198.04 196.382C198.075 196.186 198.101 196.061 198.06 195.828L197.732 195.887ZM197.713 196.325C197.657 196.641 197.663 196.981 197.652 197.274L197.985 197.286C197.996 196.968 197.99 196.668 198.04 196.382L197.713 196.325ZM197.984 197.263C197.819 195.703 197.921 194.067 197.914 192.471L197.581 192.472C197.588 194.037 197.486 195.716 197.653 197.298L197.984 197.263ZM197.914 192.471C197.914 192.32 197.918 192.163 197.922 192C197.927 191.838 197.931 191.67 197.932 191.503C197.934 191.17 197.921 190.827 197.855 190.509L197.529 190.577C197.588 190.86 197.601 191.175 197.599 191.501C197.598 191.664 197.594 191.828 197.589 191.991C197.585 192.153 197.581 192.316 197.581 192.472L197.914 192.471ZM197.819 190.651L198.202 190.197L197.948 189.982L197.565 190.435L197.819 190.651ZM198.075 190.256L291.101 190.276V189.943L198.075 189.923V190.256ZM292.304 189.621L292.637 189.625L292.638 189.559L292.614 189.498L292.304 189.621ZM292.291 190.697L292.472 190.977L292.622 190.88L292.624 190.701L292.291 190.697ZM198.272 190.832L198.096 190.549L197.109 191.165H198.272V190.832ZM291.101 190.109L291.199 190.427L291.202 190.426L291.205 190.425L291.101 190.109ZM291.468 189.989L291.572 190.305L291.802 190.23L291.801 189.988L291.468 189.989ZM291.441 152.166H291.774V152.163V152.161L291.441 152.166ZM291.267 151.307L290.949 151.404L290.969 151.469L291.012 151.521L291.267 151.307ZM291.305 113.749L291.053 113.532L291.011 113.58L290.99 113.641L291.305 113.749ZM291.458 111.375L291.462 111.042L291.13 111.039L291.125 111.37L291.458 111.375ZM291.587 111.377L291.584 111.71L291.884 111.713L291.918 111.415L291.587 111.377ZM291.7 110.405L292.031 110.444L292.033 110.425V110.406L291.7 110.405ZM291.747 84.7445L291.416 84.7119L291.414 84.7279V84.7438L291.747 84.7445ZM292.105 59.6377H292.438L292.437 58.5673L291.83 59.4489L292.105 59.6377ZM291.679 190.635V190.968H292.012V190.635H291.679ZM291.679 190.554H292.012V190.221H291.679V190.554ZM210.16 190.554L210.25 190.234L210.249 190.233L210.16 190.554ZM209.835 190.345L209.701 190.04L209.134 190.289L209.654 190.625L209.835 190.345ZM291.971 189.617L291.959 190.693L292.624 190.701L292.637 189.625L291.971 189.617ZM292.111 190.417C292.08 190.437 292.053 190.457 292.031 190.474C292.006 190.493 291.993 190.503 291.976 190.515C291.944 190.539 291.935 190.542 291.936 190.541L292.154 191.171C292.248 191.138 292.321 191.088 292.368 191.053C292.43 191.008 292.44 190.997 292.472 190.977L292.111 190.417ZM291.936 190.541C291.937 190.541 291.926 190.545 291.901 190.548C291.877 190.551 291.846 190.554 291.808 190.555C291.732 190.558 291.641 190.556 291.541 190.551C291.363 190.543 291.116 190.521 290.984 190.521L290.983 191.187C291.1 191.187 291.274 191.205 291.509 191.216C291.616 191.222 291.729 191.225 291.834 191.221C291.931 191.217 292.05 191.207 292.154 191.171L291.936 190.541ZM290.984 190.521L287.655 190.515L287.654 191.181L290.983 191.187L290.984 190.521ZM287.655 190.515L270.805 190.508V191.174L287.655 191.181V190.515ZM270.805 190.508L222.414 190.507V191.173L270.805 191.174V190.508ZM222.414 190.507L198.272 190.499V191.165L222.414 191.173V190.507ZM291.205 190.425L291.572 190.305L291.365 189.672L290.998 189.793L291.205 190.425ZM291.801 189.988L291.774 152.166H291.108L291.135 189.989L291.801 189.988ZM291.774 152.161C291.772 152.037 291.781 151.836 291.763 151.672C291.741 151.483 291.681 151.282 291.522 151.093L291.012 151.521C291.066 151.585 291.09 151.651 291.101 151.748C291.115 151.87 291.105 151.971 291.108 152.171L291.774 152.161ZM291.586 151.209C291.48 150.865 291.446 150.47 291.44 150.044C291.438 149.833 291.442 149.619 291.447 149.403C291.452 149.19 291.458 148.973 291.457 148.765L290.791 148.767C290.792 148.964 290.787 149.171 290.781 149.388C290.776 149.603 290.772 149.828 290.774 150.053C290.78 150.5 290.816 150.97 290.949 151.404L291.586 151.209ZM291.457 148.765L291.446 144.364L290.78 144.365L290.791 148.767L291.457 148.765ZM291.446 144.365L291.453 126.497H290.787L290.78 144.365H291.446ZM291.453 126.498C291.461 122.531 291.22 118.516 291.447 114.603L290.782 114.564C290.554 118.498 290.795 122.59 290.787 126.497L291.453 126.498ZM291.447 114.603C291.46 114.364 291.53 114.121 291.62 113.856L290.99 113.641C290.896 113.915 290.801 114.231 290.782 114.564L291.447 114.603ZM291.558 113.965C291.636 113.875 291.679 113.765 291.706 113.674C291.734 113.577 291.754 113.469 291.769 113.36C291.797 113.141 291.808 112.884 291.81 112.632C291.812 112.378 291.807 112.12 291.801 111.899C291.795 111.672 291.789 111.492 291.791 111.381L291.125 111.37C291.123 111.5 291.129 111.7 291.135 111.916C291.141 112.137 291.146 112.385 291.144 112.626C291.142 112.869 291.132 113.095 291.108 113.274C291.097 113.363 291.082 113.433 291.067 113.484C291.051 113.54 291.041 113.546 291.053 113.532L291.558 113.965ZM291.455 111.708L291.584 111.71L291.591 111.044L291.462 111.042L291.455 111.708ZM291.918 111.415L292.031 110.444L291.369 110.367L291.257 111.338L291.918 111.415ZM292.033 110.406L292.08 84.7452L291.414 84.7438L291.367 110.405L292.033 110.406ZM292.078 84.7771C292.302 82.502 292.141 80.0544 292.141 77.8179H291.475C291.475 80.1183 291.636 82.4794 291.416 84.7119L292.078 84.7771ZM292.141 77.8179L292.137 64.6585H291.471L291.475 77.8179H292.141ZM292.137 64.6585L292.136 61.4214H291.47L291.471 64.6585H292.137ZM292.136 61.4214C292.136 61.2353 292.113 60.9486 292.103 60.7222C292.092 60.4645 292.096 60.268 292.124 60.1632L291.481 59.9913C291.422 60.2104 291.427 60.5074 291.437 60.7515C291.449 61.0269 291.47 61.2503 291.47 61.4214H292.136ZM292.124 60.1632C292.118 60.1858 292.113 60.1858 292.134 60.1535C292.15 60.1275 292.173 60.0949 292.203 60.0566C292.232 60.0183 292.262 59.9807 292.292 59.9414C292.321 59.9051 292.354 59.8632 292.379 59.8265L291.83 59.4489C291.798 59.4959 291.752 59.5488 291.672 59.6537C291.639 59.698 291.602 59.7486 291.57 59.7986C291.542 59.8428 291.502 59.9128 291.481 59.9913L292.124 60.1632ZM291.772 59.6377L291.788 110.207H292.454L292.438 59.6377H291.772ZM291.788 110.207L291.777 166.823H292.443L292.454 110.207H291.788ZM291.777 166.823L291.78 182.377H292.446L292.443 166.823H291.777ZM291.78 182.377L291.786 187.066H292.452L292.446 182.377H291.78ZM291.786 187.066C291.787 187.266 291.779 187.475 291.773 187.695C291.766 187.913 291.76 188.141 291.765 188.369C291.773 188.823 291.82 189.302 291.995 189.744L292.614 189.498C292.483 189.167 292.438 188.782 292.43 188.357C292.427 188.147 292.432 187.933 292.439 187.715C292.445 187.5 292.453 187.279 292.452 187.066H291.786ZM198.448 191.115C198.581 191.032 198.681 190.986 198.772 190.975L198.697 190.314C198.452 190.342 198.246 190.456 198.096 190.549L198.448 191.115ZM198.772 190.975C199.184 190.929 199.631 190.927 200.095 190.938C200.548 190.949 201.034 190.972 201.478 190.972V190.306C201.042 190.306 200.59 190.283 200.11 190.272C199.64 190.261 199.156 190.262 198.697 190.314L198.772 190.975ZM201.478 190.972L207.233 190.968L207.232 190.303L201.478 190.306V190.972ZM207.233 190.968L226.957 190.967V190.301L207.232 190.303L207.233 190.968ZM226.957 190.967L291.679 190.968V190.302L226.957 190.301V190.967ZM292.012 190.635V190.554H291.346V190.635H292.012ZM291.679 190.221H211.231V190.887H291.679V190.221ZM211.231 190.221C211.085 190.221 210.848 190.241 210.672 190.248C210.463 190.257 210.317 190.253 210.25 190.234L210.07 190.875C210.257 190.927 210.508 190.922 210.701 190.914C210.928 190.904 211.1 190.887 211.231 190.887V190.221ZM210.249 190.233C210.25 190.234 210.246 190.233 210.237 190.227C210.226 190.222 210.212 190.212 210.192 190.197C210.169 190.179 210.152 190.165 210.119 190.14C210.091 190.118 210.055 190.09 210.015 190.064L209.654 190.625C209.697 190.652 209.712 190.668 209.791 190.728C209.852 190.775 209.946 190.841 210.07 190.875L210.249 190.233ZM209.969 190.649C210.09 190.596 210.251 190.574 210.456 190.572C210.557 190.57 210.659 190.574 210.768 190.578C210.873 190.582 210.986 190.587 211.094 190.587L211.095 189.921C211.003 189.921 210.905 189.917 210.793 189.913C210.685 189.908 210.568 189.904 210.449 189.906C210.216 189.908 209.947 189.932 209.701 190.04L209.969 190.649ZM211.094 190.587L213.95 190.589V189.923L211.094 189.921V190.587ZM213.95 190.589L226.91 190.594V189.928L213.95 189.923V190.589ZM226.91 190.594L276.595 190.602V189.936L226.91 189.928V190.594ZM276.595 190.602L286.281 190.599V189.933L276.595 189.936V190.602ZM286.281 190.599C286.642 190.599 287.035 190.615 287.449 190.633C287.86 190.651 288.293 190.671 288.722 190.678C289.576 190.692 290.456 190.655 291.199 190.427L291.004 189.791C290.367 189.986 289.575 190.026 288.733 190.013C288.315 190.006 287.893 189.986 287.478 189.968C287.066 189.95 286.659 189.933 286.281 189.933V190.599Z"
                                    fill="#050505" />
                            </g>
                        </g>
                    </g>
                </g>
            </g>
            <path id="Vector_8_2"
                d="M198.272 190.832L198.27 200.25L43.9078 200.254L43.9088 206.908C43.9084 207.437 44.0446 208.649 43.7746 209.054L43.5342 209.066C43.2588 208.285 43.406 207.034 43.403 206.192C43.395 204.076 43.1709 201.608 43.5012 199.529L59.1525 199.47H88.3341L177.844 199.482C179.705 199.483 196.979 199.692 197.544 199.409L197.542 193.092C197.544 192.384 197.39 191.155 197.692 190.543C197.817 191.144 197.746 191.857 197.748 192.471C197.754 194.052 197.653 195.71 197.819 197.28C197.829 196.974 197.823 196.655 197.876 196.354C197.911 196.158 197.932 196.059 197.896 195.857C197.616 194.304 198.008 192.594 197.871 191.017L197.855 190.848L197.971 190.836C198.005 192.249 197.633 199.054 198.075 199.878C198.072 198.696 197.876 191.466 198.179 190.97L198.272 190.832Z"
                fill="#080807" />
            <path id="Vector_12_2_2"
                d="M291.101 190.109C289.722 190.531 287.758 190.265 286.281 190.266L276.595 190.269L226.91 190.261L213.95 190.256L211.094 190.254C210.695 190.254 210.202 190.183 209.835 190.344C209.943 190.414 210.036 190.52 210.16 190.554C210.414 190.625 210.954 190.554 211.231 190.554H291.679V190.635L226.957 190.634L207.232 190.636L201.478 190.639C200.597 190.64 199.605 190.546 198.734 190.644C198.566 190.664 198.413 190.744 198.272 190.832L198.179 190.97C197.876 191.466 198.072 198.696 198.075 199.878C197.633 199.053 198.005 192.249 197.971 190.836L197.855 190.848L197.871 191.017C198.008 192.594 197.616 194.304 197.896 195.857C197.932 196.058 197.911 196.158 197.876 196.353C197.823 196.655 197.829 196.974 197.819 197.28C197.653 195.71 197.754 194.052 197.748 192.471C197.746 191.857 197.817 191.144 197.692 190.543L198.075 190.09L291.101 190.109Z"
                fill="#080807" fill-opacity="0.988235" />
            <g id="Vector_15_2_2">
                <path id="Vector_18_2"
                    d="M0.827318 49.191L0.820658 213.432C1.98969 213.436 8.0423 213.217 8.6227 213.632L8.585 214.071C7.7756 214.291 6.6702 214.166 5.81944 214.168L0.0947981 214.173L0.0924683 41.705L83.657 41.5425L83.6546 0.675871L184.786 0.672241C184.785 4.60341 184.541 37.3512 184.865 38.0384L260.742 38.0391H282.301L288.235 38.0414C289.389 38.0421 290.62 37.9542 291.76 38.128C292.102 38.5082 292.27 38.6607 292.312 39.1981C292.445 40.8929 292.324 42.6989 292.324 44.4026L292.321 55.2096L292.32 89.0304L292.304 189.621C291.998 188.848 292.121 187.892 292.119 187.066L292.113 182.377L292.11 166.823L292.122 110.207L292.105 59.6377C292.031 59.7439 291.832 59.965 291.802 60.0772C291.716 60.4012 291.803 61.0641 291.803 61.4214L291.804 64.6585L291.808 77.8179C291.808 80.0863 291.969 82.4907 291.747 84.7445L291.655 84.7561L291.561 54.3306C291.561 52.7404 291.86 39.6799 291.495 39.1571L291.182 39.1182L235.429 39.1412C235.297 39.3766 235.277 39.5237 235.268 39.7921L235.343 45.6016L234.761 45.6839L198.212 45.6573L188.384 45.6603C187.003 45.6609 185.257 45.4671 183.926 45.7392C181.662 46.0318 179.131 45.8204 176.836 45.8197V8.3405L137.306 8.3139L90.7987 8.2835L90.795 37.7374L90.7944 45.6426C90.7937 46.7907 90.9392 48.1851 90.7537 49.3065C89.928 49.5596 88.7909 49.4294 87.9226 49.4287L82.2941 49.4237L71.4162 49.2446C69.1917 49.2423 66.7547 49.2446 64.5935 49.2446L46.0737 49.1644L27.0921 49.1783L0.827318 49.191Z"
                    fill="#1B1A1B" />
                <g id="Mask group_5_2">
                    <g id="Mask group_7">
                        <mask id="mask4_38_380" style="mask-type:luminance" maskUnits="userSpaceOnUse" x="0" y="0"
                            width="293" height="215">
                            <g id="Group_10">
                                <g id="Group_5_2">
                                    <path id="Vector_19_2"
                                        d="M0.827318 49.191L0.820658 213.432C1.98969 213.436 8.0423 213.217 8.6227 213.632L8.585 214.071C7.7756 214.291 6.6702 214.166 5.81944 214.168L0.0947981 214.173L0.0924683 41.705L83.657 41.5425L83.6546 0.675871L184.786 0.672241C184.785 4.60341 184.541 37.3512 184.865 38.0384L260.742 38.0391H282.301L288.235 38.0414C289.389 38.0421 290.62 37.9542 291.76 38.128C292.102 38.5082 292.27 38.6607 292.312 39.1981C292.445 40.8929 292.324 42.6989 292.324 44.4026L292.321 55.2096L292.32 89.0304L292.304 189.621C291.998 188.848 292.121 187.892 292.119 187.066L292.113 182.377L292.11 166.823L292.122 110.207L292.105 59.6377C292.031 59.7439 291.832 59.965 291.802 60.0772C291.716 60.4012 291.803 61.0641 291.803 61.4214L291.804 64.6585L291.808 77.8179C291.808 80.0863 291.969 82.4907 291.747 84.7445L291.655 84.7561L291.561 54.3306C291.561 52.7404 291.86 39.6799 291.495 39.1571L291.182 39.1182L235.429 39.1412C235.297 39.3766 235.277 39.5237 235.268 39.7921L235.343 45.6016L234.761 45.6839L198.212 45.6573L188.384 45.6603C187.003 45.6609 185.257 45.4671 183.926 45.7392C181.662 46.0318 179.131 45.8204 176.836 45.8197V8.3405L137.306 8.3139L90.7987 8.2835L90.795 37.7374L90.7944 45.6426C90.7937 46.7907 90.9392 48.1851 90.7537 49.3065C89.928 49.5596 88.7909 49.4294 87.9226 49.4287L82.2941 49.4237L71.4162 49.2446C69.1917 49.2423 66.7547 49.2446 64.5935 49.2446L46.0737 49.1644L27.0921 49.1783L0.827318 49.191Z"
                                        fill="#D5D1D5" />
                                </g>
                            </g>
                        </mask>
                        <g mask="url(#mask4_38_380)">
                            <g id="Group_11">
                                <path id="section_wall"
                                    d="M0.827332 49.191L0.827171 48.858H0.494371V49.191H0.827332ZM0.820682 213.432H0.487711V213.763L0.819541 213.764L0.820682 213.432ZM8.6227 213.632L8.9544 213.66L8.9706 213.471L8.8161 213.361L8.6227 213.632ZM8.585 214.071L8.6722 214.392L8.8969 214.332L8.9168 214.099L8.585 214.071ZM0.0948215 214.173H-0.238148V214.507L0.0951214 214.506L0.0948215 214.173ZM0.0924816 41.705L0.0918512 41.372L-0.240479 41.3727V41.705H0.0924816ZM83.657 41.5425L83.6576 41.8755L83.9899 41.8748V41.5425H83.657ZM83.6546 0.675894V0.342925H83.3217V0.675894H83.6546ZM184.786 0.672265L185.119 0.672364V0.339294H184.786V0.672265ZM184.865 38.0384L184.564 38.1802L184.654 38.3714H184.865V38.0384ZM291.76 38.128L292.007 37.9052L291.928 37.8167L291.81 37.7987L291.76 38.128ZM292.304 189.621L291.995 189.744L292.637 189.621H292.304ZM292.105 59.6377H292.438L292.437 58.5673L291.83 59.4489L292.105 59.6377ZM291.747 84.7445L291.789 85.0748L292.052 85.0415L292.078 84.7771L291.747 84.7445ZM291.655 84.7562L291.322 84.7572L291.323 85.1337L291.696 85.0865L291.655 84.7562ZM291.495 39.1572L291.768 38.9664L291.683 38.8452L291.536 38.8269L291.495 39.1572ZM291.182 39.1182L291.223 38.7879L291.203 38.7852H291.182V39.1182ZM235.429 39.1412V38.8082H235.233L235.138 38.9787L235.429 39.1412ZM235.268 39.7921L234.936 39.7805L234.935 39.7885V39.7965L235.268 39.7921ZM235.343 45.6017L235.389 45.9313L235.679 45.8903L235.676 45.5973L235.343 45.6017ZM234.761 45.6839V46.0169H234.784L234.808 46.0135L234.761 45.6839ZM183.926 45.7392L183.969 46.0695L183.98 46.0678L183.992 46.0655L183.926 45.7392ZM176.836 45.8198H176.503V46.1527H176.836V45.8198ZM176.836 8.3405H177.169V8.0077L176.837 8.0075L176.836 8.3405ZM90.7987 8.2835L90.799 7.9505L90.4657 7.9503V8.2834L90.7987 8.2835ZM90.7538 49.3065L90.8513 49.6249L91.0488 49.5646L91.0824 49.3608L90.7538 49.3065ZM82.2942 49.4238L82.2888 49.7567H82.2912H82.2938L82.2942 49.4238ZM71.4162 49.2446L71.4216 48.9117H71.4192H71.4166L71.4162 49.2446ZM64.5935 49.2446L64.5922 49.5776H64.5935V49.2446ZM46.0737 49.1644L46.0751 48.8314H46.0734L46.0737 49.1644ZM0.494371 49.191L0.487711 213.432H1.15364L1.1603 49.191H0.494371ZM0.819541 213.764C1.11655 213.765 1.72038 213.753 2.45732 213.739C3.19787 213.726 4.07989 213.712 4.94286 213.711C5.807 213.71 6.6468 213.721 7.3043 213.758C7.6337 213.777 7.9106 213.802 8.1191 213.833C8.2235 213.849 8.3046 213.866 8.3635 213.882C8.4297 213.9 8.4415 213.911 8.4292 213.903L8.8161 213.361C8.7313 213.3 8.6278 213.264 8.541 213.24C8.4469 213.214 8.3373 213.193 8.2184 213.175C7.9802 213.139 7.6799 213.113 7.342 213.094C6.6649 213.055 5.8097 213.044 4.942 213.045C4.07316 213.046 3.18658 213.06 2.44527 213.073C1.70046 213.087 1.10932 213.1 0.821811 213.099L0.819541 213.764ZM8.2909 213.603L8.2533 214.043L8.9168 214.099L8.9544 213.66L8.2909 213.603ZM8.4979 213.75C8.1388 213.847 7.6977 213.872 7.2201 213.868C6.9835 213.866 6.745 213.858 6.5079 213.85C6.2729 213.842 6.0383 213.835 5.81869 213.835L5.81975 214.501C6.02543 214.501 6.2486 214.508 6.4854 214.516C6.7202 214.524 6.9681 214.532 7.2153 214.534C7.7056 214.538 8.2218 214.515 8.6722 214.392L8.4979 213.75ZM5.81869 213.835L0.0945215 213.84L0.0951214 214.506L5.81975 214.501L5.81869 213.835ZM0.427782 214.173L0.425451 41.705H-0.240479L-0.238148 214.173H0.427782ZM0.0931516 42.038L83.6576 41.8755L83.6563 41.2096L0.0918512 41.372L0.0931516 42.038ZM83.9899 41.5425L83.9876 0.675854L83.3217 0.675894L83.324 41.5425H83.9899ZM83.6546 1.00885L184.786 1.00522V0.339294L83.6546 0.342925V1.00885ZM184.453 0.672164C184.453 2.63874 184.391 11.8026 184.371 20.571C184.36 24.9533 184.36 29.2354 184.383 32.4653C184.394 34.0798 184.411 35.4333 184.436 36.4052C184.448 36.8907 184.462 37.2839 184.478 37.5679C184.486 37.7094 184.495 37.8276 184.505 37.9182C184.51 37.9635 184.516 38.0058 184.523 38.0427C184.528 38.0707 184.539 38.127 184.564 38.1802L185.166 37.8966C185.181 37.9282 185.182 37.9475 185.178 37.9229C185.175 37.9079 185.171 37.8826 185.167 37.8456C185.159 37.7717 185.151 37.6665 185.143 37.5296C185.127 37.2563 185.113 36.8717 185.101 36.3882C185.077 35.4226 185.06 34.0741 185.049 32.4606C185.026 29.234 185.026 24.9545 185.037 20.5726C185.057 11.8126 185.119 2.63691 185.119 0.672364L184.453 0.672164ZM184.865 38.3714L260.742 38.372V37.7061L184.865 37.7054V38.3714ZM260.742 38.372H282.301V37.7061H260.742V38.372ZM282.301 38.372L288.235 38.3744L288.236 37.7084L282.301 37.7061V38.372ZM288.235 38.3744C289.423 38.375 290.603 38.2885 291.71 38.4573L291.81 37.7987C290.637 37.6199 289.355 37.7091 288.236 37.7084L288.235 38.3744ZM291.512 38.3507C291.697 38.5558 291.793 38.6571 291.862 38.7733C291.92 38.8715 291.963 38.9913 291.98 39.2241L292.644 39.1721C292.621 38.8675 292.558 38.6424 292.436 38.435C292.324 38.2455 292.165 38.0804 292.007 37.9052L291.512 38.3507ZM291.98 39.2241C292.112 40.9029 291.991 42.6663 291.991 44.4027H292.657C292.657 42.7315 292.778 40.8829 292.644 39.1721L291.98 39.2241ZM291.991 44.4027L291.988 55.2097H292.654L292.657 44.4027H291.991ZM291.988 55.2097L291.987 89.0304H292.653L292.654 55.2097H291.988ZM291.987 89.0304L291.972 189.621H292.637L292.653 89.0304H291.987ZM292.614 189.498C292.483 189.167 292.438 188.782 292.43 188.357C292.427 188.147 292.432 187.933 292.439 187.715C292.445 187.5 292.453 187.279 292.452 187.065L291.786 187.066C291.787 187.266 291.779 187.475 291.773 187.695C291.766 187.913 291.76 188.141 291.765 188.369C291.773 188.823 291.82 189.302 291.995 189.744L292.614 189.498ZM292.452 187.065L292.446 182.377H291.78L291.786 187.066L292.452 187.065ZM292.446 182.377L292.443 166.823H291.777L291.78 182.377H292.446ZM292.443 166.823L292.455 110.207H291.789L291.777 166.823H292.443ZM292.455 110.207L292.438 59.6377H291.772L291.789 110.207H292.455ZM291.83 59.4489C291.798 59.4959 291.752 59.5488 291.672 59.6537C291.639 59.698 291.602 59.7483 291.57 59.7986C291.542 59.8428 291.502 59.9128 291.481 59.9913L292.124 60.1632C292.118 60.1858 292.113 60.1858 292.134 60.1535C292.15 60.1275 292.173 60.0949 292.203 60.0566C292.232 60.0183 292.262 59.9807 292.292 59.9414C292.321 59.9051 292.354 59.8632 292.379 59.8265L291.83 59.4489ZM291.481 59.9913C291.422 60.2104 291.427 60.5074 291.437 60.7515C291.449 61.0269 291.47 61.2503 291.47 61.4214H292.136C292.136 61.2353 292.113 60.9486 292.103 60.7222C292.092 60.4645 292.096 60.268 292.124 60.1632L291.481 59.9913ZM291.47 61.4214L291.471 64.6585H292.137L292.136 61.4214H291.47ZM291.471 64.6585L291.475 77.8179H292.141L292.137 64.6585H291.471ZM291.475 77.8179C291.475 80.1183 291.636 82.4794 291.416 84.7119L292.078 84.7771C292.302 82.502 292.141 80.0544 292.141 77.8179H291.475ZM291.705 84.4142L291.613 84.4259L291.696 85.0865L291.789 85.0748L291.705 84.4142ZM291.988 84.7552L291.894 54.3296L291.228 54.3306L291.322 84.7572L291.988 84.7552ZM291.894 54.3296C291.894 53.5335 291.969 49.8866 291.998 46.3465C292.013 44.5811 292.016 42.8464 291.992 41.5192C291.981 40.8559 291.963 40.2906 291.935 39.8724C291.922 39.6639 291.905 39.4861 291.886 39.349C291.876 39.2807 291.864 39.2164 291.85 39.1605C291.839 39.1155 291.817 39.036 291.768 38.9664L291.222 39.348C291.196 39.311 291.196 39.2887 291.205 39.324C291.211 39.348 291.218 39.3869 291.226 39.4435C291.243 39.5557 291.257 39.7139 291.271 39.9157C291.297 40.3179 291.315 40.8709 291.327 41.5309C291.35 42.8491 291.347 44.5768 291.332 46.3408C291.303 49.8593 291.228 53.5365 291.228 54.3306L291.894 54.3296ZM291.536 38.8269L291.223 38.7879L291.141 39.4485L291.454 39.4875L291.536 38.8269ZM291.182 38.7852L235.429 38.8082V39.4741L291.182 39.4512V38.7852ZM235.138 38.9787C235.06 39.1179 235.009 39.2437 234.978 39.3809C234.948 39.5131 234.94 39.6436 234.936 39.7805L235.601 39.8038C235.605 39.6723 235.612 39.595 235.627 39.5278C235.641 39.4655 235.666 39.3999 235.719 39.3037L235.138 38.9787ZM234.935 39.7965L235.01 45.606L235.676 45.5973L235.601 39.7878L234.935 39.7965ZM235.296 45.272L234.714 45.3543L234.808 46.0135L235.389 45.9313L235.296 45.272ZM234.761 45.3509L198.213 45.3243L198.212 45.9902L234.761 46.0169V45.3509ZM198.213 45.3243L188.384 45.3273V45.9932L198.212 45.9902L198.213 45.3243ZM188.384 45.3273C187.69 45.3276 186.946 45.28 186.142 45.265C185.362 45.2507 184.562 45.2694 183.859 45.4129L183.992 46.0655C184.62 45.937 185.359 45.9166 186.13 45.931C186.878 45.9446 187.697 45.9936 188.384 45.9932V45.3273ZM183.883 45.4089C181.647 45.6979 179.172 45.4875 176.836 45.4868V46.1527C179.089 46.1534 181.677 46.3658 183.969 46.0695L183.883 45.4089ZM177.169 45.8198V8.3405H176.503V45.8198H177.169ZM176.837 8.0075L137.306 7.9809L137.305 8.6469L176.836 8.6734L176.837 8.0075ZM137.306 7.9809L90.799 7.9505L90.7984 8.6164L137.305 8.6469L137.306 7.9809ZM90.4657 8.2834L90.4621 37.7374H91.128L91.1317 8.2835L90.4657 8.2834ZM90.4621 37.7374L90.4614 45.6426L91.1273 45.643L91.128 37.7374H90.4621ZM90.4614 45.6426C90.4611 46.2176 90.4977 46.8799 90.5104 47.4916C90.5233 48.1195 90.5127 48.7232 90.4251 49.2523L91.0824 49.3608C91.1803 48.7685 91.1896 48.1142 91.1763 47.4776C91.1626 46.8246 91.127 46.216 91.1273 45.643L90.4614 45.6426ZM90.6562 48.9882C90.2929 49.0994 89.8431 49.1307 89.3546 49.1297C89.1129 49.1294 88.8688 49.1211 88.6268 49.1128C88.3867 49.1044 88.1466 49.0961 87.9229 49.0958L87.9222 49.7617C88.1327 49.7617 88.3604 49.77 88.6038 49.7784C88.8445 49.7867 89.0993 49.7953 89.3533 49.7957C89.8571 49.7967 90.3888 49.7667 90.8513 49.6249L90.6562 48.9882ZM87.9229 49.0958L82.2945 49.0908L82.2938 49.7567L87.9222 49.7617L87.9229 49.0958ZM82.2995 49.0908L71.4216 48.9117L71.4109 49.5776L82.2888 49.7567L82.2995 49.0908ZM71.4166 48.9117C69.1917 48.9093 66.7544 48.9117 64.5935 48.9117V49.5776C66.7551 49.5776 69.1917 49.5753 71.4159 49.5776L71.4166 48.9117ZM64.5948 48.9117L46.0751 48.8314L46.0724 49.4973L64.5922 49.5776L64.5948 48.9117ZM46.0734 48.8314L27.0919 48.8454L27.0923 49.5113L46.0741 49.4973L46.0734 48.8314ZM27.0919 48.8454L0.827171 48.858L0.827501 49.524L27.0923 49.5113L27.0919 48.8454Z"
                                    fill="#050505" />
                            </g>
                        </g>
                    </g>
                </g>
            </g>
        </g>
        <path id="Vector_16_2_2"
            d="M292.118 39.8384L292.125 45.7848L291.945 45.8647C291.801 45.564 291.815 45.2767 291.804 44.9494L291.815 41.2149C291.816 41.0131 291.75 40.3062 291.824 40.1504C291.885 40.0212 292.02 39.9423 292.118 39.8384Z"
            fill="#080807" />
        <path id="section_6"
            d="M46.2519 42.7505L64.5299 42.7628L64.5342 47.4103C64.5339 47.5412 64.5395 47.687 64.5452 47.8362L64.5459 47.8605C64.5519 48.02 64.5579 48.1838 64.5575 48.3453C64.5569 48.624 64.5372 48.8787 64.4769 49.0775L46.2405 48.9985L46.2519 42.7505Z"
            fill="#802423" stroke="#050505" stroke-width="0" />
        <path id="section_5"
            d="M33.2166 42.7522L45.9189 42.7505L45.9075 48.9979L27.2592 49.0119L27.2817 42.7625C28.5655 42.6403 29.9353 42.6782 31.2884 42.7159C31.9387 42.7342 32.5853 42.7522 33.2166 42.7522Z"
            fill="#3966B6" stroke="#050505" stroke-width="0" />
        <path id="section_7"
            d="M64.7696 42.7825L84.3721 42.7948L84.3768 47.4416C84.3765 47.5721 84.3825 47.7187 84.3884 47.8675L84.3895 47.8921C84.3958 48.0513 84.4021 48.2148 84.4018 48.3763C84.4011 48.6559 84.3798 48.9103 84.3149 49.1084L64.7573 49.0292L64.7696 42.7825Z"
            fill="#6B2F9E" stroke="#050505" stroke-width="0" />
        <path id="section_4"
            d="M1.09426 42.6293L26.9486 42.7775L26.9262 49.0119L0.992539 49.0245C0.989849 48.8114 0.983019 48.5114 0.974999 48.1575C0.972299 48.04 0.969499 47.9168 0.966669 47.7889C0.952689 47.1569 0.937869 46.4051 0.934539 45.6669C0.931179 44.9281 0.939339 44.2056 0.971069 43.6315C0.986949 43.3445 1.00856 43.0975 1.03696 42.9057C1.05118 42.8098 1.06669 42.7302 1.08324 42.6679C1.087 42.6536 1.09067 42.641 1.09426 42.6293Z"
            fill="#C7DB52" stroke="#050505" stroke-width="0" />
        <path id="section_18"
            d="M186.139 45.4315C185.436 45.4185 184.727 45.4329 184.092 45.5391L184.076 41.6281C184.075 41.4939 184.075 41.3547 184.076 41.2135C184.079 40.5919 184.081 39.917 183.949 39.296C185.441 39.1305 187.029 39.1675 188.592 39.2041C189.25 39.2194 189.904 39.2344 190.544 39.2344L203.944 39.2357L224.031 39.2301C225.09 39.2297 226.153 39.2174 227.217 39.2051C229.804 39.1751 232.398 39.1452 234.959 39.2843L235.102 39.8151L235.174 45.4572L234.749 45.5174L198.212 45.4908L188.384 45.4938C187.989 45.4941 187.57 45.4785 187.138 45.4622C186.812 45.4502 186.478 45.4378 186.139 45.4315Z"
            fill="#0E064F" stroke="#050505" stroke-width="0" />
        <path id="section_17" d="M176.005 2H183.985L184 45L176 44.9978L176.005 2Z" fill="#ECBEBB" stroke="#050505"
            stroke-width="0" />
        <path id="section_17b" d="M137.026 2H176.925L177 8L137 7.99969L137.026 2Z" fill="#ECBEBB" stroke="#050505"
            stroke-width="0.5" />
        <path id="section_17_wall" d="M184.5 1.16908H185.5V38.5H184.5V1.16908Z" fill="#050505" stroke="#050505" />
        <path id="section_8" d="M91 2.0039L90.998 49L87.8793 48.9812L85 48.9991L85.002 2.00419L87.8608 2L91 2.0039Z"
            fill="#802423" stroke="#050505" stroke-width="0" />
        <path id="section_8b" d="M137 2.0005L136.985 8L113.075 7.9976L91 7.99989L91.0152 2.00053L112.933 2L137 2.0005Z"
            fill="#802423" stroke="#050505" stroke-width="0.5" />
        <path id="section_53" d="M170.972 111.373V111.469L170.966 149.997H170.163H167.643V111.373H170.972Z"
            fill="#D5D1D5" stroke="#050505" stroke-width="0" />
        <path id="section_49" d="M182.626 111.373V111.469L182.62 149.997H181.817H179.296V111.373H182.626Z"
            fill="#D5D1D5" stroke="#050505" stroke-width="0" />
        <path id="Vector 7" d="M153.492 63.2597V102.549" stroke="#050505" stroke-width="0.5" />
        <path id="Vector 12" d="M212.759 63.2597V102.549" stroke="#050505" stroke-width="0.5" />
        <path id="section_0" d="M17.8095 193.948L24.6438 193.968L24.635 212.127L17.8091 212.153L17.8095 193.948Z"
            fill="#D5D1D5" stroke="#050505" stroke-width="0" />
        <path id="section_entrance"
            d="M32.2607 203.278V209.098H36.2886V203.271H37.9534L34.2908 198.776L30.6282 203.278H32.2607Z" fill="#008080"
            stroke="#008080" stroke-width="0.5" />
        <path id="section_85"
            d="M45.7794 160.183C45.781 155.821 45.7834 148.546 45.7824 144.167C45.7817 142.245 47.3556 140.674 49.2781 140.674C51.1747 140.674 52.712 142.211 52.712 144.108V160.182C52.712 162.096 51.1604 163.648 49.2458 163.648C47.3306 163.648 45.7787 162.098 45.7794 160.183Z"
            fill="#D5D1D5" stroke="#050505" stroke-width="0" />
        <path id="section_95"
            d="M16.8124 175.139C16.8143 170.525 16.8167 163.495 16.8158 158.861C16.8153 156.368 18.8609 154.325 21.3545 154.325C23.8098 154.325 25.8002 156.316 25.8002 158.771V175.137C25.8002 177.618 23.7883 179.63 21.3065 179.63C18.8234 179.63 16.8113 177.622 16.8124 175.139Z"
            fill="#D5D1D5" stroke="#050505" stroke-width="0" />
        <path id="section_1" d="M50.9389 177.633H44.2797V194.947H50.9389V177.633Z" fill="#D5D1D5" stroke="#050505"
            stroke-width="0" />
        <path id="section_checkout"
            d="M175.967 177.633H51.1055V194.947H178.797L205.767 184.125H287.842V163.815L205.767 164.814L175.967 177.633Z"
            stroke="#050505" stroke-width="0.5" />
        <path id="Vector 13" d="M91 2.25249V7.75" stroke="#802423" />
        <path id="Vector 14" d="M177 2.25V7.75" stroke="#ECBEBB" />
    </g>
</svg>